<mxfile host="Electron" agent="Mozilla/5.0 (Macintosh; Intel Mac OS X 10_15_7) AppleWebKit/537.36 (KHTML, like Gecko) draw.io/28.1.2 Chrome/138.0.7204.243 Electron/37.4.0 Safari/537.36" version="28.1.2">
  <diagram name="Page-1" id="DnSF13EjMu1cWpbi6D6K">
    <mxGraphModel dx="2946" dy="1134" grid="1" gridSize="10" guides="1" tooltips="1" connect="1" arrows="1" fold="1" page="1" pageScale="1" pageWidth="850" pageHeight="1100" math="0" shadow="0">
      <root>
        <mxCell id="0" />
        <mxCell id="1" parent="0" />
        <mxCell id="G008LspMD98nF5xx96pf-1" value="" style="shape=image;verticalLabelPosition=bottom;labelBackgroundColor=default;verticalAlign=top;aspect=fixed;imageAspect=0;image=data:image/png,iVBORw0KGgoAAAANSUhEUgAABLAAAAMsBAMAAAC2DEZKAAAABGdBTUEAALGPC/xhBQAAACBjSFJNAAB6JgAAgIQAAPoAAACA6AAAdTAAAOpgAAA6mAAAF3CculE8AAAAMFBMVEUAAADtGyTtHSTuHCTtHCTtHCTuHCPsHCTtHCTtHCTwHh7tHiXuHCTtHSPtHCT///+m40UdAAAADnRSTlMAOKnM1+5mh+LkEUWvu8ByvUcAAAABYktHRA8YugDZAAAAB3RJTUUH6QMVByEericDkgAAB1JJREFUeNrt0lERQEAUhtFNooQeHkUQw8ghghCaePFsZJCBmV3LPV+D+9+TkgrXnO+3ewNYYAksgSWwwBJYAktggSWwBJbAAktgCSyBBZbAElgCCyyBJbAEFlgCS2AJLLAElsASWGAJLIElsMASWAJLYIElsASWwAJLYAksgQWWwBJYAgsssMASWAILLLDAElgCCyywwBJYAgsssMASWAKrBlitCtfFgHUqYGAJLIEFFlhgCSyBBRZYYAksgQUWWGAJLIEFFlhgCSyBJbDAElgCS2CBJbAElsACS2AJLIEFlsASWAILLIElsAQWWAJLYAkssASWwBJYYAksgSWwwBJYAktggSWwBJbAAktgCSyBBZbAElgCCyyBJbAEFlgCS2AJLLAElsASWGAJLIElsMASWAJLYIElsASWwAJLYAksgQWWwBJYAgssgSWwBBZYAktgCSywBJbAElhgCSyBJbDAAgssgSWwwAILLIElsMACCyyBJbDAAgssgSWwjAwWWAJLYAkssASWwBJYYAksgSWwwBJYAktggSWwBJbAAktgCSyBBZbAElgCCyyBJbAEFlgCS2AJLLAElsASWGAJLIElsMASWAJLYIElsASWwAJLYAksgQWWwBJYAgssgSWwBBZYAktgCSywBJbAElhgCSyBJbDAElgCS2CBJbAElsACS2AJLIEFlsASWAILLIElsAQWWGCBJbAEFlhggSWwBBZYYIElsAQWWGCBJbAEFlhggSWwBJbAAktgCSyBBZbAElgCCyyBJbAEFlgCS2AJLLAElsASWGAJLIElsMASWAJLYIElsASWwAJLYAksgQWWwBJYAgssgSWwBBZYAktgCSywBJbAElhgCSyBJbDAElgCS2CBJbAElsACS2AJLIEFlsASWAILLIElsAQWWAJLYAkssASWwBJYYAksgSWwwBJYAktggSWwBJbAAgsssATWw/ohUiNYpZpSpBqwwAILLLDAAgsssMACCyywwAILLLDAAgsssMACCyywwAILLLDAAgsssMACCyywwAILLLDAAgsssMACCyywwAILLLDAAgsssMACCyywwAILLLDAAgsssMACCyywwAILLLDAAgsssMACCyywwAILLLDAAgsssMACCyywwAILLLDAAgsssMACCyywwAILLLDAAgsssMACCyywwAILLLDAAgsssMACCyywwAILLLDAAgsssMACCyywwAILLLDAAgsssMACCyywwAILLLDAAgsssMACCyywwAILLLDAAgsssMACCyywwAILLLDAAgsssMACCyywwAILLLDAAgsssMACCyywwAILLLDAAgsssMACCyywwAILLLDAAgsssMACCyywwAILLLDAAgsssMACCyywwAILLLDAAgsssMACCyywwAILLLDAAgsssMACCyywwAILLLDAAgsssMACCyywwAILLLDAAgsssMACCyywwAILLLDAAgsssMACCyywwAILLLDAAgsssMACCyywwAILLLDAAgsssMACCyywwAILLLDAAgsssMACCyywwAILLLDAAgsssMACCyywwAILLLDAAgsssMACCyywwAILLLDAAgsssMACCyywwAILLLDAAgsssMACCyywwAILLLDAAgsssMACCyywwAILLLDAAgsssMACCyywwAILLLDAAgsssMACCyywwAILLLDAAgsssMACCyywwAILLLDAAgsssMACCyywwAILLLDAAgsssMACCyywwAILLLDAAgsssMACCyywwAILLLDAAgsssMACCyywwAILLLDAAgsssMACCyywwAILLLDAAgsssMACCyywwAILLLDAAgsssMACCyywwAILLLDAAgsssMACCyywwLrdvERqrWDxI/uVVcDS/wJLYAksgSWBJbAElgSWwBJYElgCS2BJYAksgSWBJbAElgSWwBJYElgCS2BJYAksgSWBJbAElgSWwBJYElgCS2BJYAksgSWBJbAElgSWwBJYElgCS2BJYAksgSWBJbAElgSWwBJYElgCS2BJYAksgSWBJbAElgSWwBJYElgCS2BJYAksgSWBJbAElgSWwBJYElgCS2BJYAksgSWwJLAElsCSwBJYAksCS2AJLAksgSWwJLAElsCSwBJYAksCS2AJLAksgSWwJLAElsCSwBJYAksCS2AJLAksgSWwJLAElsCSwBJYAksCS2AJLAksgSWwJLAElsCSwBJYAksCS2AJLAksgSWwJLAElsCSwBJYAksCS2AJLAksgSWwJLAElsCSwBJYAksCS2AJLAksgSWwBJYJBJbAElgSWAJLYElgCSyBJYElsASWBJbAElgSWAJLYElgCSyBJYElsASWBJbAElgSWAJLYElgCSyBJYElsASWBJbAElgSWAJLYElgCSyBJYElsASWBJbAElgSWAJLYElgCSyBJYElsASWBJbAElgSWAJLYElgCSyBJYElsASWBJbAElgSWAJLYElgCSyBJYElsASWBJbAElgCSwJLX4G1SRm6AOtRY5uqsvwmAAAAJXRFWHRkYXRlOmNyZWF0ZQAyMDI1LTAzLTIxVDA3OjMzOjI5KzAwOjAwRgyPOQAAACV0RVh0ZGF0ZTptb2RpZnkAMjAyNS0wMy0yMVQwNzozMzoyOSswMDowMDdRN4UAAAAASUVORK5CYII=;" parent="1" vertex="1">
          <mxGeometry x="74" y="400" width="443.34" height="300" as="geometry" />
        </mxCell>
        <mxCell id="G008LspMD98nF5xx96pf-2" value="&lt;b&gt;&lt;font style=&quot;font-size: 150px;&quot;&gt;NAACL 2025&lt;/font&gt;&lt;/b&gt;" style="text;html=1;align=center;verticalAlign=middle;resizable=0;points=[];autosize=1;strokeColor=none;fillColor=none;" parent="1" vertex="1">
          <mxGeometry x="527.34" y="455" width="920" height="190" as="geometry" />
        </mxCell>
        <mxCell id="G008LspMD98nF5xx96pf-3" value="" style="shape=image;verticalLabelPosition=bottom;labelBackgroundColor=default;verticalAlign=top;aspect=fixed;imageAspect=0;editableCssRules=.*;image=data:image/svg+xml,PHN2ZyB4bWxucz0iaHR0cDovL3d3dy53My5vcmcvMjAwMC9zdmciIHZpZXdCb3g9IjUgNS4wMDAwMTM4MjgyNzc1ODggMjcxLjkzNTMwMjczNDM3NSA3NC4zNDk0MTEwMTA3NDIxOSIgaGVpZ2h0PSI3NC4zNDk0MTEwMTA3NDIxOSIgd2lkdGg9IjI3MS45MzUzMDI3MzQzNzUiIHhtbDpzcGFjZT0icHJlc2VydmUiIGlkPSJzdmcyOSIgdmVyc2lvbj0iMS4xIj48bWV0YWRhdGEgaWQ9Im1ldGFkYXRhMjY4Ij5pbWFnZS9zdmcreG1sPC9tZXRhZGF0YT48ZGVmcyBpZD0iZGVmczMzIj48bGluZWFyR3JhZGllbnQgaWQ9ImxpbmVhckdyYWRpZW50NTkiIHNwcmVhZE1ldGhvZD0icGFkIiBncmFkaWVudFRyYW5zZm9ybT0ibWF0cml4KC0zNS40ODA5NDIsMzkuMTcxMzY4LDM5LjE3MTM2OCwzNS40ODA5NDIsNDQuMDE3NTc4LDI0LjU0MTk5MikiIGdyYWRpZW50VW5pdHM9InVzZXJTcGFjZU9uVXNlIiB5Mj0iMCIgeDI9IjEiIHkxPSIwIiB4MT0iMCI+PHN0b3AgaWQ9InN0b3A0OSIgb2Zmc2V0PSIwIiBzdHlsZT0ic3RvcC1vcGFjaXR5OjE7c3RvcC1jb2xvcjojNThjOWVkIi8+PHN0b3AgaWQ9InN0b3A1MSIgb2Zmc2V0PSIwLjE0OTMxMyIgc3R5bGU9InN0b3Atb3BhY2l0eToxO3N0b3AtY29sb3I6IzU4YzllZCIvPjxzdG9wIGlkPSJzdG9wNTMiIG9mZnNldD0iMC40Njk4MTciIHN0eWxlPSJzdG9wLW9wYWNpdHk6MTtzdG9wLWNvbG9yOiM2MGMzMzIiLz48c3RvcCBpZD0ic3RvcDU1IiBvZmZzZXQ9IjAuODI4MDg2IiBzdHlsZT0ic3RvcC1vcGFjaXR5OjE7c3RvcC1jb2xvcjojY2FlMzFjIi8+PHN0b3AgaWQ9InN0b3A1NyIgb2Zmc2V0PSIxIiBzdHlsZT0ic3RvcC1vcGFjaXR5OjE7c3RvcC1jb2xvcjojY2FlMzFjIi8+PC9saW5lYXJHcmFkaWVudD48Y2xpcFBhdGggaWQ9ImNsaXBQYXRoNjkiIGNsaXBQYXRoVW5pdHM9InVzZXJTcGFjZU9uVXNlIj48cGF0aCBpZD0icGF0aDY3IiBkPSJNIDAsMTA4IEggMjE2IFYgMCBIIDAgWiIvPjwvY2xpcFBhdGg+PC9kZWZzPjxnIHRyYW5zZm9ybT0ibWF0cml4KDEuMzMzMzMzMywwLDAsLTEuMzMzMzMzMywzLjE4NjY2NjcsMTA1LjE4NDA5KSIgaWQ9ImczNSI+PGcgaWQ9ImczNyI+PGcgaWQ9ImczOSI+PGcgaWQ9Imc0NSI+PGcgaWQ9Imc0NyI+PHBhdGggaWQ9InBhdGg2MSIgc3R5bGU9ImZpbGw6dXJsKCNsaW5lYXJHcmFkaWVudDU5KTtzdHJva2U6bm9uZSIgZD0ibSAxNC43MjMsNDYuMzA0IDQuNjMxLC0wLjAwMiB2IDMuOTQ3IGwgNC45MDMsNC45MDQgaCA2LjM5MSB2IDcuMDc2IGggLTcuMDc1IGwgLTAuMDAxLC02LjM5MSAtNC45MDUsLTQuOTA0IGggLTMuOTQ0IHogbSAtMi4wNDEsMTQuODA0IHYgMS44NTEgTCAxMC44Myw2Mi45NTggViA2MS41MzcgTCA5LjI0OSw1OS45NTUgNi4yOTksNTkuOTU0IDYuMjk4LDU2LjU3NyBoIDMuMzc5IGwgMC4wMDIsMi45NDkgMS41OCwxLjU4MiB6IG0gMjguOTM2LC0xOC42NjcgMi4yMywyLjIzMSBoIDIuMDA0IHYgMi42MDggaCAtMi42MDggdiAtMi4wMDQgbCAtMi4yMzEsLTIuMjMgLTQuMTU4LC0wLjAwMiB2IC00Ljc2IGwgNC43NjMsMTBlLTQgeiBtIDYuNTM4LC0xMC4zMzkgdiA0Ljc2MSBoIC00Ljc2IGwgLTAuMDAyLC00LjE1OCAtMi4yMywtMi4yMyBIIDM5LjE2IHYgLTIuNjA5IGggMi42MTEgdiAyLjAwNSBsIDIuMjI4LDIuMjMgeiBNIDQuNzc0LDQ3LjExMiAyLjk3Niw0NS4zMTYgSCAxLjM2IHYgLTIuMTA1IGwgMi4xMDQsMC4wMDEgdiAxLjYxNiBsIDEuNzk5LDEuNzk4IGggMy4zNSB2IDMuODQgSCA0Ljc3NSBaIG0gMTQuNjc1LC0xMi42NyAtMi41MjYsLTIuNTI3IGggLTQuNzEgdiAtNS4zOTQgaCA1LjM5MyBsIDAuMDAyLDQuNzA5IDIuNTI4LDIuNTI5IGggMi4yNjggbCAwLjAwMSwyLjk1NCBoIC0yLjk1NiB6IG0gOC43MjcsLTIuNDM5IC0yLjUyNywtMi41MjYgaCAtMi4yNjggbCAtMC4wMDIsLTIuOTU2IGggMi45NTYgdiAyLjI3MSBsIDIuNTI2LDIuNTI3IGggNC43MSB2IDUuMzk0IEggMjguMTc4IFogTSA0MC4zODQsNTEuNzE3IDM0LjcxLDUxLjcxNSB2IC00Ljk4NyBsIC0yLjU3MSwtMi41NzIgaCAtMy45NDUgdiAtNC42MzEgaCA0LjYzIHYgMy45NDYgbCAyLjU3MSwyLjU3MSBoIDQuOTg5IHogbSAtOS4xOTksLTUuMDE2IHYgNC45NzggbCAzLjA1MSwzLjA1MSBoIDUuMzc0IHYgNi4wNjEgTCAzMy41NTIsNjAuNzkgViA1NS40MTYgTCAzMC40OTksNTIuMzYzIEggMjUuNTIxIFYgNDcuMzg4IEwgMjIuNTc4LDQ0LjQ0MSBIIDE5LjY4MiBMIDE5LjY4LDQwLjg1OSBoIDMuNTgyIHYgMi44OTggbCAyLjk0NSwyLjk0NCB6IE0gMTkuMTU4LDcyLjcwNCBoIC0xLjI1IHYgLTEuMjUxIGggMS4yNSB6IG0gLTIuMjIxLC00LjM1NSBoIC0zLjEgViA2NS4yNSBsIDMuMSwwLjAwMSB6IG0gLTMuOTM1LDMuMTM5IGggLTIuMjk5IHYgLTIuMjk5IGggMi4yOTkgeiBtIDMzLjM4LC00My45NDQgaCAyLjExMiB2IDIuMTEzIEggNDYuMzgyIFogTSAxMi42ODUsNDQuNDE3IGggLTIuMTExIHYgLTIuMTExIGggMi4xMTEgeiBtIDUuMzQsMTAuOTA0IGggLTIuMTEgdiAtMi4xMSBoIDIuMTEgeiBtIDUuNjUxLDE0LjM4NCBoIC00LjM0MiB2IC00LjM0NCBoIDQuMzQyIHogbSAxMS4yNzIsLTIuMDE3IGggLTQuMjA1IHYgLTQuMjA0IGggNC4yMDUgeiBNIDIwLjczNiw2Mi45MzUgSCAxNS4xNzIgViA1Ny4zNyBsIDUuNTY0LDAuMDAxIHogTSA0OC40NzcsNTEuOTAzIDQ1LjY4MSw1MS45MDEgdiAtMi43OTQgbCAyLjc5NiwxMGUtNCB6IG0gLTQuODc1LDUuNDYzIC0yLjI0NywtMTBlLTQgLTEwZS00LC0yLjI0NyBoIDIuMjQ4IHogTSAyOC43MSw2Ny41NjkgaCAtMi43NDEgdiAtMi43NDEgbCAyLjc0MSwxMGUtNCB6IE0gMTIuNDcsNTQuMjMzIEggMTAuMTQ4IFYgNTEuOTEyIEggMTIuNDcgWiBNIDM5LjU0NSwzNS4zNjIgaCAtMi4zMiBsIC0wLjAwMiwtMi4zMjMgaCAyLjMyNCB6Ii8+PC9nPjwvZz48L2c+PC9nPjxnIGlkPSJnNjMiPjxnIGNsaXAtcGF0aD0idXJsKCNjbGlwUGF0aDY5KSIgaWQ9Imc2NSI+PHBhdGggaWQ9InBhdGg3MSIgc3R5bGU9ImZpbGw6IzQxNDg1YjtmaWxsLW9wYWNpdHk6MTtmaWxsLXJ1bGU6bm9uemVybztzdHJva2U6bm9uZSIgZD0ibSA1OS4wNTEsMzEuMzk2IGggLTIuOTY1IHYgMi45NjYgaCAyLjk2NSB6IG0gLTQuNDgsMTMuNDgyIGggLTEuNjA2IHYgMS42MDYgbCAxLjYwNiwxMGUtNCB6IG0gLTUuODQzLDE1LjAyNyBoIC0yLjg0MiB2IDIuODQxIGggMi44NDIgeiBtIC03LjY4NCw3Ljc2NiBoIC0xLjY1MyB2IDEuNjUxIGggMS42NTMgeiBNIDY2Ljg3MiwzNy41NCBjIC0zLjc2MSwzLjYwMSAtMC45NzYsMy42MiAtMC45MDIsNS44MzggMC4wNzYsMi4yMTcgLTEuNzgxLDIuNjMxIC0xLjc4MSwyLjYzMSAwLjgwMywxLjg4NyAwLjkwMywyLjMyMyAwLjkwMywyLjMyMyAtMS43MDUsMS4zMDMgLTIuMDA2LDIuOTEgLTIuMDA2LDIuOTEgMS43MDQsMi42MDcgMi45MDQsNS42MDIgMi45MDQsNS42MDIgMCwwIC0xMS4yNjMsMy42MDggLTE1LjUxNCw2LjMzNCAtMS42MDQsMC42NjYgLTEuMjAzLDMuMTQ1IC0xLjIwMywzLjE0NSAtMTEuMDM0LDE0LjE0NCAtMjcuNTY0LDcuMDIyIC0yNy41NjQsNy4wMjIgdiAtMC40MDIgYyAwLDAgMS4yNTYsLTAuMTUgMy4yNTEsLTAuNzA5IGwgMi43NjgsLTAuMDAyIHYgLTAuOTA2IGMgMS4wMTQsLTAuMzgxIDIuMTEzLC0wLjg0NSAzLjI2NSwtMS40MTEgaCA2LjUyIEwgMzcuNTExLDY1Ljc4IGMgMC43MDgsLTAuNTY2IDEuNDEzLC0xLjE3NiAyLjEwOSwtMS44MzMgaCAzLjYwMSBsIDAuMDAxLC0zLjk4MyBjIDAuODg5LC0xLjE1MyAxLjc0MiwtMi40MDcgMi41NCwtMy43NzQgMC40OTQsLTAuNzczIDAuOTUxLC0xLjU0NSAxLjM4MSwtMi4zMiBoIDMuMjM0IHYgLTQuNTQzIGwgMi41ODgsLTAuMDAyIHYgLTIuODQgbCAtMS4yOTYsLTAuMDE4IGMgMCwwIDAuMDE0LC0zLjAzNCAwLjAxNSwtNC40OTggTCA0OC4yNCw0MS45NjggdiAtMy40OTcgaCAzLjQ5OCB2IDMuNDA2IEggNTUuMjQgViAzNS4yNjQgSCA1Mi42MzIgQyA1My4yNzUsMjYuMDIgNTAuOTgsMTkuMzc2IDUwLjk4LDE5LjM3NiBjIDEuNDA1LDMuOTEzIDUuMTE2LDcuMTczIDEwLjIwMSw4Ljk5NyA0Ljc4OCwxLjcxNSA5LjQ1NCw1LjU2NiA1LjY5MSw5LjE2NyIvPjxwYXRoIGlkPSJwYXRoNzMiIHN0eWxlPSJmaWxsOiMzNTQxNGQ7ZmlsbC1vcGFjaXR5OjE7ZmlsbC1ydWxlOm5vbnplcm87c3Ryb2tlOm5vbmUiIGQ9Ik0gODYuNjE1LDY0LjgzNiBIIDk2LjkxNiBWIDM0LjQ1NCBIIDg2LjYxNSBaIi8+PGcgdHJhbnNmb3JtPSJ0cmFuc2xhdGUoMTI2LjQzNDYsNDYuODg4NykiIGlkPSJnNzUiPjxwYXRoIGlkPSJwYXRoNzciIHN0eWxlPSJmaWxsOiMzNTQxNGQ7ZmlsbC1vcGFjaXR5OjE7ZmlsbC1ydWxlOm5vbnplcm87c3Ryb2tlOm5vbmUiIGQ9Im0gMCwwIDkuMDA4LC0yLjQ4NiBjIC0wLjYwNiwtMi4zMDkgLTEuNTU5LC00LjIzNiAtMi44NiwtNS43ODMgLTEuMywtMS41NDcgLTIuOTE1LC0yLjcxNCAtNC44NDMsLTMuNTAyIC0xLjkyOSwtMC43ODggLTQuMzgzLC0xLjE4MiAtNy4zNjMsLTEuMTgyIC0zLjYxNSwwIC02LjU2OCwwLjQ4IC04Ljg2LDEuNDM5IC0yLjI5MiwwLjk2IC00LjI2OSwyLjY0OCAtNS45MzQsNS4wNjUgLTEuNjY0LDIuNDE2IC0yLjQ5NSw1LjUwOSAtMi40OTUsOS4yNzggMCw1LjAyNiAxLjQ2Myw4Ljg4OSA0LjM5LDExLjU4OCAyLjkyOCwyLjY5OSA3LjA2OCw0LjA0OSAxMi40MjMsNC4wNDkgNC4xODksMCA3LjQ4MywtMC43NzQgOS44ODEsLTIuMzIxIEMgNS43NDQsMTQuNTk3IDcuNTI1LDEyLjIyMSA4LjY5LDkuMDE2IEwgLTAuMzg2LDcuMTcxIGMgLTAuMzE3LDAuOTI2IC0wLjY1LDEuNjAyIC0wLjk5OCwyLjAzMSAtMC41NzUsMC43MTggLTEuMjc4LDEuMjcxIC0yLjExLDEuNjU3IC0wLjgzMiwwLjM4NyAtMS43NjMsMC41ODEgLTIuNzkxLDAuNTgxIC0yLjMyOSwwIC00LjExNCwtMC44NTYgLTUuMzU1LC0yLjU2NyAtMC45MzcsLTEuMjY5IC0xLjQwNiwtMy4yNjQgLTEuNDA2LC01Ljk4MSAwLC0zLjM2OSAwLjU2LC01LjY3NiAxLjY3OSwtNi45MjUgMS4xMTksLTEuMjQ4IDIuNjkyLC0xLjg3MyA0LjcyLC0xLjg3MyAxLjk2NSwwIDMuNDUyLDAuNTA0IDQuNDU4LDEuNTEyIEMgLTEuMTg0LC0zLjM4NSAtMC40NTQsLTEuOTIgMCwwIi8+PC9nPjxnIHRyYW5zZm9ybT0idHJhbnNsYXRlKDE0MC40MzM2LDY0LjgzNjQpIiBpZD0iZzc5Ij48cGF0aCBpZD0icGF0aDgxIiBzdHlsZT0iZmlsbDojMzU0MTRkO2ZpbGwtb3BhY2l0eToxO2ZpbGwtcnVsZTpub256ZXJvO3N0cm9rZTpub25lIiBkPSJtIDAsMCBoIDEwLjI3OCB2IC0yMi45MDEgaCAxNi4wNDEgdiAtNy40ODEgSCAwIFoiLz48L2c+PGcgdHJhbnNmb3JtPSJ0cmFuc2xhdGUoMTgxLjg4NzcsNTIuNTI2NCkiIGlkPSJnODMiPjxwYXRoIGlkPSJwYXRoODUiIHN0eWxlPSJmaWxsOiMzNTQxNGQ7ZmlsbC1vcGFjaXR5OjE7ZmlsbC1ydWxlOm5vbnplcm87c3Ryb2tlOm5vbmUiIGQ9Ik0gMCwwIEggNC4zMzMgQyA0LjgwMiwwIDUuNzEsMC4xMzggNy4wNTYsMC40MTQgNy43MzYsMC41MzggOC4yOTMsMC44NTYgOC43MjQsMS4zNjggOS4xNTUsMS44NzggOS4zNywyLjQ2NiA5LjM3LDMuMTMgOS4zNyw0LjExIDkuMDMsNC44NjIgOC4zNSw1LjM4OCA3LjY2OSw1LjkxMyA2LjM5MSw2LjE3NiA0LjUxNSw2LjE3NiBIIDAgWiBNIC0xMC4zMjQsLTE4LjA3MiBWIDEyLjMxIEggNi44MDcgYyAzLjE3NiwwIDUuNjA0LC0wLjI0OCA3LjI4MywtMC43NDYgMS42NzksLTAuNDk3IDMuMDMyLC0xLjQxOSA0LjA2MSwtMi43NjcgMS4wMjksLTEuMzQ3IDEuNTQzLC0yLjk4NyAxLjU0MywtNC45MjEgMCwtMS42ODcgLTAuMzkzLC0zLjE0MSAtMS4xOCwtNC4zNjMgLTAuNzg3LC0xLjIyMyAtMS44NywtMi4yMTUgLTMuMjQ3LC0yLjk3NSAtMC44NzcsLTAuNDgzIC0yLjA4MSwtMC44ODQgLTMuNjEsLTEuMjAxIDEuMjI1LC0wLjM3NCAyLjExNiwtMC43NDcgMi42NzYsLTEuMTIgMC4zNzgsLTAuMjQ5IDAuOTI2LC0wLjc4MiAxLjY0NCwtMS41OTggMC43MTcsLTAuODE1IDEuMTk4LC0xLjQ0NSAxLjQzOSwtMS44ODggbCA0Ljk3OCwtOC44MDMgSCAxMC43OCBsIC01LjQ5NCw5LjI4NCBjIC0wLjY5NSwxLjIwMyAtMS4zMTUsMS45ODIgLTEuODYsMi4zNDIgLTAuNzQxLDAuNDcgLTEuNTgxLDAuNzA1IC0yLjUxOSwwLjcwNSBIIDAgdiAtMTIuMzMxIHoiLz48L2c+PGcgdHJhbnNmb3JtPSJ0cmFuc2xhdGUoODYuNDM2NSwzMC4zMjkxKSIgaWQ9Imc4NyI+PHBhdGggaWQ9InBhdGg4OSIgc3R5bGU9ImZpbGw6IzM1NDE0ZDtmaWxsLW9wYWNpdHk6MTtmaWxsLXJ1bGU6bm9uemVybztzdHJva2U6bm9uZSIgZD0iTSAwLDAgSCAxMTguMzc1Ii8+PC9nPjxnIHRyYW5zZm9ybT0idHJhbnNsYXRlKDIwNC44MTE1LDI5LjgyOTEpIiBpZD0iZzkxIj48cGF0aCBpZD0icGF0aDkzIiBzdHlsZT0iZmlsbDojMzU0MTRkO2ZpbGwtb3BhY2l0eToxO2ZpbGwtcnVsZTpub256ZXJvO3N0cm9rZTpub25lIiBkPSJtIDAsMCBoIC0xMTguMzc1IGMgLTAuMjc2LDAgLTAuNSwwLjIyNCAtMC41LDAuNSAwLDAuMjc2IDAuMjI0LDAuNSAwLjUsMC41IEggMCBDIDAuMjc2LDEgMC41LDAuNzc2IDAuNSwwLjUgMC41LDAuMjI0IDAuMjc2LDAgMCwwIi8+PC9nPjwvZz48L2c+PC9nPjwvc3ZnPg==;" parent="1" vertex="1">
          <mxGeometry x="120" y="1330" width="900" height="244.85" as="geometry" />
        </mxCell>
        <mxCell id="G008LspMD98nF5xx96pf-4" value="" style="shape=image;verticalLabelPosition=bottom;labelBackgroundColor=default;verticalAlign=top;aspect=fixed;imageAspect=0;editableCssRules=.*;image=data:image/svg+xml,PHN2ZyB4bWxucz0iaHR0cDovL3d3dy53My5vcmcvMjAwMC9zdmciIHZlcnNpb249IjEuMSIgaWQ9InN2ZzYwNCIgeG1sOnNwYWNlPSJwcmVzZXJ2ZSIgd2lkdGg9IjI2OC4xODM0NDExNjIxMDk0IiBoZWlnaHQ9Ijg3LjY2NTMyMTM1MDA5NzY2IiB2aWV3Qm94PSIzLjk5OTk5OTA0NjMyNTY4MzYgNC4wMDAwMTk1NTAzMjM0ODYgMjY4LjE4MzQ0MTE2MjEwOTQgODcuNjY1MzIxMzUwMDk3NjYiPjxtZXRhZGF0YSBpZD0ibWV0YWRhdGE2MTAiPmltYWdlL3N2Zyt4bWw8L21ldGFkYXRhPjxkZWZzIGlkPSJkZWZzNjA4Ij48Y2xpcFBhdGggY2xpcFBhdGhVbml0cz0idXNlclNwYWNlT25Vc2UiIGlkPSJjbGlwUGF0aDYyNCI+PHBhdGggZD0iTSAwLDEwOCBIIDIxNiBWIDAgSCAwIFoiIGlkPSJwYXRoNjIyIi8+PC9jbGlwUGF0aD48L2RlZnM+PGcgaWQ9Imc2MTIiIHRyYW5zZm9ybT0ibWF0cml4KDEuMzMzMzMzMywwLDAsLTEuMzMzMzMzMywtNS40MDM3MzMxLDExOS41NTg0KSI+PGcgaWQ9Imc2MTQiIHRyYW5zZm9ybT0idHJhbnNsYXRlKDEwMi43Mjk1LDgxLjM5ODkpIj48cGF0aCBkPSJtIDAsMCB2IC01LjUyNSBoIC0yLjkwMiB2IC0yMC42NCBIIDAgdiAtNS41MjQgaCAtMTMuNjIgdiA1LjUyNCBoIDIuOTAzIHYgMjAuNjQgSCAtMTMuNjIgViAwIFoiIHN0eWxlPSJmaWxsOiMxMDBmMGQ7ZmlsbC1vcGFjaXR5OjE7ZmlsbC1ydWxlOm5vbnplcm87c3Ryb2tlOm5vbmUiIGlkPSJwYXRoNjE2Ii8+PC9nPjxnIGlkPSJnNjE4Ij48ZyBpZD0iZzYyMCIgY2xpcC1wYXRoPSJ1cmwoI2NsaXBQYXRoNjI0KSI+PGcgaWQ9Imc2MjYiIHRyYW5zZm9ybT0idHJhbnNsYXRlKDEzMi41ODQsNTAuODM2OSkiPjxwYXRoIGQ9Im0gMCwwIGMgLTIuNTMyLC0xLjEyIC01LjgzOSwtMS42OCAtOS45MTksLTEuNjggLTUuMzIyLDAgLTkuNTA4LDEuNDI5IC0xMi41NTcsNC4yODcgLTMuMDQ3LDIuODU4IC00LjU3Miw2LjY2NyAtNC41NzIsMTEuNDI1IDAsNS4wNjggMS43MTQsOS4xNzggNS4xNDIsMTIuMzMxIDMuNDI3LDMuMTUzIDcuODc0LDQuNzI5IDEzLjM0Miw0LjcyOSAzLjM4NiwwIDYuMjQyLC0wLjM5IDguNTY0LC0xLjE3MSB2IC02Ljg3MyBjIC0yLjMyMiwxLjI2NyAtNC45NjgsMS45MDEgLTcuOTM2LDEuOTAxIC0zLjI1NywwIC01Ljg4NiwtMC45MzYgLTcuODg2LC0yLjgwNiAtMiwtMS44NzIgLTMsLTQuNDA2IC0zLC03LjYwMiAwLC0zLjA2NSAwLjk0MywtNS41MDcgMi44MzEsLTcuMzI2IDEuODg3LC0xLjgxOSA0LjQyNywtMi43MjkgNy42MiwtMi43MjkgMy4wNDksMCA1LjgzOSwwLjY3OCA4LjM3MSwyLjAzMyB6IiBzdHlsZT0iZmlsbDojMTAwZjBkO2ZpbGwtb3BhY2l0eToxO2ZpbGwtcnVsZTpub256ZXJvO3N0cm9rZTpub25lIiBpZD0icGF0aDYyOCIvPjwvZz48ZyBpZD0iZzYzMCIgdHJhbnNmb3JtPSJ0cmFuc2xhdGUoMTc4LjE2MjEsNDkuNzEpIj48cGF0aCBkPSJtIDAsMCBoIC03LjcxNyB2IDE4Ljk2IGMgMCwyLjA0OCAwLjA5Nyw0LjMxIDAuMjksNi43ODQgSCAtNy42MiBDIC04LjAyMywyMy44IC04LjM4NywyMi40IC04LjcwOSwyMS41NDYgTCAtMTYuODM4LDAgaCAtNi4zODcgbCAtOC4yNzMsMjEuMzI1IGMgLTAuMjI3LDAuNTc0IC0wLjU5LDIuMDQ3IC0xLjA4OSw0LjQxOSBoIC0wLjIxOCBjIDAuMjA5LC0zLjEyMyAwLjMxNSwtNS44NjMgMC4zMTUsLTguMjIgViAwIGggLTcuMDQgdiAzMS42ODkgaCAxMS40NDMgbCA3LjA4OCwtMTguNzg0IGMgMC41NjQsLTEuNTAyIDAuOTc2LC0zLjAxMiAxLjIzNCwtNC41MyBoIDAuMTQ1IGMgMC40MzUsMS43NTMgMC44OTUsMy4yNzggMS4zNzksNC41NzUgbCA3LjA4OSwxOC43MzkgSCAwIFoiIHN0eWxlPSJmaWxsOiMxMDBmMGQ7ZmlsbC1vcGFjaXR5OjE7ZmlsbC1ydWxlOm5vbnplcm87c3Ryb2tlOm5vbmUiIGlkPSJwYXRoNjMyIi8+PC9nPjxnIGlkPSJnNjM0IiB0cmFuc2Zvcm09InRyYW5zbGF0ZSgyMDYuNzEsNDkuNzEpIj48cGF0aCBkPSJtIDAsMCBoIC0yMC42NiB2IDMxLjY4OSBoIDcuODE0IFYgNS43OSBIIDAgWiIgc3R5bGU9ImZpbGw6IzEwMGYwZDtmaWxsLW9wYWNpdHk6MTtmaWxsLXJ1bGU6bm9uemVybztzdHJva2U6bm9uZSIgaWQ9InBhdGg2MzYiLz48L2c+PHBhdGggZD0ibSA4OS43MDksNDEuNjMxIGggMC43MDggdiAtNy4wOCBoIC0wLjcwOCB6IiBzdHlsZT0iZmlsbDojMTAwZjBkO2ZpbGwtb3BhY2l0eToxO2ZpbGwtcnVsZTpub256ZXJvO3N0cm9rZTpub25lIiBpZD0icGF0aDYzOCIvPjxnIGlkPSJnNjQwIiB0cmFuc2Zvcm09InRyYW5zbGF0ZSg5MS43NjY2LDM5Ljc4NDIpIj48cGF0aCBkPSJtIDAsMCBoIDAuNjcgdiAtMC42NyBoIDAuMDE4IGMgMC4yMDIsMC4zMTYgMC43MTgsMC44MDQgMS42MDgsMC44MDQgMC42NDEsMCAxLjE3NywtMC4xNjIgMS42NTUsLTAuNjQxIDAuMzkzLC0wLjM4MyAwLjY1MSwtMC45ODUgMC42NTEsLTEuODQ3IHYgLTIuODc5IGggLTAuNjcgdiAyLjg3OSBjIDAsMC42NzkgLTAuMjEsMS4xNTggLTAuNDk3LDEuNDM1IC0wLjM2NCwwLjM1NSAtMC44NDIsMC40NSAtMS4xMzksMC40NSAtMC4yOTcsMCAtMC43NzUsLTAuMDk1IC0xLjEzOSwtMC40NSBDIDAuODcsLTEuMTk2IDAuNjYsLTEuNjc1IDAuNjcsLTIuMzU0IFYgLTUuMjMzIEggMCBaIiBzdHlsZT0iZmlsbDojMTAwZjBkO2ZpbGwtb3BhY2l0eToxO2ZpbGwtcnVsZTpub256ZXJvO3N0cm9rZTpub25lIiBpZD0icGF0aDY0MiIvPjwvZz48ZyBpZD0iZzY0NCIgdHJhbnNmb3JtPSJ0cmFuc2xhdGUoOTguMjE2OCwzOS4xODE2KSI+PHBhdGggZD0iTSAwLDAgSCAtMS4xMDEgViAwLjYwMyBIIDAgViAyLjQ0OSBIIDAuNjcgViAwLjYwMyBIIDEuOTIzIFYgMCBIIDAuNjcgViAtNC42MzEgSCAwIFoiIHN0eWxlPSJmaWxsOiMxMDBmMGQ7ZmlsbC1vcGFjaXR5OjE7ZmlsbC1ydWxlOm5vbnplcm87c3Ryb2tlOm5vbmUiIGlkPSJwYXRoNjQ2Ii8+PC9nPjxnIGlkPSJnNjQ4IiB0cmFuc2Zvcm09InRyYW5zbGF0ZSgxMDUuMzY0MywzNy41MjY0KSI+PHBhdGggZD0iTSAwLDAgQyAtMC4yMTEsMS4yMzQgLTEuMjE1LDEuNzg5IC0yLjA0OCwxLjc4OSAtMi44NywxLjc4OSAtMy44OTQsMS4yMzQgLTQuMDg1LDAgWiBtIC00LjA4NSwtMC42MDMgYyAwLjA0OCwtMS4wMjQgMS4wMDQsLTEuODk0IDIuMDI4LC0xLjg5NCAwLjk1NiwwLjAxOCAxLjYzNiwwLjU4MyAxLjg3NSwxLjIzNCBIIDAuNTI2IEMgMC4xNjIsLTIuMzA2IC0wLjg0MiwtMy4xIC0yLjA0OCwtMy4xIGMgLTEuNDY0LDAgLTIuNzI2LDEuMTg2IC0yLjcyNiwyLjczNyAwLDEuNDgyIDEuMTk2LDIuNzI2IDIuNzE3LDIuNzU1IDEuMTQ4LC0wLjAxIDEuOTYxLC0wLjY4OSAyLjMzNCwtMS4zNCAwLjM1NSwtMC41NjUgMC40MzEsLTEuMTQ4IDAuNDAyLC0xLjY1NSB6IiBzdHlsZT0iZmlsbDojMTAwZjBkO2ZpbGwtb3BhY2l0eToxO2ZpbGwtcnVsZTpub256ZXJvO3N0cm9rZTpub25lIiBpZD0icGF0aDY1MCIvPjwvZz48ZyBpZD0iZzY1MiIgdHJhbnNmb3JtPSJ0cmFuc2xhdGUoMTA3LjA2OTMsMzkuNzg0MikiPjxwYXRoIGQ9Im0gMCwwIGggMC42NyB2IC0wLjc1NiBoIDAuMDE4IGMgMC4zMTYsMC43MzYgMC45MSwwLjg1MiAxLjQ3NCwwLjg5IFYgLTAuNTc0IEMgMS42OTMsLTAuNjEyIDEuMjkxLC0wLjc4NCAxLjAzMywtMS4wOTEgMC44MDQsLTEuMzc4IDAuNjcsLTEuNzUxIDAuNjcsLTIuMTcyIFYgLTUuMjMzIEggMCBaIiBzdHlsZT0iZmlsbDojMTAwZjBkO2ZpbGwtb3BhY2l0eToxO2ZpbGwtcnVsZTpub256ZXJvO3N0cm9rZTpub25lIiBpZD0icGF0aDY1NCIvPjwvZz48ZyBpZD0iZzY1NiIgdHJhbnNmb3JtPSJ0cmFuc2xhdGUoMTEwLjE1MDQsMzkuNzg0MikiPjxwYXRoIGQ9Im0gMCwwIGggMC42NyB2IC0wLjY3IGggMC4wMTggYyAwLjIwMiwwLjMxNiAwLjcxOCwwLjgwNCAxLjYwOCwwLjgwNCAwLjY0MSwwIDEuMTc3LC0wLjE2MiAxLjY1NSwtMC42NDEgMC4zOTMsLTAuMzgzIDAuNjUxLC0wLjk4NSAwLjY1MSwtMS44NDcgdiAtMi44NzkgaCAtMC42NyB2IDIuODc5IGMgMCwwLjY3OSAtMC4yMSwxLjE1OCAtMC40OTcsMS40MzUgLTAuMzY0LDAuMzU1IC0wLjg0MiwwLjQ1IC0xLjEzOSwwLjQ1IC0wLjI5NywwIC0wLjc3NSwtMC4wOTUgLTEuMTM5LC0wLjQ1IEMgMC44NywtMS4xOTYgMC42NiwtMS42NzUgMC42NywtMi4zNTQgViAtNS4yMzMgSCAwIFoiIHN0eWxlPSJmaWxsOiMxMDBmMGQ7ZmlsbC1vcGFjaXR5OjE7ZmlsbC1ydWxlOm5vbnplcm87c3Ryb2tlOm5vbmUiIGlkPSJwYXRoNjU4Ii8+PC9nPjxnIGlkPSJnNjYwIiB0cmFuc2Zvcm09InRyYW5zbGF0ZSgxMTguNTgxMSwzNS4wMjkzKSI+PHBhdGggZD0iTSAwLDAgQyAxLjEyOSwwIDIuMDk1LDAuOTA5IDIuMDk1LDIuMTM0IDIuMDk1LDMuMjgxIDEuMjA1LDQuMjg2IDAsNC4yODYgLTEuMTQ4LDQuMjg2IC0yLjE0NCwzLjQ1NCAtMi4xNDQsMi4xMjQgLTIuMTQ0LDAuOTU3IC0xLjI4MiwwIDAsMCBNIDIuNzI3LC0wLjQ3OSBIIDIuMDU3IFYgMC40MzkgSCAyLjAzNyBDIDEuNDY0LC0wLjQyMSAwLjU0NSwtMC42MDMgMCwtMC42MDMgYyAtMS42NDYsMCAtMi44MTMsMS4yNTMgLTIuODEzLDIuNzU1IDAsMS4zOTcgMS4xLDIuNzM3IDIuODEzLDIuNzM3IDAuNTY0LDAgMS40ODIsLTAuMTgyIDIuMDM3LC0xLjA1MyBoIDAuMDIgdiAwLjkxOSBoIDAuNjcgeiIgc3R5bGU9ImZpbGw6IzEwMGYwZDtmaWxsLW9wYWNpdHk6MTtmaWxsLXJ1bGU6bm9uemVybztzdHJva2U6bm9uZSIgaWQ9InBhdGg2NjIiLz48L2c+PGcgaWQ9Imc2NjQiIHRyYW5zZm9ybT0idHJhbnNsYXRlKDEyMy4xMzc3LDM5LjE4MTYpIj48cGF0aCBkPSJNIDAsMCBIIC0xLjEwMSBWIDAuNjAzIEggMCBWIDIuNDQ5IEggMC42NyBWIDAuNjAzIEggMS45MjMgViAwIEggMC42NyBWIC00LjYzMSBIIDAgWiIgc3R5bGU9ImZpbGw6IzEwMGYwZDtmaWxsLW9wYWNpdHk6MTtmaWxsLXJ1bGU6bm9uemVybztzdHJva2U6bm9uZSIgaWQ9InBhdGg2NjYiLz48L2c+PHBhdGggZD0ibSAxMjUuNzcsMzkuNzg0IGggMC42NyB2IC01LjIzMyBoIC0wLjY3IHogbSAwLDEuODQ3IGggMC42NyB2IC0xLjIwNiBoIC0wLjY3IHoiIHN0eWxlPSJmaWxsOiMxMDBmMGQ7ZmlsbC1vcGFjaXR5OjE7ZmlsbC1ydWxlOm5vbnplcm87c3Ryb2tlOm5vbmUiIGlkPSJwYXRoNjY4Ii8+PGcgaWQ9Imc2NzAiIHRyYW5zZm9ybT0idHJhbnNsYXRlKDEzMC4xOTkyLDM1LjAyOTMpIj48cGF0aCBkPSJNIDAsMCBDIDEuMDE1LDAgMi4wNjYsMC44MDQgMi4wNjYsMi4xNzIgMi4wNjYsMy41NDkgMC44OTksNC4yODYgMCw0LjI4NiAtMC45NTYsNC4yODYgLTIuMDY2LDMuNTAyIC0yLjA2NiwyLjExNCAtMi4wNjYsMC44OTkgLTEuMDgxLDAgMCwwIG0gLTAuMDA5LDQuODg5IGMgMS41NSwwIDIuNzQ1LC0xLjMxMSAyLjc0NSwtMi43NDYgMCwtMS40MjUgLTEuMTc2LC0yLjc0NiAtMi43NDUsLTIuNzQ2IC0xLjUzMSwwIC0yLjcyNywxLjI5MSAtMi43MjcsMi43MDcgMCwxLjY1NiAxLjM0OSwyLjc4NSAyLjcyNywyLjc4NSIgc3R5bGU9ImZpbGw6IzEwMGYwZDtmaWxsLW9wYWNpdHk6MTtmaWxsLXJ1bGU6bm9uemVybztzdHJva2U6bm9uZSIgaWQ9InBhdGg2NzIiLz48L2c+PGcgaWQ9Imc2NzQiIHRyYW5zZm9ybT0idHJhbnNsYXRlKDEzMy45NTIxLDM5Ljc4NDIpIj48cGF0aCBkPSJtIDAsMCBoIDAuNjcgdiAtMC42NyBoIDAuMDE4IGMgMC4yMDIsMC4zMTYgMC43MTgsMC44MDQgMS42MDgsMC44MDQgMC42NDEsMCAxLjE3NywtMC4xNjIgMS42NTUsLTAuNjQxIDAuMzkzLC0wLjM4MyAwLjY1MSwtMC45ODUgMC42NTEsLTEuODQ3IHYgLTIuODc5IGggLTAuNjcgdiAyLjg3OSBjIDAsMC42NzkgLTAuMjEsMS4xNTggLTAuNDk3LDEuNDM1IC0wLjM2NCwwLjM1NSAtMC44NDIsMC40NSAtMS4xMzksMC40NSAtMC4yOTcsMCAtMC43NzUsLTAuMDk1IC0xLjEzOSwtMC40NSBDIDAuODcsLTEuMTk2IDAuNjYsLTEuNjc1IDAuNjcsLTIuMzU0IFYgLTUuMjMzIEggMCBaIiBzdHlsZT0iZmlsbDojMTAwZjBkO2ZpbGwtb3BhY2l0eToxO2ZpbGwtcnVsZTpub256ZXJvO3N0cm9rZTpub25lIiBpZD0icGF0aDY3NiIvPjwvZz48ZyBpZD0iZzY3OCIgdHJhbnNmb3JtPSJ0cmFuc2xhdGUoMTQyLjM4MTgsMzUuMDI5MykiPjxwYXRoIGQ9Ik0gMCwwIEMgMS4xMjksMCAyLjA5NSwwLjkwOSAyLjA5NSwyLjEzNCAyLjA5NSwzLjI4MSAxLjIwNSw0LjI4NiAwLDQuMjg2IC0xLjE0OCw0LjI4NiAtMi4xNDQsMy40NTQgLTIuMTQ0LDIuMTI0IC0yLjE0NCwwLjk1NyAtMS4yODIsMCAwLDAgTSAyLjcyNywtMC40NzkgSCAyLjA1NyBWIDAuNDM5IEggMi4wMzcgQyAxLjQ2NCwtMC40MjEgMC41NDUsLTAuNjAzIDAsLTAuNjAzIGMgLTEuNjQ2LDAgLTIuODEzLDEuMjUzIC0yLjgxMywyLjc1NSAwLDEuMzk3IDEuMSwyLjczNyAyLjgxMywyLjczNyAwLjU2NCwwIDEuNDgyLC0wLjE4MiAyLjAzNywtMS4wNTMgaCAwLjAyIHYgMC45MTkgaCAwLjY3IHoiIHN0eWxlPSJmaWxsOiMxMDBmMGQ7ZmlsbC1vcGFjaXR5OjE7ZmlsbC1ydWxlOm5vbnplcm87c3Ryb2tlOm5vbmUiIGlkPSJwYXRoNjgwIi8+PC9nPjxwYXRoIGQ9Im0gMTQ2LjMyNiw0MS42MzEgaCAwLjY3IHYgLTcuMDggaCAtMC42NyB6IiBzdHlsZT0iZmlsbDojMTAwZjBkO2ZpbGwtb3BhY2l0eToxO2ZpbGwtcnVsZTpub256ZXJvO3N0cm9rZTpub25lIiBpZD0icGF0aDY4MiIvPjxnIGlkPSJnNjg0IiB0cmFuc2Zvcm09InRyYW5zbGF0ZSgxNTcuNjQ0NSwzNi40MDcyKSI+PHBhdGggZD0ibSAwLDAgYyAtMC43NTYsLTEuMzg4IC0yLjEyNCwtMS45OCAtMy4yNjIsLTEuOTggLTEuOTgsMCAtMy43MDMsMS41NTkgLTMuNzAzLDMuNjU0IDAsMi4wOTYgMS42NzUsMy42NjQgMy42OTQsMy42NjQgMS44MTcsMCAyLjk2NSwtMS4yNzMgMy4yNDMsLTEuOTMzIGggLTAuNzk0IGMgLTAuNzc2LDEuMTU4IC0yLjAyOSwxLjI5MiAtMi40NTksMS4yOTIgLTEuNjU2LDAgLTIuOTc2LC0xLjQ1NCAtMi45NzYsLTMuMDMzIDAsLTEuNjU1IDEuNDU0LC0zLjAwNCAyLjk4NiwtMy4wMDQgMC4zNTMsMCAxLjUxMSwwLjA0OCAyLjQ3NywxLjM0IHoiIHN0eWxlPSJmaWxsOiMxMDBmMGQ7ZmlsbC1vcGFjaXR5OjE7ZmlsbC1ydWxlOm5vbnplcm87c3Ryb2tlOm5vbmUiIGlkPSJwYXRoNjg2Ii8+PC9nPjxnIGlkPSJnNjg4IiB0cmFuc2Zvcm09InRyYW5zbGF0ZSgxNjEuMTg3NSwzNS4wMjkzKSI+PHBhdGggZD0iTSAwLDAgQyAxLjAxNSwwIDIuMDY2LDAuODA0IDIuMDY2LDIuMTcyIDIuMDY2LDMuNTQ5IDAuODk5LDQuMjg2IDAsNC4yODYgLTAuOTU2LDQuMjg2IC0yLjA2NiwzLjUwMiAtMi4wNjYsMi4xMTQgLTIuMDY2LDAuODk5IC0xLjA4MSwwIDAsMCBtIC0wLjAwOSw0Ljg4OSBjIDEuNTUsMCAyLjc0NSwtMS4zMTEgMi43NDUsLTIuNzQ2IDAsLTEuNDI1IC0xLjE3NiwtMi43NDYgLTIuNzQ1LC0yLjc0NiAtMS41MzEsMCAtMi43MjcsMS4yOTEgLTIuNzI3LDIuNzA3IDAsMS42NTYgMS4zNDksMi43ODUgMi43MjcsMi43ODUiIHN0eWxlPSJmaWxsOiMxMDBmMGQ7ZmlsbC1vcGFjaXR5OjE7ZmlsbC1ydWxlOm5vbnplcm87c3Ryb2tlOm5vbmUiIGlkPSJwYXRoNjkwIi8+PC9nPjxnIGlkPSJnNjkyIiB0cmFuc2Zvcm09InRyYW5zbGF0ZSgxNjQuOTQwNCwzOS43ODQyKSI+PHBhdGggZD0ibSAwLDAgaCAwLjY3IHYgLTAuNjcgaCAwLjAxOCBjIDAuMjAyLDAuMzE2IDAuNzE4LDAuODA0IDEuNjA4LDAuODA0IDAuNjQxLDAgMS4xNzcsLTAuMTYyIDEuNjU1LC0wLjY0MSAwLjM5MywtMC4zODMgMC42NTEsLTAuOTg1IDAuNjUxLC0xLjg0NyB2IC0yLjg3OSBoIC0wLjY3IHYgMi44NzkgYyAwLDAuNjc5IC0wLjIxLDEuMTU4IC0wLjQ5NywxLjQzNSAtMC4zNjQsMC4zNTUgLTAuODQyLDAuNDUgLTEuMTM5LDAuNDUgLTAuMjk3LDAgLTAuNzc1LC0wLjA5NSAtMS4xMzksLTAuNDUgQyAwLjg3LC0xLjE5NiAwLjY2LC0xLjY3NSAwLjY3LC0yLjM1NCBWIC01LjIzMyBIIDAgWiIgc3R5bGU9ImZpbGw6IzEwMGYwZDtmaWxsLW9wYWNpdHk6MTtmaWxsLXJ1bGU6bm9uemVybztzdHJva2U6bm9uZSIgaWQ9InBhdGg2OTQiLz48L2c+PGcgaWQ9Imc2OTYiIHRyYW5zZm9ybT0idHJhbnNsYXRlKDE3MS4xNTE0LDM5LjE4MTYpIj48cGF0aCBkPSJNIDAsMCBIIC0wLjgxMyBWIDAuNjAzIEggMCBjIDAuMDE5LDAuNzI2IDAuMDc2LDEuOTUxIDIuMDA5LDEuOTcgViAxLjk1MSBDIDAuNjUsMS45NTEgMC42NywxLjA5MSAwLjY3LDAuNjAzIEggMi4wMDkgViAwIEggMC42NyBWIC00LjYzMSBIIDAgWiIgc3R5bGU9ImZpbGw6IzEwMGYwZDtmaWxsLW9wYWNpdHk6MTtmaWxsLXJ1bGU6bm9uemVybztzdHJva2U6bm9uZSIgaWQ9InBhdGg2OTgiLz48L2c+PGcgaWQ9Imc3MDAiIHRyYW5zZm9ybT0idHJhbnNsYXRlKDE3OC4yOTg4LDM3LjUyNjQpIj48cGF0aCBkPSJNIDAsMCBDIC0wLjIxMSwxLjIzNCAtMS4yMTUsMS43ODkgLTIuMDQ4LDEuNzg5IC0yLjg3LDEuNzg5IC0zLjg5NCwxLjIzNCAtNC4wODUsMCBaIG0gLTQuMDg1LC0wLjYwMyBjIDAuMDQ4LC0xLjAyNCAxLjAwNCwtMS44OTQgMi4wMjgsLTEuODk0IDAuOTU2LDAuMDE4IDEuNjM2LDAuNTgzIDEuODc1LDEuMjM0IEggMC41MjYgQyAwLjE2MiwtMi4zMDYgLTAuODQyLC0zLjEgLTIuMDQ4LC0zLjEgYyAtMS40NjQsMCAtMi43MjYsMS4xODYgLTIuNzI2LDIuNzM3IDAsMS40ODIgMS4xOTYsMi43MjYgMi43MTcsMi43NTUgMS4xNDgsLTAuMDEgMS45NjEsLTAuNjg5IDIuMzM0LC0xLjM0IDAuMzU1LC0wLjU2NSAwLjQzMSwtMS4xNDggMC40MDMsLTEuNjU1IHoiIHN0eWxlPSJmaWxsOiMxMDBmMGQ7ZmlsbC1vcGFjaXR5OjE7ZmlsbC1ydWxlOm5vbnplcm87c3Ryb2tlOm5vbmUiIGlkPSJwYXRoNzAyIi8+PC9nPjxnIGlkPSJnNzA0IiB0cmFuc2Zvcm09InRyYW5zbGF0ZSgxODAuMDAzOSwzOS43ODQyKSI+PHBhdGggZD0ibSAwLDAgaCAwLjY3IHYgLTAuNzU2IGggMC4wMTggYyAwLjMxNiwwLjczNiAwLjkxLDAuODUyIDEuNDc0LDAuODkgViAtMC41NzQgQyAxLjY5MywtMC42MTIgMS4yOTEsLTAuNzg0IDEuMDMzLC0xLjA5MSAwLjgwNCwtMS4zNzggMC42NywtMS43NTEgMC42NywtMi4xNzIgViAtNS4yMzMgSCAwIFoiIHN0eWxlPSJmaWxsOiMxMDBmMGQ7ZmlsbC1vcGFjaXR5OjE7ZmlsbC1ydWxlOm5vbnplcm87c3Ryb2tlOm5vbmUiIGlkPSJwYXRoNzA2Ii8+PC9nPjxnIGlkPSJnNzA4IiB0cmFuc2Zvcm09InRyYW5zbGF0ZSgxODcuMzYxMywzNy41MjY0KSI+PHBhdGggZD0iTSAwLDAgQyAtMC4yMTEsMS4yMzQgLTEuMjE1LDEuNzg5IC0yLjA0OCwxLjc4OSAtMi44NywxLjc4OSAtMy44OTQsMS4yMzQgLTQuMDg1LDAgWiBtIC00LjA4NSwtMC42MDMgYyAwLjA0OCwtMS4wMjQgMS4wMDQsLTEuODk0IDIuMDI4LC0xLjg5NCAwLjk1NiwwLjAxOCAxLjYzNiwwLjU4MyAxLjg3NSwxLjIzNCBIIDAuNTI2IEMgMC4xNjIsLTIuMzA2IC0wLjg0MiwtMy4xIC0yLjA0OCwtMy4xIGMgLTEuNDY0LDAgLTIuNzI2LDEuMTg2IC0yLjcyNiwyLjczNyAwLDEuNDgyIDEuMTk2LDIuNzI2IDIuNzE3LDIuNzU1IDEuMTQ4LC0wLjAxIDEuOTYxLC0wLjY4OSAyLjMzNCwtMS4zNCAwLjM1NSwtMC41NjUgMC40MzEsLTEuMTQ4IDAuNDAzLC0xLjY1NSB6IiBzdHlsZT0iZmlsbDojMTAwZjBkO2ZpbGwtb3BhY2l0eToxO2ZpbGwtcnVsZTpub256ZXJvO3N0cm9rZTpub25lIiBpZD0icGF0aDcxMCIvPjwvZz48ZyBpZD0iZzcxMiIgdHJhbnNmb3JtPSJ0cmFuc2xhdGUoMTg5LjA2NjQsMzkuNzg0MikiPjxwYXRoIGQ9Im0gMCwwIGggMC42NyB2IC0wLjY3IGggMC4wMTggYyAwLjIwMiwwLjMxNiAwLjcxOCwwLjgwNCAxLjYwOCwwLjgwNCAwLjY0MSwwIDEuMTc3LC0wLjE2MiAxLjY1NSwtMC42NDEgMC4zOTMsLTAuMzgzIDAuNjUxLC0wLjk4NSAwLjY1MSwtMS44NDcgdiAtMi44NzkgaCAtMC42NyB2IDIuODc5IGMgMCwwLjY3OSAtMC4yMSwxLjE1OCAtMC40OTcsMS40MzUgLTAuMzY0LDAuMzU1IC0wLjg0MiwwLjQ1IC0xLjEzOSwwLjQ1IC0wLjI5NywwIC0wLjc3NSwtMC4wOTUgLTEuMTM5LC0wLjQ1IEMgMC44NywtMS4xOTYgMC42NiwtMS42NzUgMC42NywtMi4zNTQgViAtNS4yMzMgSCAwIFoiIHN0eWxlPSJmaWxsOiMxMDBmMGQ7ZmlsbC1vcGFjaXR5OjE7ZmlsbC1ydWxlOm5vbnplcm87c3Ryb2tlOm5vbmUiIGlkPSJwYXRoNzE0Ii8+PC9nPjxnIGlkPSJnNzE2IiB0cmFuc2Zvcm09InRyYW5zbGF0ZSgyMDAuMDg5OCwzNi4wOTA4KSI+PHBhdGggZD0ibSAwLDAgYyAtMC4zMzUsLTAuNjUgLTEuMDMzLC0xLjY2NCAtMi42MDMsLTEuNjY0IC0xLjYzNSwwIC0yLjgxMiwxLjI3MiAtMi44MTIsMi43MzYgMCwxLjUxMSAxLjI1MywyLjc1NSAyLjgxMiwyLjc1NSAwLjkxOCwwIDIuMDk1LC0wLjQ1OSAyLjYwMywtMS43MTMgaCAtMC43MzcgYyAtMC40MjEsMC43OTUgLTEuMTg2LDEuMTExIC0xLjg0NiwxLjExMSAtMS4wMjQsMCAtMi4xNjMsLTAuNzY2IC0yLjE2MywtMi4xMzQgMCwtMS4xNzcgMC45MDksLTIuMTUzIDIuMTYzLC0yLjE1MyAxLjA5LDAgMS42MzYsMC42NjEgMS44NDYsMS4wNjIgeiIgc3R5bGU9ImZpbGw6IzEwMGYwZDtmaWxsLW9wYWNpdHk6MTtmaWxsLXJ1bGU6bm9uemVybztzdHJva2U6bm9uZSIgaWQ9InBhdGg3MTgiLz48L2c+PGcgaWQ9Imc3MjAiIHRyYW5zZm9ybT0idHJhbnNsYXRlKDIwNS42MTIzLDM3LjUyNjQpIj48cGF0aCBkPSJNIDAsMCBDIC0wLjIxMSwxLjIzNCAtMS4yMTUsMS43ODkgLTIuMDQ4LDEuNzg5IC0yLjg3LDEuNzg5IC0zLjg5NCwxLjIzNCAtNC4wODUsMCBaIG0gLTQuMDg1LC0wLjYwMyBjIDAuMDQ4LC0xLjAyNCAxLjAwNCwtMS44OTQgMi4wMjgsLTEuODk0IDAuOTU2LDAuMDE4IDEuNjM2LDAuNTgzIDEuODc1LDEuMjM0IEggMC41MjYgQyAwLjE2MiwtMi4zMDYgLTAuODQyLC0zLjEgLTIuMDQ4LC0zLjEgYyAtMS40NjQsMCAtMi43MjYsMS4xODYgLTIuNzI2LDIuNzM3IDAsMS40ODIgMS4xOTYsMi43MjYgMi43MTcsMi43NTUgMS4xNDgsLTAuMDEgMS45NjEsLTAuNjg5IDIuMzM0LC0xLjM0IDAuMzU1LC0wLjU2NSAwLjQzMSwtMS4xNDggMC40MDIsLTEuNjU1IHoiIHN0eWxlPSJmaWxsOiMxMDBmMGQ7ZmlsbC1vcGFjaXR5OjE7ZmlsbC1ydWxlOm5vbnplcm87c3Ryb2tlOm5vbmUiIGlkPSJwYXRoNzIyIi8+PC9nPjxnIGlkPSJnNzI0IiB0cmFuc2Zvcm09InRyYW5zbGF0ZSg5My4xMzM4LDIzLjU4MykiPjxwYXRoIGQ9Ik0gMCwwIEMgMS42MzYsMCAzLjA0MiwxLjMzIDMuMDQyLDMuMDE0IDMuMDQyLDQuNjY5IDEuNjc0LDYuMDQ3IDAsNi4wNDcgLTEuNTk4LDYuMDQ3IC0zLjAzMyw0Ljc0NSAtMy4wMzMsMi45ODUgLTMuMDMzLDEuMzY4IC0xLjY0NiwwIDAsMCBtIDAsNi42ODggYyAxLjk5LDAgMy43NSwtMS41NzkgMy43NSwtMy42NjUgMCwtMi4wODUgLTEuNzcsLTMuNjY0IC0zLjc1LC0zLjY2NCAtMi4wMDksMCAtMy43NDEsMS42MzYgLTMuNzQxLDMuNjI2IDAsMi4yMjkgMS44NTYsMy43MDMgMy43NDEsMy43MDMiIHN0eWxlPSJmaWxsOiMxMDBmMGQ7ZmlsbC1vcGFjaXR5OjE7ZmlsbC1ydWxlOm5vbnplcm87c3Ryb2tlOm5vbmUiIGlkPSJwYXRoNzI2Ii8+PC9nPjxnIGlkPSJnNzI4IiB0cmFuc2Zvcm09InRyYW5zbGF0ZSg5Ny45MTk5LDI4LjI5OTgpIj48cGF0aCBkPSJtIDAsMCBoIDAuNjcgdiAtMC42NyBoIDAuMDE4IGMgMC4yMDIsMC4zMTYgMC43MTgsMC44MDQgMS42MDgsMC44MDQgMC42NDEsMCAxLjE3NywtMC4xNjIgMS42NTUsLTAuNjQxIDAuMzkzLC0wLjM4MyAwLjY1MSwtMC45ODUgMC42NTEsLTEuODQ3IHYgLTIuODc5IGggLTAuNjcgdiAyLjg3OSBjIDAsMC42NzkgLTAuMjEsMS4xNTggLTAuNDk3LDEuNDM1IC0wLjM2NCwwLjM1NSAtMC44NDIsMC40NSAtMS4xMzksMC40NSAtMC4yOTcsMCAtMC43NzUsLTAuMDk1IC0xLjEzOSwtMC40NSBDIDAuODcsLTEuMTk2IDAuNjYsLTEuNjc1IDAuNjcsLTIuMzU0IFYgLTUuMjMzIEggMCBaIiBzdHlsZT0iZmlsbDojMTAwZjBkO2ZpbGwtb3BhY2l0eToxO2ZpbGwtcnVsZTpub256ZXJvO3N0cm9rZTpub25lIiBpZD0icGF0aDczMCIvPjwvZz48ZyBpZD0iZzczMiIgdHJhbnNmb3JtPSJ0cmFuc2xhdGUoMTA2LjUxNDYsMzAuMTQ2NSkiPjxwYXRoIGQ9Ik0gMCwwIEggMS4wOSBMIDMuNjY0LC02LjAyNyA2LjI0NywwIEggNy4zMzggViAtNy4wOCBIIDYuNjMgdiA2LjMwNSBIIDYuNjEgTCAzLjk2LC03LjA4IEggMy4zNTcgbCAtMi42Myw2LjMwNSBIIDAuNzA4IFYgLTcuMDggSCAwIFoiIHN0eWxlPSJmaWxsOiMxMDBmMGQ7ZmlsbC1vcGFjaXR5OjE7ZmlsbC1ydWxlOm5vbnplcm87c3Ryb2tlOm5vbmUiIGlkPSJwYXRoNzM0Ii8+PC9nPjxnIGlkPSJnNzM2IiB0cmFuc2Zvcm09InRyYW5zbGF0ZSgxMTcuNzk2OSwyMy41NDQ5KSI+PHBhdGggZD0iTSAwLDAgQyAxLjEyOSwwIDIuMDk1LDAuOTA5IDIuMDk1LDIuMTM0IDIuMDk1LDMuMjgxIDEuMjA1LDQuMjg2IDAsNC4yODYgLTEuMTQ4LDQuMjg2IC0yLjE0NCwzLjQ1NCAtMi4xNDQsMi4xMjQgLTIuMTQ0LDAuOTU3IC0xLjI4MiwwIDAsMCBNIDIuNzI3LC0wLjQ3OSBIIDIuMDU3IFYgMC40MzkgSCAyLjAzNyBDIDEuNDY0LC0wLjQyMSAwLjU0NSwtMC42MDMgMCwtMC42MDMgYyAtMS42NDYsMCAtMi44MTMsMS4yNTMgLTIuODEzLDIuNzU1IDAsMS4zOTcgMS4xLDIuNzM3IDIuODEzLDIuNzM3IDAuNTY0LDAgMS40ODIsLTAuMTgyIDIuMDM3LC0xLjA1MyBoIDAuMDIgdiAwLjkxOSBoIDAuNjcgeiIgc3R5bGU9ImZpbGw6IzEwMGYwZDtmaWxsLW9wYWNpdHk6MTtmaWxsLXJ1bGU6bm9uemVybztzdHJva2U6bm9uZSIgaWQ9InBhdGg3MzgiLz48L2c+PGcgaWQ9Imc3NDAiIHRyYW5zZm9ybT0idHJhbnNsYXRlKDEyNi45MjU4LDI0LjYwNjQpIj48cGF0aCBkPSJtIDAsMCBjIC0wLjMzNSwtMC42NSAtMS4wMzMsLTEuNjY0IC0yLjYwMywtMS42NjQgLTEuNjM1LDAgLTIuODEyLDEuMjcyIC0yLjgxMiwyLjczNiAwLDEuNTExIDEuMjUzLDIuNzU1IDIuODEyLDIuNzU1IDAuOTE4LDAgMi4wOTUsLTAuNDU5IDIuNjAzLC0xLjcxMyBoIC0wLjczNyBjIC0wLjQyMSwwLjc5NSAtMS4xODYsMS4xMTEgLTEuODQ2LDEuMTExIC0xLjAyNCwwIC0yLjE2MywtMC43NjYgLTIuMTYzLC0yLjEzNCAwLC0xLjE3NyAwLjkwOSwtMi4xNTMgMi4xNjMsLTIuMTUzIDEuMDksMCAxLjYzNiwwLjY2MSAxLjg0NiwxLjA2MiB6IiBzdHlsZT0iZmlsbDojMTAwZjBkO2ZpbGwtb3BhY2l0eToxO2ZpbGwtcnVsZTpub256ZXJvO3N0cm9rZTpub25lIiBpZD0icGF0aDc0MiIvPjwvZz48ZyBpZD0iZzc0NCIgdHJhbnNmb3JtPSJ0cmFuc2xhdGUoMTI3LjkwMzMsMzAuMTQ2NSkiPjxwYXRoIGQ9Im0gMCwwIGggMC42NyB2IC0yLjUxNyBoIDAuMDE5IGMgMC4yMDIsMC4zMTYgMC43MTgsMC44MDQgMS42MDgsMC44MDQgMC42NDEsMCAxLjE3NywtMC4xNjIgMS42NTUsLTAuNjQxIDAuMzkyLC0wLjM4MiAwLjY1MSwtMC45ODUgMC42NTEsLTEuODQ2IHYgLTIuODggaCAtMC42NyB2IDIuODggYyAwLDAuNjc5IC0wLjIxMSwxLjE1NyAtMC40OTgsMS40MzQgQyAzLjA3MSwtMi40MTEgMi41OTMsLTIuMzE1IDIuMjk3LC0yLjMxNSAyLC0yLjMxNSAxLjUyMSwtMi40MTEgMS4xNTgsLTIuNzY2IDAuODcxLC0zLjA0MyAwLjY2LC0zLjUyMSAwLjY3LC00LjIgViAtNy4wOCBIIDAgWiIgc3R5bGU9ImZpbGw6IzEwMGYwZDtmaWxsLW9wYWNpdHk6MTtmaWxsLXJ1bGU6bm9uemVybztzdHJva2U6bm9uZSIgaWQ9InBhdGg3NDYiLz48L2c+PHBhdGggZD0ibSAxMzMuNzcsMjguMyBoIDAuNjcgdiAtNS4yMzMgaCAtMC42NyB6IG0gMCwxLjg0NiBoIDAuNjcgViAyOC45NCBoIC0wLjY3IHoiIHN0eWxlPSJmaWxsOiMxMDBmMGQ7ZmlsbC1vcGFjaXR5OjE7ZmlsbC1ydWxlOm5vbnplcm87c3Ryb2tlOm5vbmUiIGlkPSJwYXRoNzQ4Ii8+PGcgaWQ9Imc3NTAiIHRyYW5zZm9ybT0idHJhbnNsYXRlKDEzNS42ODM2LDI4LjI5OTgpIj48cGF0aCBkPSJtIDAsMCBoIDAuNjcgdiAtMC42NyBoIDAuMDE4IGMgMC4yMDIsMC4zMTYgMC43MTgsMC44MDQgMS42MDgsMC44MDQgMC42NDEsMCAxLjE3NywtMC4xNjIgMS42NTUsLTAuNjQxIDAuMzkzLC0wLjM4MyAwLjY1MSwtMC45ODUgMC42NTEsLTEuODQ3IHYgLTIuODc5IGggLTAuNjcgdiAyLjg3OSBjIDAsMC42NzkgLTAuMjEsMS4xNTggLTAuNDk3LDEuNDM1IC0wLjM2NCwwLjM1NSAtMC44NDIsMC40NSAtMS4xMzksMC40NSAtMC4yOTcsMCAtMC43NzUsLTAuMDk1IC0xLjEzOSwtMC40NSBDIDAuODcsLTEuMTk2IDAuNjYsLTEuNjc1IDAuNjcsLTIuMzU0IFYgLTUuMjMzIEggMCBaIiBzdHlsZT0iZmlsbDojMTAwZjBkO2ZpbGwtb3BhY2l0eToxO2ZpbGwtcnVsZTpub256ZXJvO3N0cm9rZTpub25lIiBpZD0icGF0aDc1MiIvPjwvZz48ZyBpZD0iZzc1NCIgdHJhbnNmb3JtPSJ0cmFuc2xhdGUoMTQ2LjAzNzEsMjYuMDQyKSI+PHBhdGggZD0iTSAwLDAgQyAtMC4yMTEsMS4yMzQgLTEuMjE1LDEuNzg5IC0yLjA0OCwxLjc4OSAtMi44NywxLjc4OSAtMy44OTQsMS4yMzQgLTQuMDg1LDAgWiBtIC00LjA4NSwtMC42MDMgYyAwLjA0OCwtMS4wMjQgMS4wMDQsLTEuODk0IDIuMDI4LC0xLjg5NCAwLjk1NiwwLjAxOCAxLjYzNiwwLjU4MyAxLjg3NSwxLjIzNCBIIDAuNTI2IEMgMC4xNjIsLTIuMzA2IC0wLjg0MiwtMy4xIC0yLjA0OCwtMy4xIGMgLTEuNDY0LDAgLTIuNzI2LDEuMTg2IC0yLjcyNiwyLjczNyAwLDEuNDgyIDEuMTk2LDIuNzI2IDIuNzE3LDIuNzU1IDEuMTQ4LC0wLjAxIDEuOTYxLC0wLjY4OSAyLjMzNCwtMS4zNCAwLjM1NSwtMC41NjUgMC40MzEsLTEuMTQ4IDAuNDAzLC0xLjY1NSB6IiBzdHlsZT0iZmlsbDojMTAwZjBkO2ZpbGwtb3BhY2l0eToxO2ZpbGwtcnVsZTpub256ZXJvO3N0cm9rZTpub25lIiBpZD0icGF0aDc1NiIvPjwvZz48ZyBpZD0iZzc1OCIgdHJhbnNmb3JtPSJ0cmFuc2xhdGUoMTUwLjU1NTcsMzAuMTQ2NSkiPjxwYXRoIGQ9Ik0gMCwwIEggMC43MDggViAtNi40MzkgSCAzLjYzNiBWIC03LjA4IEggMCBaIiBzdHlsZT0iZmlsbDojMTAwZjBkO2ZpbGwtb3BhY2l0eToxO2ZpbGwtcnVsZTpub256ZXJvO3N0cm9rZTpub25lIiBpZD0icGF0aDc2MCIvPjwvZz48ZyBpZD0iZzc2MiIgdHJhbnNmb3JtPSJ0cmFuc2xhdGUoMTU5LjMzMDEsMjYuMDQyKSI+PHBhdGggZD0iTSAwLDAgQyAtMC4yMTEsMS4yMzQgLTEuMjE1LDEuNzg5IC0yLjA0OCwxLjc4OSAtMi44NywxLjc4OSAtMy44OTQsMS4yMzQgLTQuMDg1LDAgWiBtIC00LjA4NSwtMC42MDMgYyAwLjA0OCwtMS4wMjQgMS4wMDQsLTEuODk0IDIuMDI4LC0xLjg5NCAwLjk1NiwwLjAxOCAxLjYzNiwwLjU4MyAxLjg3NSwxLjIzNCBIIDAuNTI2IEMgMC4xNjIsLTIuMzA2IC0wLjg0MiwtMy4xIC0yLjA0OCwtMy4xIGMgLTEuNDY0LDAgLTIuNzI2LDEuMTg2IC0yLjcyNiwyLjczNyAwLDEuNDgyIDEuMTk2LDIuNzI2IDIuNzE3LDIuNzU1IDEuMTQ4LC0wLjAxIDEuOTYxLC0wLjY4OSAyLjMzNCwtMS4zNCAwLjM1NSwtMC41NjUgMC40MzEsLTEuMTQ4IDAuNDAzLC0xLjY1NSB6IiBzdHlsZT0iZmlsbDojMTAwZjBkO2ZpbGwtb3BhY2l0eToxO2ZpbGwtcnVsZTpub256ZXJvO3N0cm9rZTpub25lIiBpZD0icGF0aDc2NCIvPjwvZz48ZyBpZD0iZzc2NiIgdHJhbnNmb3JtPSJ0cmFuc2xhdGUoMTYzLjYyNzksMjMuNTQ0OSkiPjxwYXRoIGQ9Ik0gMCwwIEMgMS4xMjksMCAyLjA5NSwwLjkwOSAyLjA5NSwyLjEzNCAyLjA5NSwzLjI4MSAxLjIwNSw0LjI4NiAwLDQuMjg2IC0xLjE0OCw0LjI4NiAtMi4xNDQsMy40NTQgLTIuMTQ0LDIuMTI0IC0yLjE0NCwwLjk1NyAtMS4yODIsMCAwLDAgTSAyLjcyNywtMC40NzkgSCAyLjA1NyBWIDAuNDM5IEggMi4wMzcgQyAxLjQ2NCwtMC40MjEgMC41NDUsLTAuNjAzIDAsLTAuNjAzIGMgLTEuNjQ2LDAgLTIuODEzLDEuMjUzIC0yLjgxMywyLjc1NSAwLDEuMzk3IDEuMSwyLjczNyAyLjgxMywyLjczNyAwLjU2NCwwIDEuNDgyLC0wLjE4MiAyLjAzNywtMS4wNTMgaCAwLjAyIHYgMC45MTkgaCAwLjY3IHoiIHN0eWxlPSJmaWxsOiMxMDBmMGQ7ZmlsbC1vcGFjaXR5OjE7ZmlsbC1ydWxlOm5vbnplcm87c3Ryb2tlOm5vbmUiIGlkPSJwYXRoNzY4Ii8+PC9nPjxnIGlkPSJnNzcwIiB0cmFuc2Zvcm09InRyYW5zbGF0ZSgxNjcuNTcyMywyOC4yOTk4KSI+PHBhdGggZD0ibSAwLDAgaCAwLjY3IHYgLTAuNzU2IGggMC4wMTggYyAwLjMxNiwwLjczNiAwLjkxLDAuODUyIDEuNDc0LDAuODkgViAtMC41NzQgQyAxLjY5MywtMC42MTIgMS4yOTEsLTAuNzg0IDEuMDMzLC0xLjA5MSAwLjgwNCwtMS4zNzggMC42NywtMS43NTEgMC42NywtMi4xNzIgViAtNS4yMzMgSCAwIFoiIHN0eWxlPSJmaWxsOiMxMDBmMGQ7ZmlsbC1vcGFjaXR5OjE7ZmlsbC1ydWxlOm5vbnplcm87c3Ryb2tlOm5vbmUiIGlkPSJwYXRoNzcyIi8+PC9nPjxnIGlkPSJnNzc0IiB0cmFuc2Zvcm09InRyYW5zbGF0ZSgxNzAuNjUzMywyOC4yOTk4KSI+PHBhdGggZD0ibSAwLDAgaCAwLjY3IHYgLTAuNjcgaCAwLjAxOCBjIDAuMjAyLDAuMzE2IDAuNzE4LDAuODA0IDEuNjA4LDAuODA0IDAuNjQxLDAgMS4xNzcsLTAuMTYyIDEuNjU1LC0wLjY0MSAwLjM5MywtMC4zODMgMC42NTEsLTAuOTg1IDAuNjUxLC0xLjg0NyB2IC0yLjg3OSBoIC0wLjY3IHYgMi44NzkgYyAwLDAuNjc5IC0wLjIxLDEuMTU4IC0wLjQ5NywxLjQzNSAtMC4zNjQsMC4zNTUgLTAuODQyLDAuNDUgLTEuMTM5LDAuNDUgLTAuMjk3LDAgLTAuNzc1LC0wLjA5NSAtMS4xMzksLTAuNDUgQyAwLjg3LC0xLjE5NiAwLjY2LC0xLjY3NSAwLjY3LC0yLjM1NCBWIC01LjIzMyBIIDAgWiIgc3R5bGU9ImZpbGw6IzEwMGYwZDtmaWxsLW9wYWNpdHk6MTtmaWxsLXJ1bGU6bm9uemVybztzdHJva2U6bm9uZSIgaWQ9InBhdGg3NzYiLz48L2c+PHBhdGggZD0ibSAxNzYuNDkxLDI4LjMgaCAwLjY3IHYgLTUuMjMzIGggLTAuNjcgeiBtIDAsMS44NDYgaCAwLjY3IFYgMjguOTQgaCAtMC42NyB6IiBzdHlsZT0iZmlsbDojMTAwZjBkO2ZpbGwtb3BhY2l0eToxO2ZpbGwtcnVsZTpub256ZXJvO3N0cm9rZTpub25lIiBpZD0icGF0aDc3OCIvPjxnIGlkPSJnNzgwIiB0cmFuc2Zvcm09InRyYW5zbGF0ZSgxNzguNDA1MywyOC4yOTk4KSI+PHBhdGggZD0ibSAwLDAgaCAwLjY3IHYgLTAuNjcgaCAwLjAxOCBjIDAuMjAyLDAuMzE2IDAuNzE4LDAuODA0IDEuNjA4LDAuODA0IDAuNjQxLDAgMS4xNzcsLTAuMTYyIDEuNjU1LC0wLjY0MSAwLjM5MywtMC4zODMgMC42NTEsLTAuOTg1IDAuNjUxLC0xLjg0NyB2IC0yLjg3OSBoIC0wLjY3IHYgMi44NzkgYyAwLDAuNjc5IC0wLjIxLDEuMTU4IC0wLjQ5NywxLjQzNSAtMC4zNjQsMC4zNTUgLTAuODQyLDAuNDUgLTEuMTM5LDAuNDUgLTAuMjk3LDAgLTAuNzc1LC0wLjA5NSAtMS4xMzksLTAuNDUgQyAwLjg3LC0xLjE5NiAwLjY2LC0xLjY3NSAwLjY3LC0yLjM1NCBWIC01LjIzMyBIIDAgWiIgc3R5bGU9ImZpbGw6IzEwMGYwZDtmaWxsLW9wYWNpdHk6MTtmaWxsLXJ1bGU6bm9uemVybztzdHJva2U6bm9uZSIgaWQ9InBhdGg3ODIiLz48L2c+PGcgaWQ9Imc3ODQiIHRyYW5zZm9ybT0idHJhbnNsYXRlKDE4Ni43MTA5LDIzLjU0NDkpIj48cGF0aCBkPSJNIDAsMCBDIDEuMzg4LDAgMi4wNzYsMS4yNDMgMi4wNzYsMi4xMzQgMi4wNzYsMy4yODEgMS4xNzcsNC4yODYgMCw0LjI4NiAtMS4xODYsNC4yODYgLTIuMDY2LDMuMjgxIC0yLjA2NiwyLjEzNCAtMi4wNjYsMC45OTUgLTEuMTg2LDAgMCwwIG0gMi43MDgsMC4zNDUgYyAwLC0wLjU2NSAwLC0xLjI3MyAtMC40NzksLTEuOTE0IC0wLjY2LC0wLjkxOCAtMS44NjUsLTAuOTY2IC0yLjA3NiwtMC45NjYgLTAuNzQ2LDAgLTIuMiwwLjI4NyAtMi42NzgsMS45MjMgaCAwLjcwOCBjIDAuMTcxLC0wLjQzMSAwLjY4OCwtMS4zMjEgMS45NjEsLTEuMzIxIDAuODgsMCAxLjg5NCwwLjUwNyAxLjg5NCwxLjk1MiB2IDAuNDYgSCAyLjAyIEMgMS42MjcsLTAuMjY4IDAuNzY2LC0wLjYwMyAwLC0wLjYwMyBjIC0xLjM3NywwIC0yLjczNiwxLjA3MiAtMi43MzYsMi43MTcgMCwxLjY2NSAxLjM1OSwyLjc3NSAyLjczNiwyLjc3NSAwLjQ3OSwwIDEuNDE2LC0wLjE0NCAyLjAyLC0xLjA3MiBoIDAuMDE4IHYgMC45MzggaCAwLjY3IHoiIHN0eWxlPSJmaWxsOiMxMDBmMGQ7ZmlsbC1vcGFjaXR5OjE7ZmlsbC1ydWxlOm5vbnplcm87c3Ryb2tlOm5vbmUiIGlkPSJwYXRoNzg2Ii8+PC9nPjxnIGlkPSJnNzg4IiB0cmFuc2Zvcm09InRyYW5zbGF0ZSg4OC45ODM0LDQ1LjcyMTcpIj48cGF0aCBkPSJNIDAsMCBIIDExOS4yMDciIHN0eWxlPSJmaWxsOm5vbmU7c3Ryb2tlOiMxMDBmMGQ7c3Ryb2tlLXdpZHRoOjE7c3Ryb2tlLWxpbmVjYXA6cm91bmQ7c3Ryb2tlLWxpbmVqb2luOm1pdGVyO3N0cm9rZS1taXRlcmxpbWl0OjEwO3N0cm9rZS1kYXNoYXJyYXk6bm9uZTtzdHJva2Utb3BhY2l0eToxIiBpZD0icGF0aDc5MCIvPjwvZz48ZyBpZD0iZzc5MiIgdHJhbnNmb3JtPSJ0cmFuc2xhdGUoMjUuMjI1Niw1Ny45NzI3KSI+PHBhdGggZD0ibSAwLDAgYyAwLC0wLjY4MiAtMC41NTMsLTEuMjM1IC0xLjIzNSwtMS4yMzUgaCAtOC40IGMgLTAuNjgyLDAgLTEuMjM2LDAuNTUzIC0xLjIzNiwxLjIzNSB2IDguNCBjIDAsMC42ODMgMC41NTQsMS4yMzYgMS4yMzYsMS4yMzYgaCA4LjQgQyAtMC41NTMsOS42MzYgMCw5LjA4MyAwLDguNCBaIiBzdHlsZT0iZmlsbDojOTRkMjIyO2ZpbGwtb3BhY2l0eToxO2ZpbGwtcnVsZTpub256ZXJvO3N0cm9rZTpub25lIiBpZD0icGF0aDc5NCIvPjwvZz48ZyBpZD0iZzc5NiIgdHJhbnNmb3JtPSJ0cmFuc2xhdGUoMzUuNjczOCw2OC44NDM4KSI+PHBhdGggZD0ibSAwLDAgYyAwLC0wLjY4MiAtMC41NTQsLTEuMjM1IC0xLjIzNSwtMS4yMzUgaCAtNy4xMSBjIC0wLjY4MiwwIC0xLjIzNiwwLjU1MyAtMS4yMzYsMS4yMzUgdiA3LjExIGMgMCwwLjY4MiAwLjU1NCwxLjIzNSAxLjIzNiwxLjIzNSBoIDcuMTEgQyAtMC41NTQsOC4zNDUgMCw3Ljc5MiAwLDcuMTEgWiIgc3R5bGU9ImZpbGw6IzJhNDE5ZTtmaWxsLW9wYWNpdHk6MTtmaWxsLXJ1bGU6bm9uemVybztzdHJva2U6bm9uZSIgaWQ9InBhdGg3OTgiLz48L2c+PGcgaWQ9Imc4MDAiIHRyYW5zZm9ybT0idHJhbnNsYXRlKDIzLjMxOTMsNzUuMDYzNSkiPjxwYXRoIGQ9Im0gMCwwIGMgMCwtMC42ODMgLTAuNTUzLC0xLjIzNSAtMS4yMzQsLTEuMjM1IGggLTQuOTI0IGMgLTAuNjgyLDAgLTEuMjM2LDAuNTUyIC0xLjIzNiwxLjIzNSB2IDQuOTIzIGMgMCwwLjY4MiAwLjU1NCwxLjIzNiAxLjIzNiwxLjIzNiBoIDQuOTI0IEMgLTAuNTUzLDYuMTU5IDAsNS42MDUgMCw0LjkyMyBaIiBzdHlsZT0iZmlsbDojZWQxZTI0O2ZpbGwtb3BhY2l0eToxO2ZpbGwtcnVsZTpub256ZXJvO3N0cm9rZTpub25lIiBpZD0icGF0aDgwMiIvPjwvZz48ZyBpZD0iZzgwNCIgdHJhbnNmb3JtPSJ0cmFuc2xhdGUoMTIuOTY4OCw2OS4xNDc5KSI+PHBhdGggZD0iTSAwLDAgQyAwLC0wLjY4MiAtMC41NTQsLTEuMjM1IC0xLjIzNiwtMS4yMzUgSCAtNC42OCBjIC0wLjY4MiwwIC0xLjIzNiwwLjU1MyAtMS4yMzYsMS4yMzUgdiAzLjQ0NCBjIDAsMC42ODMgMC41NTQsMS4yMzYgMS4yMzYsMS4yMzYgaCAzLjQ0NCBDIC0wLjU1NCw0LjY4IDAsNC4xMjcgMCwzLjQ0NCBaIiBzdHlsZT0iZmlsbDojZjc5MDExO2ZpbGwtb3BhY2l0eToxO2ZpbGwtcnVsZTpub256ZXJvO3N0cm9rZTpub25lIiBpZD0icGF0aDgwNiIvPjwvZz48ZyBpZD0iZzgwOCIgdHJhbnNmb3JtPSJ0cmFuc2xhdGUoNjAuMjAwMiw3Mi4zODI4KSI+PHBhdGggZD0ibSAwLDAgYyAwLC0wLjY4MiAtMC41NTQsLTEuMjM1IC0xLjIzNSwtMS4yMzUgaCAtMS40MTIgYyAtMC42ODIsMCAtMS4yMzYsMC41NTMgLTEuMjM2LDEuMjM1IHYgMS40MTIgYyAwLDAuNjgyIDAuNTU0LDEuMjM0IDEuMjM2LDEuMjM0IGggMS40MTIgQyAtMC41NTQsMi42NDYgMCwyLjA5NCAwLDEuNDEyIFogbSAtMS40NzksLTEwLjI2IGMgMCwtMC42ODIgLTAuNTUzLC0xLjIzNSAtMS4yMzYsLTEuMjM1IGggLTQuNTUzIGMgLTAuNjgyLDAgLTEuMjM2LDAuNTUzIC0xLjIzNiwxLjIzNSB2IDQuNTU0IGMgMCwwLjY4MyAwLjU1NCwxLjIzNiAxLjIzNiwxLjIzNiBoIDQuNTUzIGMgMC42ODMsMCAxLjIzNiwtMC41NTMgMS4yMzYsLTEuMjM2IHogbSAtOC41OTYsLTEwLjYyOSBjIDAsLTAuNjgxIC0wLjU1NCwtMS4yMzUgLTEuMjM2LC0xLjIzNSBoIC04LjE1OSBjIC0wLjY4MSwwIC0xLjIzNCwwLjU1NCAtMS4yMzQsMS4yMzUgdiA4LjE1OSBjIDAsMC42ODIgMC41NTMsMS4yMzUgMS4yMzQsMS4yMzUgaCA4LjE1OSBjIDAuNjgyLDAgMS4yMzYsLTAuNTUzIDEuMjM2LC0xLjIzNSB6IG0gLTIuMDMzLDI3Ljc1MyBjIDAsMC42ODMgMC41NTIsMS4yMzYgMS4yMzQsMS4yMzYgaCAyLjk4MyBjIDAuNjgyLDAgMS4yMzYsLTAuNTUzIDEuMjM2LC0xLjIzNiBWIDMuODgyIGMgMCwtMC42ODIgLTAuNTU0LC0xLjIzNiAtMS4yMzYsLTEuMjM2IGggLTIuOTgzIGMgLTAuNjgyLDAgLTEuMjM0LDAuNTU0IC0xLjIzNCwxLjIzNiB6IE0gMTAuNDQ2LC0xMy40MjMgQyA5LjY3NCwtMTMuODEgOS40OCwtMTQuMDAzIDkuNDgsLTEyLjk0IHYgNi4yNzUgYyAwLDEuNDUyIDAuNTQ4LDIwLjk1MSAtMjEuOTE2LDIwLjk1MSAtNi4wODksMCAtMTEuNjQ4LC0xLjU0NSAtMTEuNjQ4LC0yLjk5NCAwLC0xLjQ0OCAtMC4wMzMsLTMuNDc1IC0wLjAzMywtNC42MzQgMCwtMS4yNDQgMC42NzUsLTEuODUyIDEuNjQxLC0xLjg1MiBoIDUuNiBjIDAuNjc3LDAgMS43MzcsLTAuMDcxIDEuNzM3LC0xLjI2NSB2IC02LjI0OCBjIDAsLTEuNjQxIC0wLjgwOSwtMS44NTggLTEuNjc4LC0xLjg1OCBoIC01Ljc5MiBjIC0wLjg2OSwwIC0xLjcwMiwtMC40NTkgLTEuNzAyLC0xLjUyMSB2IC01Ljg3MyBjIDAsLTAuODU0IC0wLjM4NSwtMS41NjEgLTEuNjQsLTEuNTYxIGggLTUuODEzIGMgLTAuNzcyLDAgLTEuNjA2LC0wLjk2NCAtMS42MDYsLTIuNDEyIDAsLTEuNDQ4IC0wLjAxNiwtNC40NDMgLTAuMDE2LC01LjMxMiAwLC0wLjg2OSAtMC43NzIsLTAuNzcyIC0yLjcwMywtMC43NzIgMCwwIDAsLTIuNzk5IDEuMjU1LC01Ljk4NiAwLjY3MSwtMS43MDQgMS43MzgsLTIuMTIzIDMuNTcyLC0xLjU0NCAwLDAgMC4yMjIsLTQuNjE5IDEuMjg0LC03LjUxNSAxLjA2MiwtMi44OTYgMS45OTksLTQuNzQ4IDQuOTkyLC02Ljg3MSAyLjk5NCwtMi4xMjUgMy4yODMsLTIuNzA0IDUuMzEsLTQuMzQ1IDIuMDI3LC0xLjY0MiAyLjg5NiwtMy4xODYgOC4wMTQsLTMuMTg2IDUuMjEzLDAgNi40NjgsMi4wMjcgOC41OTIsNC4xNTEgMi4xMjQsMi4xMjUgNC41NiwyLjIwNyA3LjUzLDYuNjYzIDIuNTExLDMuNzY1IDIuNjQ3LDYuODEyIDIuOTkzLDExLjIgMCwwIDIuNzA0LC0xLjM1MiAzLjU3MywxLjM1MSAwLjUzMiwxLjY1NyAyLjEyMyw5LjA3NSAyLjcwMywxMy4wMzMgMC41NzksMy45NTkgLTIuNTEsMi4wMjggLTMuMjgzLDEuNjQyIiBzdHlsZT0iZmlsbDojMjMxZjIwO2ZpbGwtb3BhY2l0eToxO2ZpbGwtcnVsZTpub256ZXJvO3N0cm9rZTpub25lIiBpZD0icGF0aDgxMCIvPjwvZz48L2c+PC9nPjwvZz48L3N2Zz4=;" parent="1" vertex="1">
          <mxGeometry x="120" y="1730" width="900" height="295.52" as="geometry" />
        </mxCell>
        <mxCell id="G008LspMD98nF5xx96pf-5" value="" style="shape=image;verticalLabelPosition=bottom;labelBackgroundColor=default;verticalAlign=top;aspect=fixed;imageAspect=0;editableCssRules=.*;image=data:image/svg+xml,PHN2ZyB4bWxucz0iaHR0cDovL3d3dy53My5vcmcvMjAwMC9zdmciIHZlcnNpb249IjEuMSIgaWQ9InN2ZzE5IiB3aWR0aD0iNTcuNjcxODQwNjY3NzI0NjEiIGhlaWdodD0iMjQuNzM4NzM3MTA2MzIzMjQyIiB2aWV3Qm94PSIxIDEuMDAwMDAwNzE1MjU1NzM3MyA1Ny42NzE4NDA2Njc3MjQ2MSAyNC43Mzg3MzcxMDYzMjMyNDIiPiYjeGE7ICA8bWV0YWRhdGEgaWQ9Im1ldGFkYXRhMjUiPiYjeGE7ICAgICYjeGE7ICAgICAgJiN4YTsgICAgICAgIGltYWdlL3N2Zyt4bWwmI3hhOyAgICAgICAgJiN4YTsgICAgICAgICYjeGE7ICAgICAgJiN4YTsgICAgJiN4YTsgIDwvbWV0YWRhdGE+JiN4YTsgIDxkZWZzIGlkPSJkZWZzMjMiLz4mI3hhOyAgJiN4YTsgIDxnIGlkPSJjdnBhZ2UyX3RvcCIgd2lkdGg9IjYycHgiIGhlaWdodD0iMzFweCIgdHJhbnNmb3JtPSJ0cmFuc2xhdGUoLTEuNzc1MTc5NSwtMi4yMzczMzIzKSI+JiN4YTsgICAgPHBhdGggZD0iTSA2LjUzNCwxMC4wMTEgQyA3LjAzOCwxMC4zMTcgNy42MTMsMTAuMjQ1IDcuODMsOS44NTYgOC4wNDgsOS40NjUgNy44MzEsOC44ODIgNy4zMzEsOC41NTEgNi44MTcsOC4yMDkgNi4yMDQsOC4yNjQgNS45NzksOC42ODMgNS43NTcsOS4wOTggNi4wMTEsOS42OTYgNi41MzQsMTAuMDExIG0gNS45NjcsLTAuOTk2IGMgMCwwIC0wLjAxMiwtMC4wMDMgLTAuMDEyLC0wLjAwMyAwLjQzMSwtMC4xODQgMS4zMTIsLTAuMTIzIDIuMDMzLDAuNzQgMC4xNTYsMC4yMTQgMC40MTIsMC4zMDYgMC42MjQsMC4yMDggQyAxNS4zOTQsOS44NDYgMTUuNDk0LDkuNTExIDE1LjM2OSw5LjIwNiAxNS4yNCw4Ljg5NSAxNC45MjYsOC43MzEgMTQuNjY2LDguODQ1IDE0LjY1Nyw4Ljg0OSAxNC42NDksOC44NTMgMTQuNjQsOC44NTcgMTMuOTg5LDkuMDggMTMuMTQyLDguNjY5IDEyLjU1NCw3Ljg4IDEyLjU0Miw3Ljg2MSAxMi41MjksNy44NDMgMTIuNTE1LDcuODI2IGMgMCwwIDAsLTEwZS00IDAsLTEwZS00IC0wLjIyNCwtMC4yODYgLTAuNTYyLC0wLjQxNSAtMC44MzksLTAuMzIgMCwwIDAsLTAuMDAxIDAsLTAuMDAxIDAsMCAtMTBlLTQsMC4wMDEgLTEwZS00LDAuMDAxIC0wLjAyNiwwLjAwOSAtMC4wNTIsMC4wMiAtMC4wNzgsMC4wMzMgQyAxMC4zOCw4LjA1NyA5Ljc0MSw3Ljg2MSA5LjExMSw3LjAwMiA5LjAzMSw2Ljg3MiA4LjkyNiw2Ljc0OCA4Ljc5Niw2LjY0MSA4LjMxMSw2LjI0MSA3LjY3Niw2LjIyIDcuMzk0LDYuNjA3IDcuMTEyLDYuOTk0IDcuMzAxLDcuNjIyIDcuODAzLDguMDAxIGMgMC4yOTIsMC4yMiAwLjYyNSwwLjMwNSAwLjkwMiwwLjI1OCAwLDAgMC4wMDIsMCAwLjAwMiwwIDAuMDM1LC0wLjAwNyAwLjA3LC0wLjAxNSAwLjEwNCwtMC4wMjUgMC42MjYsLTAuMTQ5IDIuMDAzLC0wLjQyMiAyLjYxNiwwLjQwOSAwLjAwNywwLjAxMSAwLjAxNCwwLjAyMiAwLjAyMSwwLjAzMyAwLjAyLDAuMDMgMC4wNDEsMC4wNTkgMC4wNjMsMC4wODYgMCwwIDAsMCAwLDAgMC41NDcsMS4wNzYgMC4zNDUsMS43NCAtMC4xLDIuNTQ2IC0wLjAxNCwwLjAyMSAtMC4wMjYsMC4wNDIgLTAuMDM3LDAuMDY2IC0wLjEyMSwwLjI3IDAuMDM0LDAuNjEgMC4zNDIsMC43NTQgMC4zLDAuMTQyIDAuNjM2LDAuMDQzIDAuNzU0LC0wLjIxNyAwLjA3NywtMC4xNyAwLjA0NCwtMC4zNzEgLTAuMDcsLTAuNTMyIC0wLjYxNCwtMC45MjUgLTAuNDA3LC0yLjE1OCAwLjEwMSwtMi4zNjQgTSAxMi40NzYsOS4wMDkgYyAwLDAgLTAuMDE3LC0wLjAwNSAtMC4wMTcsLTAuMDA1IDAsMCAwLjAwNSwtMC4wMDMgMC4wMDUsLTAuMDAzIDAsMCAwLjAxMywtMC4wMDkgMC4wMTMsLTAuMDA5IDAsMCAtMTBlLTQsMC4wMTcgLTEwZS00LDAuMDE3IDAsMCAwLDAgMCwwIG0gMy4yNSwtMi45MzIgQyAxNC45NjMsNi4yMjMgMTQuMDAxLDUuNzY4IDEzLjczNSw0Ljg2OSAxMy43MjcsNC44MzEgMTMuNzE3LDQuNzkzIDEzLjcwNiw0Ljc1NSBjIDAsMCAwLDAgMCwwIEMgMTMuNjkzLDQuNzEzIDEzLjY3OCw0LjY3MSAxMy42NjEsNC42MjkgMTMuNDMzLDQuMDY3IDEyLjkwMywzLjcyNyAxMi40OCwzLjg4NCBjIC0wLjQyNywwLjE1OSAtMC41NjMsMC43NTkgLTAuMzA3LDEuMzIyIDAuMTksMC40MjIgMC41NDUsMC42OTcgMC44ODEsMC43MjcgMCwwIDAuMDAzLDAgMC4wMDMsMCAwLjAxNSwwLjAwMSAwLjAyOSwwLjAwMiAwLjA0NCwwLjAwMiAxLjExNSwwLjA2MSAxLjc4OSwwLjMxNiAyLjI2LDEuMTAxIDAuMTAzLDAuMzExIDAuMzQ0LDAuNTI5IDAuNTk1LDAuNTU1IDAsMCAwLDAgMCwwIDAuNzk2LDAuMTQxIDEuNDM4LDAuNDk1IDEuNjE2LDEuMDU1IDAuMDYyLDAuMjEgMC4yMjUsMC4zNTkgMC40MDcsMC4zNTggQyAxOC4yLDkuMDAzIDE4LjM3LDguNzc5IDE4LjM2Myw4LjUgMTguMzU2LDguMjE5IDE4LjE2Niw3Ljk4NCAxNy45MzksNy45NzkgYyAtMC4wMTcsMCAtMC4wMzMsMC4wMDEgLTAuMDQ5LDAuMDAzIDAsMCAwLDAgMCwwIC0wLjAyMiwwLjAwMyAtMC4wNDMsMC4wMDggLTAuMDYzLDAuMDE1IC0wLjYxNSwwLjEyMiAtMS4yOTUsLTAuNDEzIC0xLjMxNCwtMC44NjIgMC4wMSwtMC4wNDIgMC4wMTcsLTAuMDg3IDAuMDIsLTAuMTMyIDAuMjM4LC0wLjk2MyAwLjU2LC0xLjUxMyAxLjQzOCwtMS44MDQgMC4wMzQsLTAuMDA3IDAuMDY2LC0wLjAxNyAwLjA5NywtMC4wMyAwLDAgMCwwIDAsMCAwLjI1NCwtMC4xMSAwLjQyNiwtMC40MzUgMC40MTYsLTAuODQgLTAuMDEzLC0wLjUzMyAtMC4zMzcsLTEuMDE2IC0wLjczLC0xLjA2NiAtMC4zNDYsLTAuMDQ4IC0wLjYyMSwwLjI1OCAtMC42NjgsMC43MDEgMCwwIDAsMCAwLDAgMCwwIDAsMTBlLTQgMCwxMGUtNCAtMC4wMDYsMC4wNiAtMC4wMDgsMC4xMjEgLTAuMDA2LDAuMTg1IC0wLjA0NSwxLjE4NCAtMC4xOTcsMS43ODUgLTEuMjg1LDEuOTE2IC0wLjAxMSwwIC0wLjAyMiwwLjAwMiAtMC4wMzQsMC4wMDQgLTAuMDEyLDAuMDAyIC0wLjAyMywwLjAwNCAtMC4wMzUsMC4wMDcgbSA2LjU3MiwtMC4xNDkgYyAtMC4xODcsMC45NzYgMC4wMjksMS40MzQgMC4zNDIsMS44NDkgMC4wMzIsMC4wMTMgMC4wNjQsMC4wMzIgMC4wOTMsMC4wNTggMC4wMDYsMC4wMDUgMC4wMTEsMC4wMSAwLjAxNiwwLjAxNiAwLjUxMywwLjQ5MSAwLjk3MywwLjQ1MSAxLjU0MiwtMC4xMDEgMC4xNzQsLTAuMTg5IDAuNCwtMC4xODYgMC41MzEsMC4wMTggMC4xNDUsMC4yMjUgMC4xMTksMC42MDggLTAuMDUyLDAuODU5IEMgMjQuNjA5LDguODYxIDI0LjM3Myw4LjkwNCAyNC4yMjEsOC43MzUgMjMuNjY2LDguMzEyIDIzLjM4Miw4LjI3MyAyMi42NjQsOC43MTIgMjIuNTUzLDguNzkxIDIyLjQyMiw4Ljc5NSAyMi4zMTcsOC43MDcgMjIuMTk0LDguNjA0IDIyLjEzOCw4LjQwNSAyMi4xNjcsOC4yMDggYyAwLDAgMCwtMC4wMDIgMCwtMC4wMDIgQyAyMi4xNjksOC4xOTIgMjIuMTcyLDguMTc4IDIyLjE3NSw4LjE2NCAyMi4yNzQsNy41ODIgMjIuMTY5LDYuOTIgMjEuNTUyLDYuMjk3IDIxLjMxOSw2LjEwNyAyMS4yMTUsNS42ODIgMjEuMzI1LDUuMzA0IGMgMC4xMTksLTAuNDEzIDAuNDQzLC0wLjYgMC43MTYsLTAuNDE0IDAuMjI0LDAuMTUgMC4zMzksMC41MDIgMC4yOTgsMC44NDIgMCwwIDAsMTBlLTQgMCwxMGUtNCAtMC4wMDcsMC4wNjYgLTAuMDIxLDAuMTMxIC0wLjA0MSwwLjE5NSAwLDAgMCwwIDAsMCBNIDYuNjE1LDEyLjY2NCBDIDcuMTQ2LDEyLjg1NSA3LjY2MywxMi42NzYgNy43ODMsMTIuMjYzIDcuOTA3LDExLjg0OCA3LjU4MiwxMS4zMzUgNy4wNDcsMTEuMTE5IDYuNDk2LDEwLjg5NSA1Ljk0MSwxMS4wNzMgNS44MjQsMTEuNTE1IDUuNzA3LDExLjk1NCA2LjA2OCwxMi40NjcgNi42MTUsMTIuNjY0IE0gMjYuMDgxLDkuODQ2IGMgLTAuMTEyLDAuMTIxIC0wLjE1MSwwLjMzMiAtMC4wODgsMC40NjggMC4wNjEsMC4xMzMgMC4xOTcsMC4xNDYgMC4zMDYsMC4wMyAwLjEwOCwtMC4xMTcgMC4xNSwtMC4zMjIgMC4wOTMsLTAuNDYgLTAuMDU5LC0wLjE0MSAtMC4xOTksLTAuMTYgLTAuMzExLC0wLjAzOCBtIC03LjA0LC0xLjQ1MSBjIC0wLjAzMywwLjI2OSAwLjExLDAuNTIgMC4zMTcsMC41NjUgMC4yMDMsMC4wNDQgMC4zOTYsLTAuMTMyIDAuNDMyLC0wLjM5NCAwLjAzNywtMC4yNjUgLTAuMDk4LC0wLjUyMyAtMC4zMDcsLTAuNTc1IC0wLjIwOSwtMC4wNTIgLTAuNDEsMC4xMyAtMC40NDIsMC40MDQgbSAtMy4wNTksMC41NDcgYyAwLjA3NiwwLjMyMSAwLjM0NiwwLjUyOCAwLjYwMywwLjQ2OSAwLjI1NSwtMC4wNTcgMC40MDYsLTAuMzU1IDAuMzQxLC0wLjY3IC0wLjA2NywtMC4zMjIgLTAuMzM1LC0wLjU0MyAtMC41OTgsLTAuNDg5IC0wLjI2NiwwLjA1NCAtMC40MjIsMC4zNjYgLTAuMzQ2LDAuNjkgbSAtMi43NDQsMS43NjggYyAwLjE5MywwLjI3NSAwLjUzMywwLjM1NiAwLjc2MSwwLjE4OCAwLjIyOSwtMC4xNjggMC4yNjYsLTAuNTI1IDAuMDgxLC0wLjgwMyAtMC4xODksLTAuMjg0IC0wLjUzNSwtMC4zNzggLTAuNzcyLC0wLjIwNiAtMC4yMzksMC4xNzIgLTAuMjY5LDAuNTQyIC0wLjA3LDAuODIxIE0gMjAuODE2LDcuMzA4IEMgMjAuNzI4LDcuNjA5IDIwLjgzNCw3Ljk0NSAyMS4wNDgsOC4wNTYgMjEuMjU3LDguMTY1IDIxLjQ5Nyw4LjAyIDIxLjU4Nyw3LjcyOSAyMS42NzcsNy40MzQgMjEuNTgyLDcuMDk3IDIxLjM3MSw2Ljk3NiAyMS4xNTYsNi44NTIgMjAuOTA1LDcuMDAxIDIwLjgxNiw3LjMwOCBNIDE5LjE3Myw2Ljc0NCBjIC0wLjA0MywwLjM2IDAuMTM4LDAuNzA0IDAuNDAxLDAuNzc0IDAuMjU5LDAuMDcgMC41MDUsLTAuMTU0IDAuNTUzLC0wLjUwMiAwLjA1LC0wLjM1MSAtMC4xMiwtMC43MDUgLTAuMzg0LC0wLjc4NyAtMC4yNjksLTAuMDgxIC0wLjUyNiwwLjE1MSAtMC41NywwLjUxNSBNIDE3LjI3NSw2LjYxOSBjIDAuMDE5LDAuNDEgMC4yOTEsMC43NDQgMC41OTgsMC43NTUgMC4zMDIsMC4wMSAwLjUzNywtMC4yOTkgMC41MjUsLTAuNjk4IC0wLjAxLC0wLjQwNiAtMC4yNzEsLTAuNzU3IC0wLjU4MywtMC43NzcgLTAuMzE5LC0wLjAyMyAtMC41NjMsMC4zMDMgLTAuNTQsMC43MiBtIC0zLjg2MywxLjA0OCBjIDAuMTgsMC40MDMgMC41NzksMC42MSAwLjg5NCwwLjQ3NCBDIDE0LjYxNyw4LjAwNiAxNC43MzcsNy41NzggMTQuNTczLDcuMTc2IDE0LjQwMyw2Ljc2NSAxNCw2LjUzMyAxMy42NzMsNi42NjggMTMuMzQyLDYuODA0IDEzLjIyNiw3LjI1NSAxMy40MTIsNy42NjcgbSAtMy44NTgsMy41NDEgYyAwLjQwOSwwLjE2OSAwLjg0LDAuMDMzIDAuOTcyLC0wLjI5OSBDIDEwLjY1OCwxMC41NzcgMTAuNDQ0LDEwLjE2MiAxMC4wNCw5Ljk3NiA5LjYyNiw5Ljc4OCA5LjE3MSw5LjkxNCA5LjAzNCwxMC4yNjIgYyAtMC4xMzYsMC4zNDcgMC4xMDEsMC43NzMgMC41MiwwLjk0NiBNIDI1LjMxNiw4Ljg2NSBjIC0wLjE2NywwLjE4IC0wLjIyNSwwLjQ5NSAtMC4xMzIsMC42OTggMC4wOTIsMC4xOTkgMC4yOTUsMC4yMTggMC40NTcsMC4wNDQgQyAyNS44MDMsOS40MzQgMjUuODY1LDkuMTI4IDI1Ljc4LDguOTIyIDI1LjY5Miw4LjcxMSAyNS40ODQsOC42ODMgMjUuMzE2LDguODY1IE0gMjIuOTU3LDYuNDM3IGMgLTAuMTUyLDAuMzIyIC0wLjEwNCwwLjc0IDAuMDk4LDAuOTMzIDAuMiwwLjE4OSAwLjQ3NywwLjA5MiAwLjYyNiwtMC4yMTUgQyAyMy44MzEsNi44NDcgMjMuNzk3LDYuNDMzIDIzLjYwMiw2LjIyOSAyMy40MDEsNi4wMiAyMy4xMSw2LjExMiAyMi45NTcsNi40MzcgTSAxOS4zNDUsNC41MjkgYyAtMC4wNiwwLjQ5NyAwLjE3NywwLjk4MiAwLjUxOCwxLjA5NyAwLjMzMywwLjExIDAuNjU0LC0wLjE3OSAwLjcyMSwtMC42NTMgQyAyMC42NTMsNC40OTIgMjAuNDM2LDMuOTg4IDIwLjA5MywzLjg1NiAxOS43NDIsMy43MjIgMTkuNDA0LDQuMDI2IDE5LjM0NSw0LjUyOSBNIDE0LjYzNyw0LjM4IGMgMC4xMzYsMC41NjIgMC41NzQsMC45NTQgMC45NzksMC44OTQgMC4zOTcsLTAuMDU5IDAuNjI5LC0wLjU0IDAuNTE5LC0xLjA5IEMgMTYuMDE5LDMuNjIyIDE1LjU4NiwzLjE5MyAxNS4xNjUsMy4yNDEgMTQuNzM2LDMuMjg4IDE0LjQ5OSwzLjgwNSAxNC42MzcsNC4zOCBNIDkuNzQxLDYuNDU3IGMgMC4zNTYsMC40OTUgMC45MzQsMC42NzggMS4yOTksMC40MjEgMC4zNjMsLTAuMjU1IDAuMzk3LC0wLjg2IDAuMDY0LC0xLjM2NyBDIDEwLjc2MSw0Ljk4NyAxMC4xNjMsNC43NjcgOS43NzQsNS4wMzIgOS4zODQsNS4zIDkuMzczLDUuOTQ0IDkuNzQxLDYuNDU3IiBmaWxsPSIjNjg0NDhCIiBmaWxsLXJ1bGU9ImV2ZW5vZGQiIHN0cm9rZT0ibm9uZSIgaWQ9InBhdGgxMCIvPiYjeGE7ICAgIDxwYXRoIGQ9Im0gMTQuODA2LDI2Ljg0NCBjIDAuMDIxLC0wLjU5IC0wLjMyMiwtMS4wNTYgLTAuNzY3LC0xLjA1NiAtMC40NDgsMCAtMC44NTEsMC40NzMgLTAuODk3LDEuMDcxIC0wLjA0OCwwLjYxNiAwLjI5OSwxLjEyNCAwLjc3NCwxLjExNyAwLjQ3MSwtMC4wMDkgMC44NywtMC41MjIgMC44OSwtMS4xMzIgbSAtMy43NzgsLTQuNzI2IGMgMCwwIDAuMDAzLDAuMDEyIDAuMDAzLDAuMDEyIC0wLjM3LC0wLjI4NiAtMC43NDYsLTEuMDg1IC0wLjM0NCwtMi4xMzUgMC4xMTEsLTAuMjQyIDAuMDY2LC0wLjUxIC0wLjEyMiwtMC42NDYgLTAuMjIxLC0wLjE2MiAtMC41NjIsLTAuMDg2IC0wLjc2NywwLjE3MiAtMC4yMDksMC4yNjQgLTAuMTk5LDAuNjE4IDAuMDI3LDAuNzkgMC4wMDcsMC4wMDYgMC4wMTUsMC4wMTEgMC4wMjMsMC4wMTcgMC41MTIsMC40NTkgMC41NjYsMS4zOTkgMC4xNjMsMi4yOTcgLTAuMDEsMC4wMiAtMC4wMiwwLjA0IC0wLjAyOCwwLjA2MSAwLDAgMCwwIDAsMCAtMC4xNDIsMC4zMzUgLTAuMDksMC42OTMgMC4xMjgsMC44ODkgMCwwIDEwZS00LDAgMTBlLTQsMCAwLjAyMSwwLjAxOSAwLjA0NCwwLjAzNiAwLjA2NywwLjA1MyAxLjA0NiwwLjgxIDEuMTg3LDEuNDYzIDAuNzQzLDIuNDMxIC0wLjA3NSwwLjEzMyAtMC4xMzEsMC4yODYgLTAuMTYyLDAuNDUyIC0wLjExMiwwLjYxOSAwLjE3OSwxLjE4MiAwLjY1NCwxLjI0IDAuNDc2LDAuMDU4IDAuOTMyLC0wLjQxMyAxLjAxOCwtMS4wMzYgMC4wNSwtMC4zNjIgLTAuMDM4LC0wLjY5NCAtMC4yMTQsLTAuOTEzIDAsMCAtMTBlLTQsLTAuMDAyIC0xMGUtNCwtMC4wMDIgLTAuMDIzLC0wLjAyNyAtMC4wNDgsLTAuMDU0IC0wLjA3MywtMC4wNzkgLTAuNDM1LC0wLjQ3NCAtMS4zNDQsLTEuNTQzIC0wLjkxNywtMi40ODQgMC4wMDYsLTAuMDExIDAuMDEyLC0wLjAyMiAwLjAxOCwtMC4wMzQgMC4wMTcsLTAuMDMyIDAuMDMyLC0wLjA2NCAwLjA0NCwtMC4wOTcgMC42NzMsLTEuMDAyIDEuMzUyLC0xLjE0OSAyLjI3MiwtMS4xNTMgMC4wMjUsMC4wMDIgMC4wNTEsMC4wMDIgMC4wNzYsMCAwLjI5NSwtMC4wMjYgMC41MTYsLTAuMzI2IDAuNDkyLC0wLjY2NSAtMC4wMjIsLTAuMzMyIC0wLjI3MiwtMC41NzcgLTAuNTU3LC0wLjU1MyAtMC4xODYsMC4wMTUgLTAuMzQ2LDAuMTQxIC0wLjQzLDAuMzIgLTAuNTA5LDAuOTg3IC0xLjY4NiwxLjQwNyAtMi4xMTQsMS4wNjMgbSAwLjAwNywwLjAyNSBjIDAsMCAwLjAwNSwwLjAxOCAwLjAwNSwwLjAxOCAwLDAgLTAuMDA2LC0wLjAwMyAtMC4wMDYsLTAuMDAzIDAsMCAtMC4wMTQsLTAuMDA3IC0wLjAxNCwtMC4wMDcgMCwwIDAuMDE1LC0wLjAwOCAwLjAxNSwtMC4wMDggMCwwIDAsMCAwLDAgTSA2Ljg5MSwyMC43MzQgYyAwLjUsMC41OTUgMC41NzEsMS42NTcgLTAuMDg1LDIuMzI3IC0wLjAyOSwwLjAyNiAtMC4wNTcsMC4wNTIgLTAuMDg1LDAuMDgxIC0wLjAzLDAuMDMyIC0wLjA2LDAuMDY1IC0wLjA4OCwwLjEwMSAtMC4zOCwwLjQ3MyAtMC40MTksMS4xMDIgLTAuMDc1LDEuMzk0IDAuMzQ3LDAuMjk1IDAuOTM3LDAuMTIyIDEuMzA0LC0wLjM3NiAwLjI3NiwtMC4zNzIgMC4zNDMsLTAuODE2IDAuMjA1LC0xLjEyNCAwLDAgLTEwZS00LC0wLjAwMiAtMTBlLTQsLTAuMDAyIC0wLjAwNiwtMC4wMTMgLTAuMDEzLC0wLjAyNyAtMC4wMiwtMC4wNCAtMC40OSwtMS4wMDMgLTAuNTk1LC0xLjcxNSAtMC4xNCwtMi41MDkgMC4yMjIsLTAuMjQyIDAuMjk1LC0wLjU1OSAwLjE5NSwtMC43OTEgMCwwIDAsMCAwLDAgQyA3LjgzNiwxOS4wMzIgNy44MzMsMTguMjk4IDguMjM1LDE3Ljg3IDguMzg4LDE3LjcxNCA4LjQzOSwxNy40OTggOC4zNDksMTcuMzQgOC4yNCwxNy4xNDcgNy45NjIsMTcuMTA4IDcuNzIyLDE3LjI1IDcuNDgsMTcuMzk0IDcuMzY3LDE3LjY3NCA3LjQ3NCwxNy44NzQgYyAwLjAwOCwwLjAxNSAwLjAxNywwLjAyOSAwLjAyNiwwLjA0MSAwLDAgMCwwLjAwMSAwLDAuMDAxIDAuMDE0LDAuMDE4IDAuMDI4LDAuMDMzIDAuMDQ0LDAuMDQ4IDAuNDA2LDAuNDc3IDAuMjcxLDEuMzMxIC0wLjExMiwxLjU2NyBDIDcuMzksMTkuNTQzIDcuMzQ4LDE5LjU1OSA3LjMwNiwxOS41NzggNi4zNDksMTkuODM5IDUuNzEyLDE5LjgyNiA1LjAzLDE5LjIwMSA1LjAwOCwxOS4xNzUgNC45ODQsMTkuMTUyIDQuOTU3LDE5LjEzMiBjIDAsMCAwLC0wLjAwMSAwLC0wLjAwMSAtMC4yMiwtMC4xNjggLTAuNTg4LC0wLjE2IC0wLjkzNiwwLjA0NiAtMC40NTksMC4yNzEgLTAuNzIzLDAuNzkgLTAuNTc2LDEuMTU3IDAuMTI3LDAuMzI2IDAuNTI5LDAuNDE3IDAuOTM4LDAuMjQyIDAsMCAwLDAgMCwwIDAsMCAwLjAwMSwwIDAuMDAxLDAgMC4wNTUsLTAuMDI0IDAuMTEsLTAuMDUyIDAuMTY1LC0wLjA4NSAxLjA1NSwtMC41MzkgMS42NTQsLTAuNjk4IDIuMjk4LDAuMTg4IDAuMDA3LDAuMDA5IDAuMDE0LDAuMDE5IDAuMDIxLDAuMDI4IDAuMDA3LDAuMDA5IDAuMDE1LDAuMDE4IDAuMDIzLDAuMDI3IE0gMy41NTksMTUuMDY4IGMgMC45NDMsLTAuMzEyIDEuMjM3LC0wLjcyNSAxLjQ0OCwtMS4yIC0wLjAwNSwtMC4wMzUgLTAuMDA0LC0wLjA3MSAwLjAwNSwtMC4xMSAwLjAwMiwtMC4wMDcgMC4wMDQsLTAuMDE0IDAuMDA2LC0wLjAyMSAwLjE3OSwtMC42ODggLTAuMDgsLTEuMDcgLTAuODM5LC0xLjI5NyAtMC4yNSwtMC4wNiAtMC4zNTgsLTAuMjU5IC0wLjI0MywtMC40NzMgMC4xMjUsLTAuMjM2IDAuNDcyLC0wLjQwMSAwLjc3NSwtMC4zNzMgMC4yODIsMC4wMjYgMC40MzYsMC4yMTEgMC4zNjIsMC40MjcgLTAuMDk5LDAuNjkgMC4wMDUsMC45NTggMC43MzgsMS4zNzEgMC4xMjMsMC4wNTcgMC4xOSwwLjE3IDAuMTY1LDAuMzA1IC0wLjAzLDAuMTU3IC0wLjE3NywwLjMwMyAtMC4zNjIsMC4zNzQgMCwwIC0wLjAwMiwxMGUtNCAtMC4wMDIsMTBlLTQgLTAuMDE0LDAuMDA1IC0wLjAyNywwLjAwOSAtMC4wNDEsMC4wMTMgLTAuNTU3LDAuMTk3IC0xLjA4NCwwLjYxMiAtMS4zMjcsMS40NTUgLTAuMDUyLDAuMjk2IC0wLjM3MywwLjU5MyAtMC43NTYsMC42ODIgLTAuNDE5LDAuMDk2IC0wLjc0LC0wLjA5NSAtMC43MTEsLTAuNDI1IDAuMDIyLC0wLjI2NyAwLjI3MywtMC41MzkgMC41OSwtMC42NyAwLDAgMTBlLTQsMCAxMGUtNCwwIDAuMDYxLC0wLjAyNiAwLjEyNSwtMC4wNDYgMC4xOSwtMC4wNTkgMCwwIDAuMDAxLDAgMC4wMDEsMCBNIDE3LjA4MiwyNS40OCBjIC0wLjA5MSwtMC41NTYgLTAuNSwtMC45MjEgLTAuOTE4LC0wLjgyNCAtMC40MjMsMC4wOTQgLTAuNzEzLDAuNjI3IC0wLjY0MSwxLjIgMC4wNzQsMC41OSAwLjQ5OSwwLjk4OCAwLjk0MiwwLjg3NSAwLjQ0LC0wLjExMiAwLjcxMywtMC42NzggMC42MTcsLTEuMjUxIE0gNS4xMzYsOS44NTUgQyA1LjI5Nyw5Ljg5NCA1LjUsOS44MjUgNS41ODgsOS43MDQgNS42NzUsOS41ODYgNS42MTksOS40NiA1LjQ2NSw5LjQyMiA1LjMxLDkuMzg0IDUuMTExLDkuNDQ4IDUuMDE5LDkuNTY1IDQuOTI0LDkuNjg1IDQuOTc1LDkuODE2IDUuMTM2LDkuODU1IE0gNy4yOTksMTYuNzEgQyA3LjU1MSwxNi42MDcgNy43LDE2LjM2IDcuNjM5LDE2LjE1OCA3LjU3NywxNS45NTkgNy4zMywxNS44NzYgNy4wODQsMTUuOTcyIDYuODM1LDE2LjA2OSA2LjY3NSwxNi4zMTMgNi43MzEsMTYuNTIgYyAwLjA1NywwLjIwOSAwLjMxNCwwLjI5NiAwLjU2OCwwLjE5IG0gMS45NjksMi40MDQgQyA5LjUxMSwxOC44OTEgOS41NiwxOC41NTUgOS4zODUsMTguMzYgOS4yMTEsMTguMTY1IDguODc2LDE4LjE3OCA4LjYzMiwxOC4zODggYyAtMC4yNDgsMC4yMTUgLTAuMzEsMC41NTYgLTAuMTM0LDAuNzYxIDAuMTc2LDAuMjA1IDAuNTI0LDAuMTg5IDAuNzcsLTAuMDM1IG0gMi44ODIsMS41MzUgYyAwLjE0NSwtMC4zMDMgMC4wNSwtMC42MzkgLTAuMjA4LC0wLjc1NiAtMC4yNTcsLTAuMTE4IC0wLjU4NywwLjAyMyAtMC43NCwwLjMyIC0wLjE1NiwwLjMwNCAtMC4wNjksMC42NTIgMC4xOTYsMC43NzUgMC4yNjcsMC4xMjQgMC42MDUsLTAuMDMgMC43NTIsLTAuMzM5IG0gLTYuNjY1LC00Ljk2IGMgMC4zMDcsLTAuMDcgMC41NDgsLTAuMzI1IDAuNTQxLC0wLjU2NyAtMC4wMDcsLTAuMjM2IC0wLjI1LC0wLjM3NCAtMC41NDgsLTAuMzExIC0wLjMwMiwwLjA2NSAtMC41NSwwLjMxMiAtMC41NTIsMC41NTUgLTAuMDA0LDAuMjQ5IDAuMjQ4LDAuMzk1IDAuNTU5LDAuMzIzIG0gMC4zMDksMS43MSBjIDAuMzM2LC0wLjEzNyAwLjU0OCwtMC40NjQgMC40OCwtMC43MjcgLTAuMDY1LC0wLjI2IC0wLjM4LC0wLjM2NiAtMC43MDcsLTAuMjM5IC0wLjMzMSwwLjEyOCAtMC41NTgsMC40NDkgLTAuNTAxLDAuNzE5IDAuMDYsMC4yNzUgMC4zODksMC4zODYgMC43MjgsMC4yNDcgTSA2LjYxLDE5LjExNyBDIDYuOTU4LDE4LjkgNy4xMTgsMTguNTAxIDYuOTc4LDE4LjIyNyA2LjgzOSwxNy45NTkgNi40NTUsMTcuOTA0IDYuMTEyLDE4LjEwOSBjIC0wLjM0OSwwLjIwNiAtMC41MjksMC42MDUgLTAuMzk1LDAuODg4IDAuMTM2LDAuMjkgMC41NCwwLjM0MyAwLjg5MywwLjEyIE0gOS40MDgsMjEuOTggQyA5LjY3MSwyMS42MjYgOS42NTgsMjEuMTc3IDkuMzg1LDIwLjk2OCA5LjExNiwyMC43NjIgOC42ODQsMjAuODY3IDguNDEzLDIxLjIwNSA4LjEzNiwyMS41NTQgOC4xMywyMi4wMTkgOC40MDcsMjIuMjM5IDguNjg4LDIyLjQ2MSA5LjEzOCwyMi4zNDIgOS40MDgsMjEuOTggbSA0Ljk3MiwxLjY0MyBjIC0wLjA1MywtMC40MzkgLTAuMzgxLC0wLjc1IC0wLjczNSwtMC43MDMgLTAuMzU1LDAuMDQ3IC0wLjYxNCwwLjQzNiAtMC41NzgsMC44NzkgMC4wMzcsMC40NTMgMC4zNjksMC43OSAwLjc0LDAuNzM5IDAuMzY5LC0wLjA1IDAuNjI1LC0wLjQ2NSAwLjU3MywtMC45MTUgTSA0LjY1MiwxMS4wMDEgYyAwLjIzOSwwLjA1OCAwLjU0MiwtMC4wNDQgMC42NzUsLTAuMjI1IDAuMTI5LC0wLjE3NyAwLjA0NiwtMC4zNjQgLTAuMTg0LC0wLjQyMSAtMC4yMzEsLTAuMDU2IC0wLjUyOCwwLjAzOSAtMC42NjcsMC4yMTMgLTAuMTQxLDAuMTggLTAuMDY0LDAuMzc1IDAuMTc2LDAuNDMzIG0gLTAuOTcsMy4yNDMgYyAwLjM1NSwtMC4wMjQgMC42OTcsLTAuMjcgMC43NjcsLTAuNTQgMC4wNjcsLTAuMjY2IC0wLjE1MywtMC40NjEgLTAuNDkzLC0wLjQ0MiAtMC4zNDIsMC4wMTkgLTAuNjg3LDAuMjUgLTAuNzcsMC41MjEgLTAuMDg1LDAuMjc3IDAuMTM4LDAuNDg2IDAuNDk2LDAuNDYxIG0gMC4wOTQsNC4wODQgQyA0LjIzOCwxOC4xMzggNC41NDcsMTcuNjk1IDQuNDgxLDE3LjM0MSA0LjQxNSwxNi45OTcgNC4wMDYsMTYuODU3IDMuNTYsMTcuMDI5IGMgLTAuNDU0LDAuMTc1IC0wLjc4OCwwLjYwOSAtMC43MzYsMC45NzMgMC4wNTQsMC4zNzIgMC40ODMsMC41MTkgMC45NTIsMC4zMjYgTSA1Ljk0LDIyLjUxMiBDIDYuMzY1LDIyLjEyIDYuNDkzLDIxLjU0NiA2LjI0NCwyMS4yMjEgNS45OTgsMjAuOTAzIDUuNDY1LDIwLjkzNSA1LjAzOSwyMS4yOTkgYyAtMC40MzUsMC4zNzYgLTAuNTk4LDAuOTYzIC0wLjM1MSwxLjMwNyAwLjI1LDAuMzUxIDAuODE4LDAuMzA3IDEuMjUyLC0wLjA5NCBtIDQuMiwzLjI2MyBjIDAuMjU4LC0wLjU1MiAwLjEzNywtMS4xNDYgLTAuMjY1LC0xLjM0IC0wLjQwMSwtMC4xOTMgLTAuOTQ2LDAuMDczIC0xLjIyNiwwLjYxMSAtMC4yOTEsMC41NTQgLTAuMTkxLDEuMTg0IDAuMjMsMS4zOTUgMC40MjQsMC4yMSAwLjk5MiwtMC4wOTUgMS4yNjEsLTAuNjY2IiBmaWxsPSIjOTE2QkE0IiBmaWxsLXJ1bGU9ImV2ZW5vZGQiIHN0cm9rZT0ibm9uZSIgaWQ9InBhdGgxMiIvPiYjeGE7ICAgIDxwYXRoIGQ9Im0gMTUuMTMxLDEyLjk4NiBjIDAsMCAwLDIuMDgzIDAsMi4wODMgMCwwIC0wLjQ2NiwwIC0wLjQ2NiwwIDAsMCAwLC0yLjk1OCAwLC0yLjk1OCAwLDAgMC4zNjYsMCAwLjM2NiwwIDAsMCAxLjY5MiwyLjEzMyAxLjY5MiwyLjEzMyAwLDAgMCwtMi4xMjkgMCwtMi4xMjkgMCwwIDAuNDcxLDAgMC40NzEsMCAwLDAgMCwyLjk1NCAwLDIuOTU0IDAsMCAtMC4zODgsMCAtMC4zODgsMCAwLDAgLTEuNjc1LC0yLjA4MyAtMS42NzUsLTIuMDgzIDAsMCAwLDAgMCwwIG0gNC43NTksMS42NyBjIDAsMCAwLDAuNDEzIDAsMC40MTMgMCwwIC0yLjAzLDAgLTIuMDMsMCAwLDAgMCwtMi45NTggMCwtMi45NTggMCwwIDEuOTkyLDAgMS45OTIsMCAwLDAgMCwwLjQxMiAwLDAuNDEyIDAsMCAtMS41MjUsMCAtMS41MjUsMCAwLDAgMCwwLjg0MiAwLDAuODQyIDAsMCAxLjMyMSwwIDEuMzIxLDAgMCwwIDAsMC4zODcgMCwwLjM4NyAwLDAgLTEuMzIxLDAgLTEuMzIxLDAgMCwwIDAsMC45MDQgMCwwLjkwNCAwLDAgMS41NjMsMCAxLjU2MywwIDAsMCAwLDAgMCwwIG0gMS43MTYsMC4wMTMgYyAwLjE1NiwwIDAuMjg1LC0wLjAzMSAwLjM4OCwtMC4wOTIgMC4xMDIsLTAuMDYxIDAuMTg1LC0wLjE0MSAwLjI0OCwtMC4yMzkgMC4wNjIsLTAuMDk5IDAuMTA3LC0wLjIxMiAwLjEzMywtMC4zMzggMC4wMjYsLTAuMTI2IDAuMDQsLTAuMjU2IDAuMDQsLTAuMzg5IDAsMCAwLC0xLjUgMCwtMS41IDAsMCAwLjQ3LDAgMC40NywwIDAsMCAwLDEuNSAwLDEuNSAwLDAuMjAyIC0wLjAyMywwLjM5NCAtMC4wNzEsMC41NzIgLTAuMDQ3LDAuMTggLTAuMTIyLDAuMzM3IC0wLjIyNSwwLjQ3MSAtMC4xMDMsMC4xMzUgLTAuMjM1LDAuMjQxIC0wLjM5OCwwLjMxOSAtMC4xNjIsMC4wNzggLTAuMzU3LDAuMTE2IC0wLjU4NSwwLjExNiAtMC4yMzYsMCAtMC40MzUsLTAuMDQgLTAuNTk4LC0wLjEyMiAtMC4xNjIsLTAuMDgyIC0wLjI5NCwtMC4xOTIgLTAuMzk0LC0wLjMzIC0wLjEsLTAuMTM3IC0wLjE3MiwtMC4yOTUgLTAuMjE2LC0wLjQ3MiAtMC4wNDUsLTAuMTc4IC0wLjA2NywtMC4zNjMgLTAuMDY3LC0wLjU1NCAwLDAgMCwtMS41IDAsLTEuNSAwLDAgMC40NjcsMCAwLjQ2NywwIDAsMCAwLDEuNSAwLDEuNSAwLDAuMTM2IDAuMDEzLDAuMjY3IDAuMDM5LDAuMzk0IDAuMDI3LDAuMTI2IDAuMDcxLDAuMjM4IDAuMTM0LDAuMzM3IDAuMDYyLDAuMDk4IDAuMTQ1LDAuMTc4IDAuMjUsMC4yMzcgMC4xMDQsMC4wNiAwLjIzMiwwLjA5IDAuMzg1LDAuMDkgbSAxLjksMC40IGMgMCwwIDAsLTIuOTU4IDAsLTIuOTU4IDAsMCAxLjI4OCwwIDEuMjg4LDAgMC4xMzMsMCAwLjI1NiwwLjAyOCAwLjM2OCwwLjA4MyAwLjExMiwwLjA1NiAwLjIwOSwwLjEyOCAwLjI5LDAuMjE5IDAuMDgsMC4wOSAwLjE0NCwwLjE5MiAwLjE4OSwwLjMwOCAwLjA0NiwwLjExNSAwLjA2OSwwLjIzMyAwLjA2OSwwLjM1MiAwLDAuMSAtMC4wMTQsMC4xOTYgLTAuMDQxLDAuMjg4IC0wLjAyOCwwLjA5MSAtMC4wNjcsMC4xNzYgLTAuMTE3LDAuMjU0IC0wLjA1LDAuMDc4IC0wLjExMSwwLjE0NSAtMC4xODMsMC4yMDIgLTAuMDczLDAuMDU3IC0wLjE1MiwwLjA5OSAtMC4yMzgsMC4xMjcgMCwwIDAuNjk2LDEuMTI1IDAuNjk2LDEuMTI1IDAsMCAtMC41MywwIC0wLjUzLDAgMCwwIC0wLjY0MSwtMS4wMjkgLTAuNjQxLC0xLjAyOSAwLDAgLTAuNjgzLDAgLTAuNjgzLDAgMCwwIDAsMS4wMjkgMCwxLjAyOSAwLDAgLTAuNDY3LDAgLTAuNDY3LDAgbSAwLjQ2NywtMS40NDIgYyAwLDAgMC44MTcsMCAwLjgxNywwIDAuMDY2LDAgMC4xMjYsLTAuMDE0IDAuMTgsLTAuMDQzIDAuMDU0LC0wLjAzIDAuMTAxLC0wLjA3IDAuMTQsLTAuMTIxIDAuMDM5LC0wLjA1MiAwLjA2OSwtMC4xMTEgMC4wOTIsLTAuMTc3IDAuMDIyLC0wLjA2NyAwLjAzMywtMC4xMzggMC4wMzMsLTAuMjEzIDAsLTAuMDc1IC0wLjAxMywtMC4xNDYgLTAuMDM5LC0wLjIxMyAtMC4wMjcsLTAuMDY2IC0wLjA2MiwtMC4xMjQgLTAuMTA1LC0wLjE3NCAtMC4wNDMsLTAuMDUxIC0wLjA5MywtMC4wOSAtMC4xNSwtMC4xMTkgLTAuMDU3LC0wLjAyOSAtMC4xMTUsLTAuMDQ0IC0wLjE3NywtMC4wNDQgMCwwIC0wLjc5MSwwIC0wLjc5MSwwIDAsMCAwLDEuMTA0IDAsMS4xMDQgbSAzLjExMiwtMS41MTYgYyAwLDAgMC40MDksMCAwLjQwOSwwIDAsMCAxLjE2NiwyLjk1OCAxLjE2NiwyLjk1OCAwLDAgLTAuNDkyLDAgLTAuNDkyLDAgMCwwIC0wLjMxMiwtMC44MDQgLTAuMzEyLC0wLjgwNCAwLDAgLTEuMTQyLDAgLTEuMTQyLDAgMCwwIC0wLjMwOCwwLjgwNCAtMC4zMDgsMC44MDQgMCwwIC0wLjQ5NiwwIC0wLjQ5NiwwIDAsMCAxLjE3NSwtMi45NTggMS4xNzUsLTIuOTU4IDAsMCAwLDAgMCwwIG0gMC42NzksMS44MDggYyAwLDAgLTAuNDc1LC0xLjI3MSAtMC40NzUsLTEuMjcxIDAsMCAtMC40OTEsMS4yNzEgLTAuNDkxLDEuMjcxIDAsMCAwLjk2NiwwIDAuOTY2LDAgMCwwIDAsMCAwLDAgbSAxLjI2MywxLjE1IGMgMCwwIDAsLTIuOTU4IDAsLTIuOTU4IDAsMCAwLjQ2NiwwIDAuNDY2LDAgMCwwIDAsMi41NDUgMCwyLjU0NSAwLDAgMS41ODgsMCAxLjU4OCwwIDAsMCAwLDAuNDEzIDAsMC40MTMgMCwwIC0yLjA1NCwwIC0yLjA1NCwwIDAsMCAwLDAgMCwwIG0gMy4zNSwwIGMgMCwwIDAsLTIuOTU4IDAsLTIuOTU4IDAsMCAwLjQ2NiwwIDAuNDY2LDAgMCwwIDAsMi45NTggMCwyLjk1OCAwLDAgLTAuNDY2LDAgLTAuNDY2LDAgMCwwIDAsMCAwLDAgbSAxLjU5OSwtMi4wODMgYyAwLDAgMCwyLjA4MyAwLDIuMDgzIDAsMCAtMC40NjYsMCAtMC40NjYsMCAwLDAgMCwtMi45NTggMCwtMi45NTggMCwwIDAuMzY2LDAgMC4zNjYsMCAwLDAgMS42OTIsMi4xMzMgMS42OTIsMi4xMzMgMCwwIDAsLTIuMTI5IDAsLTIuMTI5IDAsMCAwLjQ3MSwwIDAuNDcxLDAgMCwwIDAsMi45NTQgMCwyLjk1NCAwLDAgLTAuMzg3LDAgLTAuMzg3LDAgMCwwIC0xLjY3NiwtMi4wODMgLTEuNjc2LC0yLjA4MyAwLDAgMCwwIDAsMCBtIDIuNzMsMi4wODMgYyAwLDAgMCwtMi45NTggMCwtMi45NTggMCwwIDEuOTcsMCAxLjk3LDAgMCwwIDAsMC40MTIgMCwwLjQxMiAwLDAgLTEuNTA0LDAgLTEuNTA0LDAgMCwwIDAsMC44ODQgMCwwLjg4NCAwLDAgMS4yNTksMCAxLjI1OSwwIDAsMCAwLDAuMzg3IDAsMC4zODcgMCwwIC0xLjI1OSwwIC0xLjI1OSwwIDAsMCAwLDEuMjc1IDAsMS4yNzUgMCwwIC0wLjQ2NiwwIC0wLjQ2NiwwIDAsMCAwLDAgMCwwIG0gMy41NzUsMC4wMiBjIC0wLjIxMiwwIC0wLjQwNCwtMC4wNDIgLTAuNTc4LC0wLjEyNiAtMC4xNzMsLTAuMDg1IC0wLjMyMiwtMC4xOTggLTAuNDQ3LC0wLjMzOCAtMC4xMjYsLTAuMTQgLTAuMjIyLC0wLjMgLTAuMjksLTAuNDgxIC0wLjA2OCwtMC4xODEgLTAuMTAyLC0wLjM2NSAtMC4xMDIsLTAuNTU0IDAsLTAuMTk3IDAuMDM2LC0wLjM4NiAwLjEwOCwtMC41NjcgMC4wNzIsLTAuMTgxIDAuMTcyLC0wLjM0IDAuMjk4LC0wLjQ3OSAwLjEyNywtMC4xMzkgMC4yNzYsLTAuMjQ5IDAuNDUsLTAuMzMyIDAuMTc0LC0wLjA4MSAwLjM2MywtMC4xMjIgMC41NjksLTAuMTIyIDAuMjExLDAgMC40MDMsMC4wNDMgMC41NzcsMC4xMzEgMC4xNzQsMC4wODcgMC4zMjIsMC4yMDIgMC40NDYsMC4zNDQgMC4xMjMsMC4xNDEgMC4yMTksMC4zMDIgMC4yODcsMC40ODEgMC4wNjgsMC4xNzkgMC4xMDIsMC4zNjIgMC4xMDIsMC41NDggMCwwLjE5NyAtMC4wMzUsMC4zODYgLTAuMTA2LDAuNTY3IC0wLjA3MSwwLjE4IC0wLjE3LDAuMzM5IC0wLjI5OCwwLjQ3NiAtMC4xMjgsMC4xMzggLTAuMjc4LDAuMjQ4IC0wLjQ1MiwwLjMzIC0wLjE3NCwwLjA4MiAtMC4zNjIsMC4xMjIgLTAuNTY0LDAuMTIyIE0gMzkuMzM5LDEzLjU5IGMgMCwwLjEzOSAwLjAyMiwwLjI3MyAwLjA2NywwLjQwNCAwLjA0NCwwLjEzIDAuMTA3LDAuMjQ2IDAuMTg5LDAuMzQ2IDAuMDgyLDAuMSAwLjE4MSwwLjE4IDAuMjk4LDAuMjM5IDAuMTE3LDAuMDYgMC4yNDcsMC4wOSAwLjM5MiwwLjA5IDAuMTUsMCAwLjI4MiwtMC4wMzIgMC4zOTgsLTAuMDk0IDAuMTE1LC0wLjA2MyAwLjIxMywtMC4xNDUgMC4yOTMsLTAuMjQ4IDAuMDgxLC0wLjEwMiAwLjE0MiwtMC4yMTggMC4xODQsLTAuMzQ1IDAuMDQyLC0wLjEyOCAwLjA2MiwtMC4yNTkgMC4wNjIsLTAuMzkyIDAsLTAuMTQyIC0wLjAyMiwtMC4yNzcgLTAuMDY2LC0wLjQwNyAtMC4wNDUsLTAuMTI4IC0wLjEwOCwtMC4yNDMgLTAuMTksLTAuMzQxIC0wLjA4MiwtMC4wOTkgLTAuMTgxLC0wLjE3OCAtMC4yOTYsLTAuMjM4IC0wLjExNSwtMC4wNTkgLTAuMjQ0LC0wLjA4OSAtMC4zODUsLTAuMDg5IC0wLjE1LDAgLTAuMjg0LDAuMDMxIC0wLjQsMC4wOTMgLTAuMTE3LDAuMDYzIC0wLjIxNiwwLjE0NCAtMC4yOTYsMC4yNDQgLTAuMDgxLDAuMSAtMC4xNDMsMC4yMTUgLTAuMTg1LDAuMzQ0IC0wLjA0MywwLjEyOSAtMC4wNjUsMC4yNiAtMC4wNjUsMC4zOTQgbSAyLjg0NiwxLjQ3OSBjIDAsMCAwLC0yLjk1OCAwLC0yLjk1OCAwLDAgMS4yODcsMCAxLjI4NywwIDAuMTMzLDAgMC4yNTYsMC4wMjggMC4zNjksMC4wODMgMC4xMTIsMC4wNTYgMC4yMDksMC4xMjggMC4yODksMC4yMTkgMC4wODEsMC4wOSAwLjE0NCwwLjE5MiAwLjE5LDAuMzA4IDAuMDQ2LDAuMTE1IDAuMDY5LDAuMjMzIDAuMDY5LDAuMzUyIDAsMC4xIC0wLjAxNCwwLjE5NiAtMC4wNDIsMC4yODggLTAuMDI4LDAuMDkxIC0wLjA2NywwLjE3NiAtMC4xMTcsMC4yNTQgLTAuMDUsMC4wNzggLTAuMTExLDAuMTQ1IC0wLjE4MywwLjIwMiAtMC4wNzIsMC4wNTcgLTAuMTUxLDAuMDk5IC0wLjIzOCwwLjEyNyAwLDAgMC42OTYsMS4xMjUgMC42OTYsMS4xMjUgMCwwIC0wLjUyOSwwIC0wLjUyOSwwIDAsMCAtMC42NDEsLTEuMDI5IC0wLjY0MSwtMS4wMjkgMCwwIC0wLjY4NCwwIC0wLjY4NCwwIDAsMCAwLDEuMDI5IDAsMS4wMjkgMCwwIC0wLjQ2NiwwIC0wLjQ2NiwwIG0gMC40NjYsLTEuNDQyIGMgMCwwIDAuODE3LDAgMC44MTcsMCAwLjA2NiwwIDAuMTI3LC0wLjAxNCAwLjE4MSwtMC4wNDMgMC4wNTQsLTAuMDMgMC4xMDEsLTAuMDcgMC4xNCwtMC4xMjEgMC4wMzksLTAuMDUyIDAuMDY5LC0wLjExMSAwLjA5MSwtMC4xNzcgMC4wMjMsLTAuMDY3IDAuMDMzLC0wLjEzOCAwLjAzMywtMC4yMTMgMCwtMC4wNzUgLTAuMDEyLC0wLjE0NiAtMC4wMzksLTAuMjEzIC0wLjAyNiwtMC4wNjYgLTAuMDYxLC0wLjEyNCAtMC4xMDQsLTAuMTc0IC0wLjA0MywtMC4wNTEgLTAuMDkzLC0wLjA5IC0wLjE1LC0wLjExOSAtMC4wNTcsLTAuMDI5IC0wLjExNiwtMC4wNDQgLTAuMTc3LC0wLjA0NCAwLDAgLTAuNzkyLDAgLTAuNzkyLDAgMCwwIDAsMS4xMDQgMCwxLjEwNCBtIDQuNzc1LDEuNDQyIGMgMCwwIDAsLTIuMTI5IDAsLTIuMTI5IDAsMCAtMC44NzksMS42MTIgLTAuODc5LDEuNjEyIDAsMCAtMC4yNTksMCAtMC4yNTksMCAwLDAgLTAuODgzLC0xLjYxMiAtMC44ODMsLTEuNjEyIDAsMCAwLDIuMTI5IDAsMi4xMjkgMCwwIC0wLjQ2NiwwIC0wLjQ2NiwwIDAsMCAwLC0yLjk1OCAwLC0yLjk1OCAwLDAgMC40OTksMCAwLjQ5OSwwIDAsMCAwLjk4LDEuODA4IDAuOTgsMS44MDggMCwwIDAuOTc5LC0xLjgwOCAwLjk3OSwtMS44MDggMCwwIDAuNSwwIDAuNSwwIDAsMCAwLDIuOTU4IDAsMi45NTggMCwwIC0wLjQ3MSwwIC0wLjQ3MSwwIDAsMCAwLDAgMCwwIG0gMi4wMDgsLTIuOTU4IGMgMCwwIDAuNDA5LDAgMC40MDksMCAwLDAgMS4xNjYsMi45NTggMS4xNjYsMi45NTggMCwwIC0wLjQ5MiwwIC0wLjQ5MiwwIDAsMCAtMC4zMTIsLTAuODA0IC0wLjMxMiwtMC44MDQgMCwwIC0xLjE0MSwwIC0xLjE0MSwwIDAsMCAtMC4zMDksMC44MDQgLTAuMzA5LDAuODA0IDAsMCAtMC40OTYsMCAtMC40OTYsMCAwLDAgMS4xNzUsLTIuOTU4IDEuMTc1LC0yLjk1OCAwLDAgMCwwIDAsMCBtIDAuNjc5LDEuODA4IGMgMCwwIC0wLjQ3NSwtMS4yNzEgLTAuNDc1LC0xLjI3MSAwLDAgLTAuNDkxLDEuMjcxIC0wLjQ5MSwxLjI3MSAwLDAgMC45NjYsMCAwLjk2NiwwIDAsMCAwLDAgMCwwIG0gMy4xNDIsLTEuMzk2IGMgMCwwIC0wLjk4MywwIC0wLjk4MywwIDAsMCAwLDIuNTQ2IDAsMi41NDYgMCwwIC0wLjQ3MSwwIC0wLjQ3MSwwIDAsMCAwLC0yLjU0NiAwLC0yLjU0NiAwLDAgLTAuOTg4LDAgLTAuOTg4LDAgMCwwIDAsLTAuNDEyIDAsLTAuNDEyIDAsMCAyLjQ0MiwwIDIuNDQyLDAgMCwwIDAsMC40MTIgMCwwLjQxMiAwLDAgMCwwIDAsMCBtIDAuMzk2LDIuNTQ2IGMgMCwwIDAsLTIuOTU4IDAsLTIuOTU4IDAsMCAwLjQ2NywwIDAuNDY3LDAgMCwwIDAsMi45NTggMCwyLjk1OCAwLDAgLTAuNDY3LDAgLTAuNDY3LDAgMCwwIDAsMCAwLDAgbSAyLjM2MiwwLjAyIGMgLTAuMjExLDAgLTAuNDAzLC0wLjA0MiAtMC41NzcsLTAuMTI2IC0wLjE3MywtMC4wODUgLTAuMzIzLC0wLjE5OCAtMC40NDgsLTAuMzM4IC0wLjEyNSwtMC4xNCAtMC4yMjEsLTAuMyAtMC4yODksLTAuNDgxIC0wLjA2OCwtMC4xODEgLTAuMTAyLC0wLjM2NSAtMC4xMDIsLTAuNTU0IDAsLTAuMTk3IDAuMDM2LC0wLjM4NiAwLjEwOCwtMC41NjcgMC4wNzIsLTAuMTgxIDAuMTcyLC0wLjM0IDAuMjk4LC0wLjQ3OSAwLjEyNiwtMC4xMzkgMC4yNzYsLTAuMjQ5IDAuNDUsLTAuMzMyIDAuMTczLC0wLjA4MSAwLjM2MywtMC4xMjIgMC41NjksLTAuMTIyIDAuMjExLDAgMC40MDMsMC4wNDMgMC41NzcsMC4xMzEgMC4xNzMsMC4wODcgMC4zMjIsMC4yMDIgMC40NDYsMC4zNDQgMC4xMjMsMC4xNDEgMC4yMTksMC4zMDIgMC4yODcsMC40ODEgMC4wNjgsMC4xNzkgMC4xMDIsMC4zNjIgMC4xMDIsMC41NDggMCwwLjE5NyAtMC4wMzUsMC4zODYgLTAuMTA2LDAuNTY3IC0wLjA3MSwwLjE4IC0wLjE3LDAuMzM5IC0wLjI5OCwwLjQ3NiAtMC4xMjgsMC4xMzggLTAuMjc4LDAuMjQ4IC0wLjQ1MiwwLjMzIC0wLjE3NCwwLjA4MiAtMC4zNjIsMC4xMjIgLTAuNTY1LDAuMTIyIE0gNTUuMDcyLDEzLjU5IGMgMCwwLjEzOSAwLjAyMiwwLjI3MyAwLjA2NywwLjQwNCAwLjA0NCwwLjEzIDAuMTA3LDAuMjQ2IDAuMTg5LDAuMzQ2IDAuMDgyLDAuMSAwLjE4MSwwLjE4IDAuMjk4LDAuMjM5IDAuMTE2LDAuMDYgMC4yNDcsMC4wOSAwLjM5MiwwLjA5IDAuMTUsMCAwLjI4MiwtMC4wMzIgMC4zOTcsLTAuMDk0IDAuMTE2LC0wLjA2MyAwLjIxNCwtMC4xNDUgMC4yOTQsLTAuMjQ4IDAuMDgxLC0wLjEwMiAwLjE0MiwtMC4yMTggMC4xODMsLTAuMzQ1IDAuMDQyLC0wLjEyOCAwLjA2MywtMC4yNTkgMC4wNjMsLTAuMzkyIDAsLTAuMTQyIC0wLjAyMiwtMC4yNzcgLTAuMDY3LC0wLjQwNyAtMC4wNDQsLTAuMTI4IC0wLjEwNywtMC4yNDMgLTAuMTg5LC0wLjM0MSAtMC4wODIsLTAuMDk5IC0wLjE4MSwtMC4xNzggLTAuMjk2LC0wLjIzOCAtMC4xMTUsLTAuMDU5IC0wLjI0NCwtMC4wODkgLTAuMzg1LC0wLjA4OSAtMC4xNTEsMCAtMC4yODQsMC4wMzEgLTAuNCwwLjA5MyAtMC4xMTcsMC4wNjMgLTAuMjE2LDAuMTQ0IC0wLjI5NiwwLjI0NCAtMC4wODEsMC4xIC0wLjE0MywwLjIxNSAtMC4xODYsMC4zNDQgLTAuMDQzLDAuMTI5IC0wLjA2NCwwLjI2IC0wLjA2NCwwLjM5NCBtIDMuMzEyLC0wLjYwNCBjIDAsMCAwLDIuMDgzIDAsMi4wODMgMCwwIC0wLjQ2NywwIC0wLjQ2NywwIDAsMCAwLC0yLjk1OCAwLC0yLjk1OCAwLDAgMC4zNjcsMCAwLjM2NywwIDAsMCAxLjY5MSwyLjEzMyAxLjY5MSwyLjEzMyAwLDAgMCwtMi4xMjkgMCwtMi4xMjkgMCwwIDAuNDcyLDAgMC40NzIsMCAwLDAgMCwyLjk1NCAwLDIuOTU0IDAsMCAtMC4zODgsMCAtMC4zODgsMCAwLDAgLTEuNjc1LC0yLjA4MyAtMS42NzUsLTIuMDgzIDAsMCAwLDAgMCwwIiBmaWxsPSIjMzIzNTM5IiBmaWxsLXJ1bGU9Im5vbnplcm8iIHN0cm9rZT0ibm9uZSIgaWQ9InBhdGgxNCIvPiYjeGE7ICAgIDxwYXRoIGQ9Im0gMTQuNjY1LDE5LjMyOSBjIDAsMCAwLC0yLjkyNyAwLC0yLjkyNyAwLDAgMS4yMjgsMCAxLjIyOCwwIDAuMTMyLDAgMC4yNTMsMC4wMjggMC4zNjUsMC4wODMgMC4xMTEsMC4wNTUgMC4yMDcsMC4xMjcgMC4yODYsMC4yMTYgMC4wOCwwLjA5IDAuMTQzLDAuMTkxIDAuMTg4LDAuMzA2IDAuMDQ1LDAuMTE0IDAuMDY4LDAuMjMgMC4wNjgsMC4zNDggMCwwLjEyNCAtMC4wMjEsMC4yNDIgLTAuMDY0LDAuMzU3IC0wLjA0MywwLjExMyAtMC4xMDMsMC4yMTUgLTAuMTc5LDAuMzA1IC0wLjA3NywwLjA4OCAtMC4xNywwLjE2IC0wLjI3OSwwLjIxNCAtMC4xMDgsMC4wNTMgLTAuMjI5LDAuMDggLTAuMzYsMC4wOCAwLDAgLTAuNzkyLDAgLTAuNzkyLDAgMCwwIDAsMS4wMTggMCwxLjAxOCAwLDAgLTAuNDYxLDAgLTAuNDYxLDAgbSAwLjQ2MSwtMS40MjYgYyAwLDAgMC43NjMsMCAwLjc2MywwIDAuMDY2LDAgMC4xMjUsLTAuMDE0IDAuMTc5LC0wLjA0MSAwLjA1NCwtMC4wMjggMC4xLC0wLjA2NiAwLjEzOCwtMC4xMTYgMC4wMzgsLTAuMDQ5IDAuMDY5LC0wLjEwNiAwLjA5MSwtMC4xNzMgMC4wMjIsLTAuMDY2IDAuMDMzLC0wLjEzOSAwLjAzMywtMC4yMTggMCwtMC4wODMgLTAuMDEzLC0wLjE1NyAtMC4wMzcsLTAuMjIzIC0wLjAyNSwtMC4wNjYgLTAuMDU5LC0wLjEyMyAtMC4xMDMsLTAuMTcxIC0wLjA0NCwtMC4wNDggLTAuMDk0LC0wLjA4NSAtMC4xNSwtMC4xMTEgLTAuMDU3LC0wLjAyNiAtMC4xMTYsLTAuMDM5IC0wLjE3NiwtMC4wMzkgMCwwIC0wLjczOCwwIC0wLjczOCwwIDAsMCAwLDEuMDkyIDAsMS4wOTIgbSAyLjE0NCwxLjQyNiBjIDAsMCAwLC0yLjkyNyAwLC0yLjkyNyAwLDAgMS4yNzMsMCAxLjI3MywwIDAuMTMyLDAgMC4yNTQsMC4wMjggMC4zNjUsMC4wODMgMC4xMTIsMC4wNTUgMC4yMDcsMC4xMjcgMC4yODcsMC4yMTYgMC4wNzksMC4wOSAwLjE0MiwwLjE5MSAwLjE4NywwLjMwNiAwLjA0NiwwLjExNCAwLjA2OCwwLjIzIDAuMDY4LDAuMzQ4IDAsMC4wOTggLTAuMDE0LDAuMTk0IC0wLjA0MSwwLjI4NSAtMC4wMjgsMC4wOSAtMC4wNjYsMC4xNzQgLTAuMTE2LDAuMjUxIC0wLjA0OSwwLjA3NyAtMC4xMSwwLjE0MyAtMC4xODEsMC4xOTkgLTAuMDcxLDAuMDU3IC0wLjE1LDAuMDk5IC0wLjIzNSwwLjEyNiAwLDAgMC42ODksMS4xMTMgMC42ODksMS4xMTMgMCwwIC0wLjUyNCwwIC0wLjUyNCwwIDAsMCAtMC42MzUsLTEuMDE4IC0wLjYzNSwtMS4wMTggMCwwIC0wLjY3NiwwIC0wLjY3NiwwIDAsMCAwLDEuMDE4IDAsMS4wMTggMCwwIC0wLjQ2MSwwIC0wLjQ2MSwwIG0gMC40NjEsLTEuNDI2IGMgMCwwIDAuODA4LDAgMC44MDgsMCAwLjA2NiwwIDAuMTI2LC0wLjAxNCAwLjE4LC0wLjA0MyAwLjA1MywtMC4wMjkgMC4wOTksLTAuMDY5IDAuMTM4LC0wLjEyIDAuMDM4LC0wLjA1MSAwLjA2OCwtMC4xMDkgMC4wOSwtMC4xNzUgMC4wMjIsLTAuMDY2IDAuMDMzLC0wLjEzNiAwLjAzMywtMC4yMSAwLC0wLjA3NSAtMC4wMTMsLTAuMTQ0IC0wLjAzOSwtMC4yMSAtMC4wMjYsLTAuMDY3IC0wLjA2LC0wLjEyNCAtMC4xMDMsLTAuMTczIC0wLjA0MiwtMC4wNSAtMC4wOTIsLTAuMDg5IC0wLjE0OCwtMC4xMTggLTAuMDU3LC0wLjAyOSAtMC4xMTUsLTAuMDQzIC0wLjE3NSwtMC4wNDMgMCwwIC0wLjc4NCwwIC0wLjc4NCwwIDAsMCAwLDEuMDkyIDAsMS4wOTIgbSAzLjUxNiwxLjQ0NyBjIC0wLjIwOSwwIC0wLjM5OSwtMC4wNDIgLTAuNTcxLC0wLjEyNiAtMC4xNzEsLTAuMDg0IC0wLjMxOSwtMC4xOTUgLTAuNDQyLC0wLjMzNCAtMC4xMjQsLTAuMTM5IC0wLjIyLC0wLjI5NyAtMC4yODcsLTAuNDc2IC0wLjA2NywtMC4xNzkgLTAuMTAxLC0wLjM2MSAtMC4xMDEsLTAuNTQ4IDAsLTAuMTk1IDAuMDM2LC0wLjM4MiAwLjEwNywtMC41NjEgMC4wNzEsLTAuMTc4IDAuMTcsLTAuMzM3IDAuMjk0LC0wLjQ3NCAwLjEyNiwtMC4xMzcgMC4yNzQsLTAuMjQ2IDAuNDQ2LC0wLjMyNyAwLjE3MiwtMC4wODIgMC4zNTksLTAuMTIyIDAuNTYzLC0wLjEyMiAwLjIwOCwwIDAuMzk5LDAuMDQzIDAuNTcxLDAuMTMgMC4xNzEsMC4wODcgMC4zMTgsMC4yIDAuNDQsMC4zNCAwLjEyMywwLjE0IDAuMjE4LDAuMjk5IDAuMjg1LDAuNDc2IDAuMDY3LDAuMTc3IDAuMTAxLDAuMzU4IDAuMTAxLDAuNTQyIDAsMC4xOTUgLTAuMDM1LDAuMzgyIC0wLjEwNSwwLjU2MSAtMC4wNywwLjE3OCAtMC4xNjgsMC4zMzYgLTAuMjk1LDAuNDcyIC0wLjEyNiwwLjEzNSAtMC4yNzUsMC4yNDQgLTAuNDQ3LDAuMzI1IC0wLjE3MiwwLjA4MSAtMC4zNTgsMC4xMjIgLTAuNTU5LDAuMTIyIG0gLTAuOTMxLC0xLjQ4NCBjIDAsMC4xMzcgMC4wMjIsMC4yNzEgMC4wNjUsMC40IDAuMDQ1LDAuMTI5IDAuMTA3LDAuMjQzIDAuMTg4LDAuMzQyIDAuMDgxLDAuMDk5IDAuMTc5LDAuMTc4IDAuMjk1LDAuMjM3IDAuMTE2LDAuMDU5IDAuMjQ0LDAuMDg4IDAuMzg4LDAuMDg4IDAuMTQ4LDAgMC4yNzksLTAuMDMgMC4zOTMsLTAuMDkyIDAuMTE0LC0wLjA2MiAwLjIxMSwtMC4xNDQgMC4yOTEsLTAuMjQ1IDAuMDc5LC0wLjEwMiAwLjE0LC0wLjIxNiAwLjE4MSwtMC4zNDIgMC4wNDEsLTAuMTI3IDAuMDYyLC0wLjI1NiAwLjA2MiwtMC4zODggMCwtMC4xNCAtMC4wMjIsLTAuMjc0IC0wLjA2NiwtMC40MDIgLTAuMDQ0LC0wLjEyOCAtMC4xMDcsLTAuMjQxIC0wLjE4OCwtMC4zMzggLTAuMDgxLC0wLjA5NyAtMC4xNzgsLTAuMTc2IC0wLjI5MiwtMC4yMzUgLTAuMTE0LC0wLjA1OSAtMC4yNDEsLTAuMDg5IC0wLjM4MSwtMC4wODkgLTAuMTQ5LDAgLTAuMjgxLDAuMDMyIC0wLjM5NiwwLjA5MyAtMC4xMTYsMC4wNjIgLTAuMjEzLDAuMTQyIC0wLjI5MywwLjI0MSAtMC4wOCwwLjA5OSAtMC4xNDEsMC4yMTMgLTAuMTgzLDAuMzQgLTAuMDQzLDAuMTI4IC0wLjA2NCwwLjI1OCAtMC4wNjQsMC4zOSBtIDIuNjY3LC0wLjAyIGMgMCwtMC4xNzcgMC4wMzEsLTAuMzUyIDAuMDk1LC0wLjUyNiAwLjA2MywtMC4xNzUgMC4xNTUsLTAuMzMxIDAuMjc4LC0wLjQ3IDAuMTIyLC0wLjEzOSAwLjI3MSwtMC4yNTEgMC40NDcsLTAuMzM2IDAuMTc2LC0wLjA4NSAwLjM3NSwtMC4xMjggMC41OTgsLTAuMTI4IDAuMjY2LDAgMC40OTQsMC4wNTkgMC42ODQsMC4xNzcgMC4xODksMC4xMTggMC4zMzIsMC4yNzIgMC40MjksMC40NjIgMCwwIC0wLjM2MywwLjI0MyAtMC4zNjMsMC4yNDMgQyAyNS4xMSwxNy4xOCAyNS4wNiwxNy4xMDYgMjUuMDAzLDE3LjA0NiAyNC45NDUsMTYuOTg1IDI0Ljg4MSwxNi45MzcgMjQuODEyLDE2LjkwMSAyNC43NDQsMTYuODY2IDI0LjY3MywxNi44NCAyNC41OTgsMTYuODI1IDI0LjUyNCwxNi44MSAyNC40NTMsMTYuODAyIDI0LjM4NCwxNi44MDIgYyAtMC4xNTQsMCAtMC4yODksMC4wMzIgLTAuNDA0LDAuMDkzIC0wLjExNSwwLjA2MiAtMC4yMTIsMC4xNDQgLTAuMjkxLDAuMjQ1IC0wLjA3OCwwLjEwMiAtMC4xMzcsMC4yMTYgLTAuMTc3LDAuMzQzIC0wLjAzOSwwLjEyNiAtMC4wNTksMC4yNTMgLTAuMDU5LDAuMzc5IDAsMC4xNDMgMC4wMjMsMC4yNzkgMC4wNywwLjQwOCAwLjA0NiwwLjEyOSAwLjExMSwwLjI0MyAwLjE5NSwwLjM0MiAwLjA4NCwwLjA5OSAwLjE4NCwwLjE3OCAwLjI5OSwwLjIzNyAwLjExNiwwLjA1OSAwLjI0MiwwLjA4OSAwLjM3OSwwLjA4OSAwLjA3MiwwIDAuMTQ1LC0wLjAwOSAwLjIyMSwtMC4wMjcgMC4wNzUsLTAuMDE4IDAuMTQ4LC0wLjA0NyAwLjIxOCwtMC4wODcgMC4wNywtMC4wMzkgMC4xMzUsLTAuMDkgMC4xOTQsLTAuMTUgMC4wNTksLTAuMDYgMC4xMDgsLTAuMTMzIDAuMTQ2LC0wLjIxOSAwLDAgMC4zODQsMC4yMTkgMC4zODQsMC4yMTkgLTAuMDQ3LDAuMTEgLTAuMTEzLDAuMjA3IC0wLjE5OCwwLjI5MSAtMC4wODUsMC4wODMgLTAuMTgxLDAuMTU0IC0wLjI4OCwwLjIxMiAtMC4xMDgsMC4wNTggLTAuMjIxLDAuMTAxIC0wLjM0MSwwLjEzMiAtMC4xMTksMC4wMyAtMC4yMzcsMC4wNDUgLTAuMzUyLDAuMDQ1IC0wLjIwNiwwIC0wLjM5NCwtMC4wNDQgLTAuNTY1LC0wLjEzMiAtMC4xNywtMC4wODggLTAuMzE3LC0wLjIwMyAtMC40NDEsLTAuMzQ0IC0wLjEyMywtMC4xNDIgLTAuMjIsLTAuMzAyIC0wLjI4OCwtMC40ODMgLTAuMDY5LC0wLjE3OSAtMC4xMDMsLTAuMzYzIC0wLjEwMywtMC41NDkgbSA1LjA0OSwxLjA3NSBjIDAsMCAwLDAuNDA4IDAsMC40MDggMCwwIC0yLjAwOCwwIC0yLjAwOCwwIDAsMCAwLC0yLjkyNyAwLC0yLjkyNyAwLDAgMS45NzEsMCAxLjk3MSwwIDAsMCAwLDAuNDA5IDAsMC40MDkgMCwwIC0xLjUwOSwwIC0xLjUwOSwwIDAsMCAwLDAuODMyIDAsMC44MzIgMCwwIDEuMzA3LDAgMS4zMDcsMCAwLDAgMCwwLjM4NCAwLDAuMzg0IDAsMCAtMS4zMDcsMCAtMS4zMDcsMCAwLDAgMCwwLjg5NCAwLDAuODk0IDAsMCAxLjU0NiwwIDEuNTQ2LDAgMCwwIDAsMCAwLDAgbSAyLjE4NSwtMS44MyBjIC0wLjAyOCwtMC4wMyAtMC4wNjgsLTAuMDYyIC0wLjEyLC0wLjA5NyAtMC4wNTIsLTAuMDM0IC0wLjExMywtMC4wNjcgLTAuMTg0LC0wLjA5NyAtMC4wNywtMC4wMyAtMC4xNDYsLTAuMDU1IC0wLjIzLC0wLjA3NCAtMC4wODQsLTAuMDE5IC0wLjE3LC0wLjAyOSAtMC4yNTgsLTAuMDI5IC0wLjE5NSwwIC0wLjMzOSwwLjAzNiAtMC40MzEsMC4xMDcgLTAuMDkyLDAuMDcyIC0wLjEzOCwwLjE3MSAtMC4xMzgsMC4yOTcgMCwwLjA3MiAwLjAxNCwwLjEzIDAuMDQ0LDAuMTc1IDAuMDI5LDAuMDQ2IDAuMDczLDAuMDg2IDAuMTM0LDAuMTIgMC4wNiwwLjAzNCAwLjEzNiwwLjA2NSAwLjIyNiwwLjA5MSAwLjA5MSwwLjAyNiAwLjE5NywwLjA1NCAwLjMxOCwwLjA4NCAwLjE0OCwwLjAzNiAwLjI4MiwwLjA3NiAwLjQwMiwwLjEyIDAuMTE5LDAuMDQ0IDAuMjIsMC4wOTcgMC4zMDIsMC4xNiAwLjA4MywwLjA2NCAwLjE0NywwLjE0MSAwLjE5MiwwLjIzMyAwLjA0NiwwLjA5MiAwLjA2OCwwLjIwNCAwLjA2OCwwLjMzNiAwLDAuMTQ4IC0wLjAyOCwwLjI3NiAtMC4wODQsMC4zODQgLTAuMDU3LDAuMTA3IC0wLjEzNCwwLjE5NCAtMC4yMzEsMC4yNjEgLTAuMDk4LDAuMDY3IC0wLjIxMSwwLjExNyAtMC4zNCwwLjE0OSAtMC4xMjksMC4wMzEgLTAuMjY4LDAuMDQ3IC0wLjQxNywwLjA0NyAtMC4yMjIsMCAtMC40MzcsLTAuMDMzIC0wLjY0NSwtMC4xMDEgLTAuMjA3LC0wLjA2OCAtMC4zOTUsLTAuMTY1IC0wLjU2MiwtMC4yOTUgMCwwIDAuMjEsLTAuMzk1IDAuMjEsLTAuMzk1IDAuMDM2LDAuMDM1IDAuMDg3LDAuMDc1IDAuMTU1LDAuMTE5IDAuMDY3LDAuMDQ0IDAuMTQ1LDAuMDg1IDAuMjM0LDAuMTIyIDAuMDksMC4wMzcgMC4xODcsMC4wNjkgMC4yOTEsMC4wOTUgMC4xMDQsMC4wMjYgMC4yMTMsMC4wMzkgMC4zMjYsMC4wMzkgMC4xODEsMCAwLjMyMSwtMC4wMzIgMC40MiwtMC4wOTUgMC4wOTksLTAuMDYzIDAuMTQ4LC0wLjE1NiAwLjE0OCwtMC4yOCAwLC0wLjA3NSAtMC4wMTgsLTAuMTM2IC0wLjA1NSwtMC4xODYgLTAuMDM3LC0wLjA0OSAtMC4wOSwtMC4wOTMgLTAuMTU5LC0wLjEzIC0wLjA2OSwtMC4wMzcgLTAuMTUyLC0wLjA3MSAtMC4yNTEsLTAuMTAxIC0wLjA5OSwtMC4wMyAtMC4yMTIsLTAuMDYyIC0wLjMzOCwtMC4wOTUgLTAuMTQ2LC0wLjAzOCAtMC4yNzMsLTAuMDc4IC0wLjM4MiwtMC4xMjEgLTAuMTA4LC0wLjA0MyAtMC4xOTgsLTAuMDk0IC0wLjI2OSwtMC4xNTUgLTAuMDcyLC0wLjA2IC0wLjEyNiwtMC4xMzEgLTAuMTYzLC0wLjIxMiAtMC4wMzcsLTAuMDgxIC0wLjA1NiwtMC4xNzkgLTAuMDU2LC0wLjI5NSAwLC0wLjE0MyAwLjAyNywtMC4yNyAwLjA4MiwtMC4zODEgMC4wNTUsLTAuMTExIDAuMTMsLTAuMjA1IDAuMjI1LC0wLjI4IDAuMDk1LC0wLjA3NiAwLjIwNywtMC4xMzMgMC4zMzYsLTAuMTcxIDAuMTI5LC0wLjAzOSAwLjI2OSwtMC4wNTggMC40MjEsLTAuMDU4IDAuMTk4LDAgMC4zOCwwLjAzMiAwLjU0OCwwLjA5NSAwLjE2NywwLjA2MyAwLjMxNCwwLjE0MSAwLjQ0MSwwLjIzNSAwLDAgLTAuMjEsMC4zNzkgLTAuMjEsMC4zNzkgbSAyLjU1NSwwIGMgLTAuMDI3LC0wLjAzIC0wLjA2NywtMC4wNjIgLTAuMTE5LC0wLjA5NyAtMC4wNTIsLTAuMDM0IC0wLjExNCwtMC4wNjcgLTAuMTg0LC0wLjA5NyAtMC4wNywtMC4wMyAtMC4xNDcsLTAuMDU1IC0wLjIzMSwtMC4wNzQgLTAuMDgzLC0wLjAxOSAtMC4xNywtMC4wMjkgLTAuMjU3LC0wLjAyOSAtMC4xOTYsMCAtMC4zMzksMC4wMzYgLTAuNDMxLDAuMTA3IC0wLjA5MiwwLjA3MiAtMC4xMzgsMC4xNzEgLTAuMTM4LDAuMjk3IDAsMC4wNzIgMC4wMTQsMC4xMyAwLjA0MywwLjE3NSAwLjAyOSwwLjA0NiAwLjA3NCwwLjA4NiAwLjEzNCwwLjEyIDAuMDYsMC4wMzQgMC4xMzYsMC4wNjUgMC4yMjcsMC4wOTEgMC4wOTEsMC4wMjYgMC4xOTYsMC4wNTQgMC4zMTcsMC4wODQgMC4xNDksMC4wMzYgMC4yODMsMC4wNzYgMC40MDIsMC4xMiAwLjEyLDAuMDQ0IDAuMjIxLDAuMDk3IDAuMzAzLDAuMTYgMC4wODMsMC4wNjQgMC4xNDYsMC4xNDEgMC4xOTIsMC4yMzMgMC4wNDUsMC4wOTIgMC4wNjgsMC4yMDQgMC4wNjgsMC4zMzYgMCwwLjE0OCAtMC4wMjgsMC4yNzYgLTAuMDg1LDAuMzg0IC0wLjA1NiwwLjEwNyAtMC4xMzMsMC4xOTQgLTAuMjMxLDAuMjYxIC0wLjA5NywwLjA2NyAtMC4yMTEsMC4xMTcgLTAuMzQsMC4xNDkgLTAuMTI5LDAuMDMxIC0wLjI2OCwwLjA0NyAtMC40MTYsMC4wNDcgLTAuMjIzLDAgLTAuNDM3LC0wLjAzMyAtMC42NDUsLTAuMTAxIC0wLjIwNywtMC4wNjggLTAuMzk1LC0wLjE2NSAtMC41NjMsLTAuMjk1IDAsMCAwLjIxMSwtMC4zOTUgMC4yMTEsLTAuMzk1IDAuMDM1LDAuMDM1IDAuMDg3LDAuMDc1IDAuMTU0LDAuMTE5IDAuMDY3LDAuMDQ0IDAuMTQ2LDAuMDg1IDAuMjM1LDAuMTIyIDAuMDksMC4wMzcgMC4xODYsMC4wNjkgMC4yOTEsMC4wOTUgMC4xMDQsMC4wMjYgMC4yMTMsMC4wMzkgMC4zMjUsMC4wMzkgMC4xODEsMCAwLjMyMiwtMC4wMzIgMC40MjEsLTAuMDk1IDAuMDk4LC0wLjA2MyAwLjE0OCwtMC4xNTYgMC4xNDgsLTAuMjggMCwtMC4wNzUgLTAuMDE4LC0wLjEzNiAtMC4wNTYsLTAuMTg2IC0wLjAzNywtMC4wNDkgLTAuMDksLTAuMDkzIC0wLjE1OCwtMC4xMyBDIDMyLjMyLDE4LjIxNCAzMi4yMzYsMTguMTggMzIuMTM3LDE4LjE1IDMyLjAzOSwxOC4xMiAzMS45MjYsMTguMDg4IDMxLjc5OSwxOC4wNTUgMzEuNjU0LDE4LjAxNyAzMS41MjYsMTcuOTc3IDMxLjQxOCwxNy45MzQgMzEuMzA5LDE3Ljg5MSAzMS4yMiwxNy44NCAzMS4xNDgsMTcuNzc5IDMxLjA3NiwxNy43MTkgMzEuMDIyLDE3LjY0OCAzMC45ODUsMTcuNTY3IDMwLjk0OCwxNy40ODYgMzAuOTMsMTcuMzg4IDMwLjkzLDE3LjI3MiBjIDAsLTAuMTQzIDAuMDI3LC0wLjI3IDAuMDgyLC0wLjM4MSAwLjA1NSwtMC4xMTEgMC4xMywtMC4yMDUgMC4yMjUsLTAuMjggMC4wOTQsLTAuMDc2IDAuMjA3LC0wLjEzMyAwLjMzNiwtMC4xNzEgMC4xMjksLTAuMDM5IDAuMjY5LC0wLjA1OCAwLjQyLC0wLjA1OCAwLjE5OCwwIDAuMzgxLDAuMDMyIDAuNTQ4LDAuMDk1IDAuMTY4LDAuMDYzIDAuMzE1LDAuMTQxIDAuNDQxLDAuMjM1IDAsMCAtMC4yMSwwLjM3OSAtMC4yMSwwLjM3OSBtIDAuODI0LDIuMjM4IGMgMCwwIDAsLTIuOTI3IDAsLTIuOTI3IDAsMCAwLjQ2MiwwIDAuNDYyLDAgMCwwIDAsMi45MjcgMCwyLjkyNyAwLDAgLTAuNDYyLDAgLTAuNDYyLDAgMCwwIDAsMCAwLDAgbSAxLjYyLC0yLjA2MSBjIDAsMCAwLDIuMDYxIDAsMi4wNjEgMCwwIC0wLjQ2MSwwIC0wLjQ2MSwwIDAsMCAwLC0yLjkyNyAwLC0yLjkyNyAwLDAgMC4zNjIsMCAwLjM2MiwwIDAsMCAxLjY3NCwyLjExMSAxLjY3NCwyLjExMSAwLDAgMCwtMi4xMDYgMCwtMi4xMDYgMCwwIDAuNDY2LDAgMC40NjYsMCAwLDAgMCwyLjkyMiAwLDIuOTIyIDAsMCAtMC4zODQsMCAtMC4zODQsMCAwLDAgLTEuNjU3LC0yLjA2MSAtMS42NTcsLTIuMDYxIDAsMCAwLDAgMCwwIG0gNC43ODYsMS42OTggYyAtMC4yNDcsMC4yNTYgLTAuNTMyLDAuMzg0IC0wLjg1MywwLjM4NCAtMC4xOTYsMCAtMC4zNzcsLTAuMDQxIC0wLjU0NCwtMC4xMjIgLTAuMTY4LC0wLjA4MSAtMC4zMTQsLTAuMTkgLTAuNDM4LC0wLjMyNyAtMC4xMjMsLTAuMTM4IC0wLjIyLC0wLjI5NyAtMC4yOSwtMC40NzkgLTAuMDcsLTAuMTgxIC0wLjEwNSwtMC4zNyAtMC4xMDUsLTAuNTY4IDAsLTAuMTk4IDAuMDM1LC0wLjM4NiAwLjEwNSwtMC41NjUgMC4wNywtMC4xNzkgMC4xNjcsLTAuMzM1IDAuMjksLTAuNDcgMC4xMjQsLTAuMTM1IDAuMjcxLC0wLjI0MSAwLjQ0MiwtMC4zMTkgMC4xNywtMC4wNzkgMC4zNTYsLTAuMTE4IDAuNTU2LC0wLjExOCAwLjI4MSwwIDAuNTE1LDAuMDU4IDAuNzA1LDAuMTc1IDAuMTg5LDAuMTE3IDAuMzMyLDAuMjcyIDAuNDI5LDAuNDY0IDAsMCAtMC4zNTUsMC4yNTUgLTAuMzU1LDAuMjU1IC0wLjA4LC0wLjE1OSAtMC4xODksLTAuMjc5IC0wLjMyOSwtMC4zNTggLTAuMTQxLC0wLjA4IC0wLjI5NSwtMC4xMTkgLTAuNDYyLC0wLjExOSAtMC4xMzgsMCAtMC4yNjIsMC4wMjkgLTAuMzc1LDAuMDg4IC0wLjExMywwLjA1OSAtMC4yMDksMC4xMzcgLTAuMjg5LDAuMjM1IC0wLjA3OSwwLjA5NyAtMC4xNCwwLjIxMSAtMC4xODMsMC4zNCAtMC4wNDMsMC4xMjkgLTAuMDY0LDAuMjY0IC0wLjA2NCwwLjQwNCAwLDAuMTQ4IDAuMDI0LDAuMjg3IDAuMDcyLDAuNDE2IDAuMDQ4LDAuMTI5IDAuMTE0LDAuMjQyIDAuMTk4LDAuMzM4IDAuMDg0LDAuMDk2IDAuMTgzLDAuMTczIDAuMjk5LDAuMjI5IDAuMTE1LDAuMDU2IDAuMjQsMC4wODQgMC4zNzUsMC4wODQgMC4xNDgsMCAwLjI5MSwtMC4wMzQgMC40MjYsLTAuMTAyIDAuMTM2LC0wLjA2OSAwLjI2NiwtMC4xNzggMC4zOSwtMC4zMjYgMCwwIDAsLTAuMzEzIDAsLTAuMzEzIDAsMCAtMC42MTQsMCAtMC42MTQsMCAwLDAgMCwtMC4zNDMgMCwtMC4zNDMgMCwwIDEuMDAyLDAgMS4wMDIsMCAwLDAgMCwxLjQ4IDAsMS40OCAwLDAgLTAuMzg4LDAgLTAuMzg4LDAgMCwwIDAsLTAuMzYzIDAsLTAuMzYzIG0gMy43MDEsLTEuODc1IEMgNDMuNjc2LDE3LjA2MSA0My42MzYsMTcuMDI5IDQzLjU4NCwxNi45OTQgNDMuNTMyLDE2Ljk2IDQzLjQ3MSwxNi45MjcgNDMuNCwxNi44OTcgNDMuMzMsMTYuODY3IDQzLjI1MywxNi44NDIgNDMuMTcsMTYuODIzIDQzLjA4NiwxNi44MDQgNDMsMTYuNzk0IDQyLjkxMiwxNi43OTQgYyAtMC4xOTUsMCAtMC4zMzksMC4wMzYgLTAuNDMxLDAuMTA3IC0wLjA5MiwwLjA3MiAtMC4xMzgsMC4xNzEgLTAuMTM4LDAuMjk3IDAsMC4wNzIgMC4wMTUsMC4xMyAwLjA0MywwLjE3NSAwLjAyOSwwLjA0NiAwLjA3NCwwLjA4NiAwLjEzNCwwLjEyIDAuMDYxLDAuMDM0IDAuMTM2LDAuMDY1IDAuMjI3LDAuMDkxIDAuMDkxLDAuMDI2IDAuMTk3LDAuMDU0IDAuMzE4LDAuMDg0IDAuMTQ4LDAuMDM2IDAuMjgyLDAuMDc2IDAuNDAyLDAuMTIgMC4xMTksMC4wNDQgMC4yMiwwLjA5NyAwLjMwMiwwLjE2IDAuMDgzLDAuMDY0IDAuMTQ3LDAuMTQxIDAuMTkyLDAuMjMzIDAuMDQ2LDAuMDkyIDAuMDY4LDAuMjA0IDAuMDY4LDAuMzM2IDAsMC4xNDggLTAuMDI4LDAuMjc2IC0wLjA4NSwwLjM4NCAtMC4wNTYsMC4xMDcgLTAuMTMzLDAuMTk0IC0wLjIzLDAuMjYxIC0wLjA5OCwwLjA2NyAtMC4yMTEsMC4xMTcgLTAuMzQsMC4xNDkgLTAuMTI5LDAuMDMxIC0wLjI2OCwwLjA0NyAtMC40MTcsMC4wNDcgLTAuMjIyLDAgLTAuNDM3LC0wLjAzMyAtMC42NDUsLTAuMTAxIC0wLjIwNywtMC4wNjggLTAuMzk1LC0wLjE2NSAtMC41NjIsLTAuMjk1IDAsMCAwLjIxLC0wLjM5NSAwLjIxLC0wLjM5NSAwLjAzNiwwLjAzNSAwLjA4NywwLjA3NSAwLjE1NCwwLjExOSAwLjA2OCwwLjA0NCAwLjE0NiwwLjA4NSAwLjIzNSwwLjEyMiAwLjA5LDAuMDM3IDAuMTg3LDAuMDY5IDAuMjkxLDAuMDk1IDAuMTA0LDAuMDI2IDAuMjEzLDAuMDM5IDAuMzI2LDAuMDM5IDAuMTgxLDAgMC4zMjEsLTAuMDMyIDAuNDIsLTAuMDk1IDAuMDk5LC0wLjA2MyAwLjE0OCwtMC4xNTYgMC4xNDgsLTAuMjggMCwtMC4wNzUgLTAuMDE4LC0wLjEzNiAtMC4wNTUsLTAuMTg2IC0wLjAzNywtMC4wNDkgLTAuMDksLTAuMDkzIC0wLjE1OSwtMC4xMyBDIDQzLjI1MSwxOC4yMTQgNDMuMTY4LDE4LjE4IDQzLjA2OSwxOC4xNSA0Mi45NywxOC4xMiA0Mi44NTcsMTguMDg4IDQyLjczLDE4LjA1NSA0Mi41ODUsMTguMDE3IDQyLjQ1OCwxNy45NzcgNDIuMzQ5LDE3LjkzNCA0Mi4yNDEsMTcuODkxIDQyLjE1MSwxNy44NCA0Mi4wOCwxNy43NzkgYyAtMC4wNzIsLTAuMDYgLTAuMTI2LC0wLjEzMSAtMC4xNjMsLTAuMjEyIC0wLjAzNywtMC4wODEgLTAuMDU2LC0wLjE3OSAtMC4wNTYsLTAuMjk1IDAsLTAuMTQzIDAuMDI3LC0wLjI3IDAuMDgyLC0wLjM4MSAwLjA1NSwtMC4xMTEgMC4xMywtMC4yMDUgMC4yMjUsLTAuMjggMC4wOTUsLTAuMDc2IDAuMjA3LC0wLjEzMyAwLjMzNiwtMC4xNzEgMC4xMjksLTAuMDM5IDAuMjY5LC0wLjA1OCAwLjQyLC0wLjA1OCAwLjE5OCwwIDAuMzgxLDAuMDMyIDAuNTQ5LDAuMDk1IDAuMTY3LDAuMDYzIDAuMzE0LDAuMTQxIDAuNDQsMC4yMzUgMCwwIC0wLjIxLDAuMzc5IC0wLjIxLDAuMzc5IG0gMC45NzcsLTAuNjg5IGMgMCwwIDAuODA4LDEuNDY4IDAuODA4LDEuNDY4IDAsMCAwLjgxNiwtMS40NjggMC44MTYsLTEuNDY4IDAsMCAwLjUwNywwIDAuNTA3LDAgMCwwIC0xLjA5MiwxLjg4IC0xLjA5MiwxLjg4IDAsMCAwLDEuMDQ3IDAsMS4wNDcgMCwwIC0wLjQ2MiwwIC0wLjQ2MiwwIDAsMCAwLC0xLjA1NSAwLC0xLjA1NSAwLDAgLTEuMDg0LC0xLjg3MiAtMS4wODQsLTEuODcyIDAsMCAwLjUwNywwIDAuNTA3LDAgMCwwIDAsMCAwLDAgbSA0LjE4NCwwLjY4OSBjIC0wLjAyNywtMC4wMyAtMC4wNjcsLTAuMDYyIC0wLjExOSwtMC4wOTcgLTAuMDUzLC0wLjAzNCAtMC4xMTQsLTAuMDY3IC0wLjE4NCwtMC4wOTcgLTAuMDcsLTAuMDMgLTAuMTQ3LC0wLjA1NSAtMC4yMzEsLTAuMDc0IC0wLjA4NCwtMC4wMTkgLTAuMTY5LC0wLjAyOSAtMC4yNTcsLTAuMDI5IC0wLjE5NiwwIC0wLjMzOSwwLjAzNiAtMC40MzEsMC4xMDcgLTAuMDkyLDAuMDcyIC0wLjEzOCwwLjE3MSAtMC4xMzgsMC4yOTcgMCwwLjA3MiAwLjAxNCwwLjEzIDAuMDQzLDAuMTc1IDAuMDI5LDAuMDQ2IDAuMDc0LDAuMDg2IDAuMTM0LDAuMTIgMC4wNiwwLjAzNCAwLjEzNiwwLjA2NSAwLjIyNywwLjA5MSAwLjA5LDAuMDI2IDAuMTk2LDAuMDU0IDAuMzE3LDAuMDg0IDAuMTQ5LDAuMDM2IDAuMjgzLDAuMDc2IDAuNDAyLDAuMTIgMC4xMiwwLjA0NCAwLjIyLDAuMDk3IDAuMzAzLDAuMTYgMC4wODIsMC4wNjQgMC4xNDcsMC4xNDEgMC4xOTIsMC4yMzMgMC4wNDUsMC4wOTIgMC4wNjgsMC4yMDQgMC4wNjgsMC4zMzYgMCwwLjE0OCAtMC4wMjksMC4yNzYgLTAuMDg1LDAuMzg0IC0wLjA1NiwwLjEwNyAtMC4xMzMsMC4xOTQgLTAuMjMxLDAuMjYxIC0wLjA5NywwLjA2NyAtMC4yMTEsMC4xMTcgLTAuMzQsMC4xNDkgLTAuMTI5LDAuMDMxIC0wLjI2OCwwLjA0NyAtMC40MTYsMC4wNDcgLTAuMjIzLDAgLTAuNDM4LC0wLjAzMyAtMC42NDUsLTAuMTAxIC0wLjIwNywtMC4wNjggLTAuMzk1LC0wLjE2NSAtMC41NjMsLTAuMjk1IDAsMCAwLjIxLC0wLjM5NSAwLjIxLC0wLjM5NSAwLjAzNiwwLjAzNSAwLjA4OCwwLjA3NSAwLjE1NSwwLjExOSAwLjA2NywwLjA0NCAwLjE0NiwwLjA4NSAwLjIzNSwwLjEyMiAwLjA4OSwwLjAzNyAwLjE4NiwwLjA2OSAwLjI5MSwwLjA5NSAwLjEwNCwwLjAyNiAwLjIxMywwLjAzOSAwLjMyNSwwLjAzOSAwLjE4MSwwIDAuMzIyLC0wLjAzMiAwLjQyMSwtMC4wOTUgMC4wOTksLTAuMDYzIDAuMTQ4LC0wLjE1NiAwLjE0OCwtMC4yOCAwLC0wLjA3NSAtMC4wMTksLTAuMTM2IC0wLjA1NiwtMC4xODYgQyA0OC42MDIsMTguMzMyIDQ4LjU1LDE4LjI4OCA0OC40ODEsMTguMjUxIDQ4LjQxMiwxOC4yMTQgNDguMzI4LDE4LjE4IDQ4LjIyOSwxOC4xNSA0OC4xMywxOC4xMiA0OC4wMTgsMTguMDg4IDQ3Ljg5MSwxOC4wNTUgNDcuNzQ1LDE4LjAxNyA0Ny42MTksMTcuOTc3IDQ3LjUxLDE3LjkzNCA0Ny40MDEsMTcuODkxIDQ3LjMxMSwxNy44NCA0Ny4yNCwxNy43NzkgYyAtMC4wNzEsLTAuMDYgLTAuMTI2LC0wLjEzMSAtMC4xNjMsLTAuMjEyIC0wLjAzNywtMC4wODEgLTAuMDU1LC0wLjE3OSAtMC4wNTUsLTAuMjk1IDAsLTAuMTQzIDAuMDI3LC0wLjI3IDAuMDgyLC0wLjM4MSAwLjA1NSwtMC4xMTEgMC4xMywtMC4yMDUgMC4yMjQsLTAuMjggMC4wOTUsLTAuMDc2IDAuMjA3LC0wLjEzMyAwLjMzNiwtMC4xNzEgMC4xMywtMC4wMzkgMC4yNywtMC4wNTggMC40MjEsLTAuMDU4IDAuMTk4LDAgMC4zODEsMC4wMzIgMC41NDgsMC4wOTUgMC4xNjgsMC4wNjMgMC4zMTUsMC4xNDEgMC40NDEsMC4yMzUgMCwwIC0wLjIxLDAuMzc5IC0wLjIxLDAuMzc5IG0gMi45NTEsLTAuMjggYyAwLDAgLTAuOTcyLDAgLTAuOTcyLDAgMCwwIDAsMi41MTggMCwyLjUxOCAwLDAgLTAuNDY2LDAgLTAuNDY2LDAgMCwwIDAsLTIuNTE4IDAsLTIuNTE4IDAsMCAtMC45NzcsMCAtMC45NzcsMCAwLDAgMCwtMC40MDkgMCwtMC40MDkgMCwwIDIuNDE1LDAgMi40MTUsMCAwLDAgMCwwLjQwOSAwLDAuNDA5IDAsMCAwLDAgMCwwIG0gMi40MzYsMi4xMSBjIDAsMCAwLDAuNDA4IDAsMC40MDggMCwwIC0yLjAwNywwIC0yLjAwNywwIDAsMCAwLC0yLjkyNyAwLC0yLjkyNyAwLDAgMS45NywwIDEuOTcsMCAwLDAgMCwwLjQwOSAwLDAuNDA5IDAsMCAtMS41MDgsMCAtMS41MDgsMCAwLDAgMCwwLjgzMiAwLDAuODMyIDAsMCAxLjMwNywwIDEuMzA3LDAgMCwwIDAsMC4zODQgMCwwLjM4NCAwLDAgLTEuMzA3LDAgLTEuMzA3LDAgMCwwIDAsMC44OTQgMCwwLjg5NCAwLDAgMS41NDUsMCAxLjU0NSwwIDAsMCAwLDAgMCwwIG0gMi45NzYsMC40MDggYyAwLDAgMCwtMi4xMDYgMCwtMi4xMDYgMCwwIC0wLjg2OSwxLjU5NSAtMC44NjksMS41OTUgMCwwIC0wLjI1NiwwIC0wLjI1NiwwIDAsMCAtMC44NzQsLTEuNTk1IC0wLjg3NCwtMS41OTUgMCwwIDAsMi4xMDYgMCwyLjEwNiAwLDAgLTAuNDYxLDAgLTAuNDYxLDAgMCwwIDAsLTIuOTI3IDAsLTIuOTI3IDAsMCAwLjQ5NCwwIDAuNDk0LDAgMCwwIDAuOTY5LDEuNzkgMC45NjksMS43OSAwLDAgMC45NjksLTEuNzkgMC45NjksLTEuNzkgMCwwIDAuNDk0LDAgMC40OTQsMCAwLDAgMCwyLjkyNyAwLDIuOTI3IDAsMCAtMC40NjYsMCAtMC40NjYsMCAwLDAgMCwwIDAsMCBtIDIuODk0LC0yLjIzOCBjIC0wLjAyOCwtMC4wMyAtMC4wNjgsLTAuMDYyIC0wLjEyLC0wLjA5NyAtMC4wNTIsLTAuMDM0IC0wLjExMywtMC4wNjcgLTAuMTgzLC0wLjA5NyAtMC4wNywtMC4wMyAtMC4xNDcsLTAuMDU1IC0wLjIzMSwtMC4wNzQgLTAuMDg0LC0wLjAxOSAtMC4xNywtMC4wMjkgLTAuMjU3LC0wLjAyOSAtMC4xOTYsMCAtMC4zMzksMC4wMzYgLTAuNDMxLDAuMTA3IC0wLjA5MiwwLjA3MiAtMC4xMzgsMC4xNzEgLTAuMTM4LDAuMjk3IDAsMC4wNzIgMC4wMTQsMC4xMyAwLjA0MywwLjE3NSAwLjAyOSwwLjA0NiAwLjA3MywwLjA4NiAwLjEzNCwwLjEyIDAuMDYsMC4wMzQgMC4xMzYsMC4wNjUgMC4yMjcsMC4wOTEgMC4wOSwwLjAyNiAwLjE5NiwwLjA1NCAwLjMxNywwLjA4NCAwLjE0OCwwLjAzNiAwLjI4MiwwLjA3NiAwLjQwMiwwLjEyIDAuMTE5LDAuMDQ0IDAuMjIsMC4wOTcgMC4zMDMsMC4xNiAwLjA4MiwwLjA2NCAwLjE0NiwwLjE0MSAwLjE5MiwwLjIzMyAwLjA0NSwwLjA5MiAwLjA2OCwwLjIwNCAwLjA2OCwwLjMzNiAwLDAuMTQ4IC0wLjAyOSwwLjI3NiAtMC4wODUsMC4zODQgLTAuMDU2LDAuMTA3IC0wLjEzMywwLjE5NCAtMC4yMzEsMC4yNjEgLTAuMDk4LDAuMDY3IC0wLjIxMSwwLjExNyAtMC4zNCwwLjE0OSAtMC4xMjksMC4wMzEgLTAuMjY4LDAuMDQ3IC0wLjQxNiwwLjA0NyAtMC4yMjMsMCAtMC40MzgsLTAuMDMzIC0wLjY0NSwtMC4xMDEgLTAuMjA4LC0wLjA2OCAtMC4zOTUsLTAuMTY1IC0wLjU2MywtMC4yOTUgMCwwIDAuMjEsLTAuMzk1IDAuMjEsLTAuMzk1IDAuMDM2LDAuMDM1IDAuMDg4LDAuMDc1IDAuMTU1LDAuMTE5IDAuMDY3LDAuMDQ0IDAuMTQ2LDAuMDg1IDAuMjM1LDAuMTIyIDAuMDg5LDAuMDM3IDAuMTg2LDAuMDY5IDAuMjksMC4wOTUgMC4xMDUsMC4wMjYgMC4yMTMsMC4wMzkgMC4zMjYsMC4wMzkgMC4xODEsMCAwLjMyMiwtMC4wMzIgMC40MiwtMC4wOTUgMC4wOTksLTAuMDYzIDAuMTQ5LC0wLjE1NiAwLjE0OSwtMC4yOCAwLC0wLjA3NSAtMC4wMTksLTAuMTM2IC0wLjA1NiwtMC4xODYgLTAuMDM3LC0wLjA0OSAtMC4wOSwtMC4wOTMgLTAuMTU5LC0wLjEzIC0wLjA2OCwtMC4wMzcgLTAuMTUyLC0wLjA3MSAtMC4yNTEsLTAuMTAxIC0wLjA5OSwtMC4wMyAtMC4yMTEsLTAuMDYyIC0wLjMzOCwtMC4wOTUgLTAuMTQ2LC0wLjAzOCAtMC4yNzMsLTAuMDc4IC0wLjM4MSwtMC4xMjEgLTAuMTA5LC0wLjA0MyAtMC4xOTksLTAuMDk0IC0wLjI3LC0wLjE1NSAtMC4wNzIsLTAuMDYgLTAuMTI2LC0wLjEzMSAtMC4xNjMsLTAuMjEyIC0wLjAzNywtMC4wODEgLTAuMDU2LC0wLjE3OSAtMC4wNTYsLTAuMjk1IDAsLTAuMTQzIDAuMDI4LC0wLjI3IDAuMDgzLC0wLjM4MSAwLjA1NSwtMC4xMTEgMC4xMywtMC4yMDUgMC4yMjQsLTAuMjggMC4wOTUsLTAuMDc2IDAuMjA3LC0wLjEzMyAwLjMzNiwtMC4xNzEgMC4xMywtMC4wMzkgMC4yNywtMC4wNTggMC40MjEsLTAuMDU4IDAuMTk4LDAgMC4zOCwwLjAzMiAwLjU0OCwwLjA5NSAwLjE2OCwwLjA2MyAwLjMxNSwwLjE0MSAwLjQ0MSwwLjIzNSAwLDAgLTAuMjEsMC4zNzkgLTAuMjEsMC4zNzkiIGZpbGw9IiMzMjM1MzkiIGZpbGwtcnVsZT0ibm9uemVybyIgc3Ryb2tlPSJub25lIiBpZD0icGF0aDE2Ii8+JiN4YTsgIDwvZz4mI3hhOzwvc3ZnPg==;" parent="1" vertex="1">
          <mxGeometry x="120" y="800" width="800" height="344.83" as="geometry" />
        </mxCell>
        <mxCell id="G008LspMD98nF5xx96pf-6" value="&lt;font style=&quot;font-size: 150px; color: light-dark(rgb(51, 53, 57), rgb(237, 237, 237));&quot;&gt;2024&lt;/font&gt;" style="text;html=1;align=center;verticalAlign=middle;resizable=0;points=[];autosize=1;strokeColor=none;fillColor=none;" parent="1" vertex="1">
          <mxGeometry x="407" y="1010" width="360" height="190" as="geometry" />
        </mxCell>
        <mxCell id="G008LspMD98nF5xx96pf-7" value="&lt;b&gt;&lt;font style=&quot;font-size: 150px; color: light-dark(rgb(52, 65, 77), rgb(237, 237, 237));&quot;&gt;2026&lt;/font&gt;&lt;/b&gt;" style="text;html=1;align=center;verticalAlign=middle;resizable=0;points=[];autosize=1;strokeColor=none;fillColor=none;" parent="1" vertex="1">
          <mxGeometry x="583.34" y="1500" width="360" height="190" as="geometry" />
        </mxCell>
        <mxCell id="G008LspMD98nF5xx96pf-8" value="&lt;b&gt;&lt;font style=&quot;font-size: 150px; color: light-dark(rgb(16, 15, 13), rgb(237, 237, 237));&quot;&gt;2025&lt;/font&gt;&lt;/b&gt;" style="text;html=1;align=center;verticalAlign=middle;resizable=0;points=[];autosize=1;strokeColor=none;fillColor=none;" parent="1" vertex="1">
          <mxGeometry x="577.34" y="2003" width="360" height="190" as="geometry" />
        </mxCell>
        <mxCell id="4fY6x7Ct1yeW6kCFjcyt-1" value="" style="shape=image;verticalLabelPosition=bottom;labelBackgroundColor=default;verticalAlign=top;aspect=fixed;imageAspect=0;image=data:image/png,iVBORw0KGgoAAAANSUhEUgAABLAAAAMsBAMAAAC2DEZKAAAABGdBTUEAALGPC/xhBQAAACBjSFJNAAB6JgAAgIQAAPoAAACA6AAAdTAAAOpgAAA6mAAAF3CculE8AAAAMFBMVEUAAADtGyTtHSTuHCTtHCTtHCTuHCPsHCTtHCTtHCTwHh7tHiXuHCTtHSPtHCT///+m40UdAAAADnRSTlMAOKnM1+5mh+LkEUWvu8ByvUcAAAABYktHRA8YugDZAAAAB3RJTUUH6QMVByEericDkgAAB1JJREFUeNrt0lERQEAUhtFNooQeHkUQw8ghghCaePFsZJCBmV3LPV+D+9+TkgrXnO+3ewNYYAksgSWwwBJYAktggSWwBJbAAktgCSyBBZbAElgCCyyBJbAEFlgCS2AJLLAElsASWGAJLIElsMASWAJLYIElsASWwAJLYAksgQWWwBJYAgsssMASWAILLLDAElgCCyywwBJYAgsssMASWAKrBlitCtfFgHUqYGAJLIEFFlhgCSyBBRZYYAksgQUWWGAJLIEFFlhgCSyBJbDAElgCS2CBJbAElsACS2AJLIEFlsASWAILLIElsAQWWAJLYAkssASWwBJYYAksgSWwwBJYAktggSWwBJbAAktgCSyBBZbAElgCCyyBJbAEFlgCS2AJLLAElsASWGAJLIElsMASWAJLYIElsASWwAJLYAksgQWWwBJYAgssgSWwBBZYAktgCSywBJbAElhgCSyBJbDAAgssgSWwwAILLIElsMACCyyBJbDAAgssgSWwjAwWWAJLYAkssASWwBJYYAksgSWwwBJYAktggSWwBJbAAktgCSyBBZbAElgCCyyBJbAEFlgCS2AJLLAElsASWGAJLIElsMASWAJLYIElsASWwAJLYAksgQWWwBJYAgssgSWwBBZYAktgCSywBJbAElhgCSyBJbDAElgCS2CBJbAElsACS2AJLIEFlsASWAILLIElsAQWWGCBJbAEFlhggSWwBBZYYIElsAQWWGCBJbAEFlhggSWwBJbAAktgCSyBBZbAElgCCyyBJbAEFlgCS2AJLLAElsASWGAJLIElsMASWAJLYIElsASWwAJLYAksgQWWwBJYAgssgSWwBBZYAktgCSywBJbAElhgCSyBJbDAElgCS2CBJbAElsACS2AJLIEFlsASWAILLIElsAQWWAJLYAkssASWwBJYYAksgSWwwBJYAktggSWwBJbAAgsssATWw/ohUiNYpZpSpBqwwAILLLDAAgsssMACCyywwAILLLDAAgsssMACCyywwAILLLDAAgsssMACCyywwAILLLDAAgsssMACCyywwAILLLDAAgsssMACCyywwAILLLDAAgsssMACCyywwAILLLDAAgsssMACCyywwAILLLDAAgsssMACCyywwAILLLDAAgsssMACCyywwAILLLDAAgsssMACCyywwAILLLDAAgsssMACCyywwAILLLDAAgsssMACCyywwAILLLDAAgsssMACCyywwAILLLDAAgsssMACCyywwAILLLDAAgsssMACCyywwAILLLDAAgsssMACCyywwAILLLDAAgsssMACCyywwAILLLDAAgsssMACCyywwAILLLDAAgsssMACCyywwAILLLDAAgsssMACCyywwAILLLDAAgsssMACCyywwAILLLDAAgsssMACCyywwAILLLDAAgsssMACCyywwAILLLDAAgsssMACCyywwAILLLDAAgsssMACCyywwAILLLDAAgsssMACCyywwAILLLDAAgsssMACCyywwAILLLDAAgsssMACCyywwAILLLDAAgsssMACCyywwAILLLDAAgsssMACCyywwAILLLDAAgsssMACCyywwAILLLDAAgsssMACCyywwAILLLDAAgsssMACCyywwAILLLDAAgsssMACCyywwAILLLDAAgsssMACCyywwAILLLDAAgsssMACCyywwAILLLDAAgsssMACCyywwAILLLDAAgsssMACCyywwAILLLDAAgsssMACCyywwAILLLDAAgsssMACCyywwAILLLDAAgsssMACCyywwAILLLDAAgsssMACCyywwAILLLDAAgsssMACCyywwAILLLDAAgsssMACCyywwLrdvERqrWDxI/uVVcDS/wJLYAksgSWBJbAElgSWwBJYElgCS2BJYAksgSWBJbAElgSWwBJYElgCS2BJYAksgSWBJbAElgSWwBJYElgCS2BJYAksgSWBJbAElgSWwBJYElgCS2BJYAksgSWBJbAElgSWwBJYElgCS2BJYAksgSWBJbAElgSWwBJYElgCS2BJYAksgSWBJbAElgSWwBJYElgCS2BJYAksgSWwJLAElsCSwBJYAksCS2AJLAksgSWwJLAElsCSwBJYAksCS2AJLAksgSWwJLAElsCSwBJYAksCS2AJLAksgSWwJLAElsCSwBJYAksCS2AJLAksgSWwJLAElsCSwBJYAksCS2AJLAksgSWwJLAElsCSwBJYAksCS2AJLAksgSWwJLAElsCSwBJYAksCS2AJLAksgSWwBJYJBJbAElgSWAJLYElgCSyBJYElsASWBJbAElgSWAJLYElgCSyBJYElsASWBJbAElgSWAJLYElgCSyBJYElsASWBJbAElgSWAJLYElgCSyBJYElsASWBJbAElgSWAJLYElgCSyBJYElsASWBJbAElgSWAJLYElgCSyBJYElsASWBJbAElgSWAJLYElgCSyBJYElsASWBJbAElgCSwJLX4G1SRm6AOtRY5uqsvwmAAAAJXRFWHRkYXRlOmNyZWF0ZQAyMDI1LTAzLTIxVDA3OjMzOjI5KzAwOjAwRgyPOQAAACV0RVh0ZGF0ZTptb2RpZnkAMjAyNS0wMy0yMVQwNzozMzoyOSswMDowMDdRN4UAAAAASUVORK5CYII=;" parent="1" vertex="1">
          <mxGeometry x="70" y="30" width="443.34" height="300" as="geometry" />
        </mxCell>
        <mxCell id="4fY6x7Ct1yeW6kCFjcyt-2" value="&lt;b&gt;&lt;font style=&quot;font-size: 150px;&quot;&gt;ACL 2025&lt;/font&gt;&lt;/b&gt;" style="text;html=1;align=center;verticalAlign=middle;resizable=0;points=[];autosize=1;strokeColor=none;fillColor=none;" parent="1" vertex="1">
          <mxGeometry x="527.34" y="85" width="700" height="190" as="geometry" />
        </mxCell>
      </root>
    </mxGraphModel>
  </diagram>
</mxfile>
